<svg xmlns="http://www.w3.org/2000/svg" width="500" height="500"><rect width="500" height="500" x="0" y="0" style="fill:#fff"/><path d="M 41 0 L 41 500" style="stroke:#f4f4f4; stroke-width:5; stroke-linejoin:round; stroke-linecap:round; fill:rgba(0,0,0,0)"/><path d="M 0 41 L 500 41" style="stroke:#f4f4f4; stroke-width:5; stroke-linejoin:round; stroke-linecap:round; fill:rgba(0,0,0,0)"/><path d="M 83 0 L 83 500" style="stroke:#f4f4f4; stroke-width:5; stroke-linejoin:round; stroke-linecap:round; fill:rgba(0,0,0,0)"/><path d="M 0 83 L 500 83" style="stroke:#f4f4f4; stroke-width:5; stroke-linejoin:round; stroke-linecap:round; fill:rgba(0,0,0,0)"/><path d="M 125 0 L 125 500" style="stroke:#f4f4f4; stroke-width:5; stroke-linejoin:round; stroke-linecap:round; fill:rgba(0,0,0,0)"/><path d="M 0 125 L 500 125" style="stroke:#f4f4f4; stroke-width:5; stroke-linejoin:round; stroke-linecap:round; fill:rgba(0,0,0,0)"/><path d="M 166 0 L 166 500" style="stroke:#f4f4f4; stroke-width:5; stroke-linejoin:round; stroke-linecap:round; fill:rgba(0,0,0,0)"/><path d="M 0 166 L 500 166" style="stroke:#f4f4f4; stroke-width:5; stroke-linejoin:round; stroke-linecap:round; fill:rgba(0,0,0,0)"/><path d="M 208 0 L 208 500" style="stroke:#f4f4f4; stroke-width:5; stroke-linejoin:round; stroke-linecap:round; fill:rgba(0,0,0,0)"/><path d="M 0 208 L 500 208" style="stroke:#f4f4f4; stroke-width:5; stroke-linejoin:round; stroke-linecap:round; fill:rgba(0,0,0,0)"/><path d="M 250 0 L 250 500" style="stroke:#f4f4f4; stroke-width:5; stroke-linejoin:round; stroke-linecap:round; fill:rgba(0,0,0,0)"/><path d="M 0 250 L 500 250" style="stroke:#f4f4f4; stroke-width:5; stroke-linejoin:round; stroke-linecap:round; fill:rgba(0,0,0,0)"/><path d="M 291 0 L 291 500" style="stroke:#f4f4f4; stroke-width:5; stroke-linejoin:round; stroke-linecap:round; fill:rgba(0,0,0,0)"/><path d="M 0 291 L 500 291" style="stroke:#f4f4f4; stroke-width:5; stroke-linejoin:round; stroke-linecap:round; fill:rgba(0,0,0,0)"/><path d="M 333 0 L 333 500" style="stroke:#f4f4f4; stroke-width:5; stroke-linejoin:round; stroke-linecap:round; fill:rgba(0,0,0,0)"/><path d="M 0 333 L 500 333" style="stroke:#f4f4f4; stroke-width:5; stroke-linejoin:round; stroke-linecap:round; fill:rgba(0,0,0,0)"/><path d="M 375 0 L 375 500" style="stroke:#f4f4f4; stroke-width:5; stroke-linejoin:round; stroke-linecap:round; fill:rgba(0,0,0,0)"/><path d="M 0 375 L 500 375" style="stroke:#f4f4f4; stroke-width:5; stroke-linejoin:round; stroke-linecap:round; fill:rgba(0,0,0,0)"/><path d="M 416 0 L 416 500" style="stroke:#f4f4f4; stroke-width:5; stroke-linejoin:round; stroke-linecap:round; fill:rgba(0,0,0,0)"/><path d="M 0 416 L 500 416" style="stroke:#f4f4f4; stroke-width:5; stroke-linejoin:round; stroke-linecap:round; fill:rgba(0,0,0,0)"/><path d="M 458 0 L 458 500" style="stroke:#f4f4f4; stroke-width:5; stroke-linejoin:round; stroke-linecap:round; fill:rgba(0,0,0,0)"/><path d="M 0 458 L 500 458" style="stroke:#f4f4f4; stroke-width:5; stroke-linejoin:round; stroke-linecap:round; fill:rgba(0,0,0,0)"/><path d="M 41 0 L 41 500" style="stroke:#f4f4f4; stroke-width:5; stroke-linejoin:round; stroke-linecap:round; fill:rgba(0,0,0,0)"/><path d="M 83 0 L 83 500" style="stroke:#f4f4f4; stroke-width:5; stroke-linejoin:round; stroke-linecap:round; fill:rgba(0,0,0,0)"/><path d="M 125 0 L 125 500" style="stroke:#f4f4f4; stroke-width:5; stroke-linejoin:round; stroke-linecap:round; fill:rgba(0,0,0,0)"/><path d="M 166 0 L 166 500" style="stroke:#f4f4f4; stroke-width:5; stroke-linejoin:round; stroke-linecap:round; fill:rgba(0,0,0,0)"/><path d="M 208 0 L 208 500" style="stroke:#f4f4f4; stroke-width:5; stroke-linejoin:round; stroke-linecap:round; fill:rgba(0,0,0,0)"/><path d="M 250 0 L 250 500" style="stroke:#f4f4f4; stroke-width:5; stroke-linejoin:round; stroke-linecap:round; fill:rgba(0,0,0,0)"/><path d="M 291 0 L 291 500" style="stroke:#f4f4f4; stroke-width:5; stroke-linejoin:round; stroke-linecap:round; fill:rgba(0,0,0,0)"/><path d="M 333 0 L 333 500" style="stroke:#f4f4f4; stroke-width:5; stroke-linejoin:round; stroke-linecap:round; fill:rgba(0,0,0,0)"/><path d="M 375 0 L 375 500" style="stroke:#f4f4f4; stroke-width:5; stroke-linejoin:round; stroke-linecap:round; fill:rgba(0,0,0,0)"/><path d="M 416 0 L 416 500" style="stroke:#f4f4f4; stroke-width:5; stroke-linejoin:round; stroke-linecap:round; fill:rgba(0,0,0,0)"/><path d="M 458 0 L 458 500" style="stroke:#f4f4f4; stroke-width:5; stroke-linejoin:round; stroke-linecap:round; fill:rgba(0,0,0,0)"/><path d="M 0 250 L 500 250" style="stroke:#ccc; stroke-width:5; stroke-linejoin:round; stroke-linecap:round; fill:rgba(0,0,0,0)"/><path d="M 250 0 L 250 500" style="stroke:#ccc; stroke-width:5; stroke-linejoin:round; stroke-linecap:round; fill:rgba(0,0,0,0)"/><path d="M 41 245 L 41 255" style="stroke:#ccc; stroke-width:5; stroke-linejoin:round; stroke-linecap:round; fill:rgba(0,0,0,0)"/><path d="M 245 458 L 255 458" style="stroke:#ccc; stroke-width:5; stroke-linejoin:round; stroke-linecap:round; fill:rgba(0,0,0,0)"/><path d="M 83 245 L 83 255" style="stroke:#ccc; stroke-width:5; stroke-linejoin:round; stroke-linecap:round; fill:rgba(0,0,0,0)"/><path d="M 245 416 L 255 416" style="stroke:#ccc; stroke-width:5; stroke-linejoin:round; stroke-linecap:round; fill:rgba(0,0,0,0)"/><path d="M 125 245 L 125 255" style="stroke:#ccc; stroke-width:5; stroke-linejoin:round; stroke-linecap:round; fill:rgba(0,0,0,0)"/><path d="M 245 375 L 255 375" style="stroke:#ccc; stroke-width:5; stroke-linejoin:round; stroke-linecap:round; fill:rgba(0,0,0,0)"/><path d="M 166 245 L 166 255" style="stroke:#ccc; stroke-width:5; stroke-linejoin:round; stroke-linecap:round; fill:rgba(0,0,0,0)"/><path d="M 245 333 L 255 333" style="stroke:#ccc; stroke-width:5; stroke-linejoin:round; stroke-linecap:round; fill:rgba(0,0,0,0)"/><path d="M 208 245 L 208 255" style="stroke:#ccc; stroke-width:5; stroke-linejoin:round; stroke-linecap:round; fill:rgba(0,0,0,0)"/><path d="M 245 291 L 255 291" style="stroke:#ccc; stroke-width:5; stroke-linejoin:round; stroke-linecap:round; fill:rgba(0,0,0,0)"/><path d="M 291 245 L 291 255" style="stroke:#ccc; stroke-width:5; stroke-linejoin:round; stroke-linecap:round; fill:rgba(0,0,0,0)"/><path d="M 245 208 L 255 208" style="stroke:#ccc; stroke-width:5; stroke-linejoin:round; stroke-linecap:round; fill:rgba(0,0,0,0)"/><path d="M 333 245 L 333 255" style="stroke:#ccc; stroke-width:5; stroke-linejoin:round; stroke-linecap:round; fill:rgba(0,0,0,0)"/><path d="M 245 166 L 255 166" style="stroke:#ccc; stroke-width:5; stroke-linejoin:round; stroke-linecap:round; fill:rgba(0,0,0,0)"/><path d="M 375 245 L 375 255" style="stroke:#ccc; stroke-width:5; stroke-linejoin:round; stroke-linecap:round; fill:rgba(0,0,0,0)"/><path d="M 245 125 L 255 125" style="stroke:#ccc; stroke-width:5; stroke-linejoin:round; stroke-linecap:round; fill:rgba(0,0,0,0)"/><path d="M 416 245 L 416 255" style="stroke:#ccc; stroke-width:5; stroke-linejoin:round; stroke-linecap:round; fill:rgba(0,0,0,0)"/><path d="M 245 83 L 255 83" style="stroke:#ccc; stroke-width:5; stroke-linejoin:round; stroke-linecap:round; fill:rgba(0,0,0,0)"/><path d="M 458 245 L 458 255" style="stroke:#ccc; stroke-width:5; stroke-linejoin:round; stroke-linecap:round; fill:rgba(0,0,0,0)"/><path d="M 245 41 L 255 41" style="stroke:#ccc; stroke-width:5; stroke-linejoin:round; stroke-linecap:round; fill:rgba(0,0,0,0)"/><path d="M 492 242 L 500 250" style="stroke:#ccc; stroke-width:5; stroke-linejoin:round; stroke-linecap:round; fill:rgba(0,0,0,0)"/><path d="M 492 257 L 500 250" style="stroke:#ccc; stroke-width:5; stroke-linejoin:round; stroke-linecap:round; fill:rgba(0,0,0,0)"/><path d="M 240 10 L 250 0" style="stroke:#ccc; stroke-width:5; stroke-linejoin:round; stroke-linecap:round; fill:rgba(0,0,0,0)"/><path d="M 260 10 L 250 0" style="stroke:#ccc; stroke-width:5; stroke-linejoin:round; stroke-linecap:round; fill:rgba(0,0,0,0)"/><path d="M 157 1 L 157 2 L 157 4 L 158 6 L 158 8 L 159 10 L 159 12 L 159 13 L 160 15 L 160 17 L 161 19 L 161 21 L 162 22 L 162 24 L 162 26 L 163 28 L 163 29 L 164 31 L 164 33 L 164 34 L 165 36 L 165 38 L 166 39 L 166 41 L 167 43 L 167 44 L 167 46 L 168 48 L 168 49 L 169 51 L 169 53 L 169 54 L 170 56 L 170 57 L 171 59 L 171 61 L 172 62 L 172 64 L 172 65 L 173 67 L 173 68 L 174 70 L 174 71 L 174 73 L 175 74 L 175 76 L 176 77 L 176 79 L 177 80 L 177 82 L 177 83 L 178 85 L 178 86 L 179 87 L 179 89 L 179 90 L 180 92 L 180 93 L 181 94 L 181 96 L 182 97 L 182 98 L 182 100 L 183 101 L 183 102 L 184 104 L 184 105 L 184 106 L 185 108 L 185 109 L 186 110 L 186 112 L 187 113 L 187 114 L 187 115 L 188 117 L 188 118 L 189 119 L 189 120 L 189 121 L 190 123 L 190 124 L 191 125 L 191 126 L 192 127 L 192 128 L 192 130 L 193 131 L 193 132 L 194 133 L 194 134 L 194 135 L 195 136 L 195 137 L 196 138 L 196 140 L 197 141 L 197 142 L 197 143 L 198 144 L 198 145 L 199 146 L 199 147 L 199 148 L 200 149 L 200 150 L 201 151 L 201 152 L 202 153 L 202 154 L 202 155 L 203 156 L 203 156 L 204 157 L 204 158 L 204 159 L 205 160 L 205 161 L 206 162 L 206 163 L 207 164 L 207 164 L 207 165 L 208 166 L 208 167 L 209 168 L 209 169 L 209 169 L 210 170 L 210 171 L 211 172 L 211 173 L 212 173 L 212 174 L 212 175 L 213 176 L 213 176 L 214 177 L 214 178 L 214 178 L 215 179 L 215 180 L 216 180 L 216 181 L 217 182 L 217 182 L 217 183 L 218 184 L 218 184 L 219 185 L 219 186 L 219 186 L 220 187 L 220 187 L 221 188 L 221 189 L 222 189 L 222 190 L 222 190 L 223 191 L 223 191 L 224 192 L 224 192 L 224 193 L 225 193 L 225 194 L 226 194 L 226 195 L 227 195 L 227 196 L 227 196 L 228 197 L 228 197 L 229 197 L 229 198 L 229 198 L 230 199 L 230 199 L 231 199 L 231 200 L 232 200 L 232 200 L 232 201 L 233 201 L 233 201 L 234 202 L 234 202 L 234 202 L 235 203 L 235 203 L 236 203 L 236 204 L 237 204 L 237 204 L 237 204 L 238 205 L 238 205 L 239 205 L 239 205 L 239 205 L 240 206 L 240 206 L 241 206 L 241 206 L 242 206 L 242 206 L 242 207 L 243 207 L 243 207 L 244 207 L 244 207 L 244 207 L 245 207 L 245 207 L 246 207 L 246 208 L 247 208 L 247 208 L 247 208 L 248 208 L 248 208 L 249 208 L 249 208 L 249 208 L 250 208 L 250 208 L 251 208 L 251 208 L 252 208 L 252 208 L 252 208 L 253 208 L 253 207 L 254 207 L 254 207 L 254 207 L 255 207 L 255 207 L 256 207 L 256 207 L 257 207 L 257 206 L 257 206 L 258 206 L 258 206 L 259 206 L 259 206 L 259 205 L 260 205 L 260 205 L 261 205 L 261 205 L 262 204 L 262 204 L 262 204 L 263 204 L 263 203 L 264 203 L 264 203 L 264 202 L 265 202 L 265 202 L 266 201 L 266 201 L 267 201 L 267 200 L 267 200 L 268 200 L 268 199 L 269 199 L 269 199 L 269 198 L 270 198 L 270 197 L 271 197 L 271 197 L 272 196 L 272 196 L 272 195 L 273 195 L 273 194 L 274 194 L 274 193 L 274 193 L 275 192 L 275 192 L 276 191 L 276 191 L 277 190 L 277 190 L 277 189 L 278 189 L 278 188 L 279 187 L 279 187 L 279 186 L 280 186 L 280 185 L 281 184 L 281 184 L 282 183 L 282 182 L 282 182 L 283 181 L 283 180 L 284 180 L 284 179 L 284 178 L 285 178 L 285 177 L 286 176 L 286 176 L 287 175 L 287 174 L 287 173 L 288 173 L 288 172 L 289 171 L 289 170 L 289 169 L 290 169 L 290 168 L 291 167 L 291 166 L 292 165 L 292 164 L 292 164 L 293 163 L 293 162 L 294 161 L 294 160 L 294 159 L 295 158 L 295 157 L 296 156 L 296 156 L 297 155 L 297 154 L 297 153 L 298 152 L 298 151 L 299 150 L 299 149 L 299 148 L 300 147 L 300 146 L 301 145 L 301 144 L 302 143 L 302 142 L 302 141 L 303 140 L 303 138 L 304 137 L 304 136 L 304 135 L 305 134 L 305 133 L 306 132 L 306 131 L 307 130 L 307 128 L 307 127 L 308 126 L 308 125 L 309 124 L 309 123 L 309 121 L 310 120 L 310 119 L 311 118 L 311 117 L 312 115 L 312 114 L 312 113 L 313 112 L 313 110 L 314 109 L 314 108 L 314 106 L 315 105 L 315 104 L 316 102 L 316 101 L 317 100 L 317 98 L 317 97 L 318 96 L 318 94 L 319 93 L 319 92 L 319 90 L 320 89 L 320 87 L 321 86 L 321 85 L 322 83 L 322 82 L 322 80 L 323 79 L 323 77 L 324 76 L 324 74 L 324 73 L 325 71 L 325 70 L 326 68 L 326 67 L 327 65 L 327 64 L 327 62 L 328 61 L 328 59 L 329 57 L 329 56 L 329 54 L 330 53 L 330 51 L 331 49 L 331 48 L 332 46 L 332 44 L 332 43 L 333 41 L 333 39 L 334 38 L 334 36 L 334 34 L 335 33 L 335 31 L 336 29 L 336 28 L 337 26 L 337 24 L 337 22 L 338 21 L 338 19 L 339 17 L 339 15 L 339 13 L 340 12 L 340 10 L 341 8 L 341 6 L 342 4 L 342 2 L 342 1 " style="stroke:#8DC34E; stroke-width:5; stroke-linejoin:round; stroke-linecap:round; fill:rgba(0,0,0,0)"/><path d="" style="stroke:#8DC34E; stroke-width:5; stroke-linejoin:round; stroke-linecap:round; fill:rgba(0,0,0,0)"/><path d="M 41 0 L 41 500" style="stroke:#f4f4f4; stroke-width:5; stroke-linejoin:round; stroke-linecap:round; fill:rgba(0,0,0,0)"/><path d="M 0 41 L 500 41" style="stroke:#f4f4f4; stroke-width:5; stroke-linejoin:round; stroke-linecap:round; fill:rgba(0,0,0,0)"/><path d="M 83 0 L 83 500" style="stroke:#f4f4f4; stroke-width:5; stroke-linejoin:round; stroke-linecap:round; fill:rgba(0,0,0,0)"/><path d="M 0 83 L 500 83" style="stroke:#f4f4f4; stroke-width:5; stroke-linejoin:round; stroke-linecap:round; fill:rgba(0,0,0,0)"/><path d="M 125 0 L 125 500" style="stroke:#f4f4f4; stroke-width:5; stroke-linejoin:round; stroke-linecap:round; fill:rgba(0,0,0,0)"/><path d="M 0 125 L 500 125" style="stroke:#f4f4f4; stroke-width:5; stroke-linejoin:round; stroke-linecap:round; fill:rgba(0,0,0,0)"/><path d="M 166 0 L 166 500" style="stroke:#f4f4f4; stroke-width:5; stroke-linejoin:round; stroke-linecap:round; fill:rgba(0,0,0,0)"/><path d="M 0 166 L 500 166" style="stroke:#f4f4f4; stroke-width:5; stroke-linejoin:round; stroke-linecap:round; fill:rgba(0,0,0,0)"/><path d="M 208 0 L 208 500" style="stroke:#f4f4f4; stroke-width:5; stroke-linejoin:round; stroke-linecap:round; fill:rgba(0,0,0,0)"/><path d="M 0 208 L 500 208" style="stroke:#f4f4f4; stroke-width:5; stroke-linejoin:round; stroke-linecap:round; fill:rgba(0,0,0,0)"/><path d="M 250 0 L 250 500" style="stroke:#f4f4f4; stroke-width:5; stroke-linejoin:round; stroke-linecap:round; fill:rgba(0,0,0,0)"/><path d="M 0 250 L 500 250" style="stroke:#f4f4f4; stroke-width:5; stroke-linejoin:round; stroke-linecap:round; fill:rgba(0,0,0,0)"/><path d="M 291 0 L 291 500" style="stroke:#f4f4f4; stroke-width:5; stroke-linejoin:round; stroke-linecap:round; fill:rgba(0,0,0,0)"/><path d="M 0 291 L 500 291" style="stroke:#f4f4f4; stroke-width:5; stroke-linejoin:round; stroke-linecap:round; fill:rgba(0,0,0,0)"/><path d="M 333 0 L 333 500" style="stroke:#f4f4f4; stroke-width:5; stroke-linejoin:round; stroke-linecap:round; fill:rgba(0,0,0,0)"/><path d="M 0 333 L 500 333" style="stroke:#f4f4f4; stroke-width:5; stroke-linejoin:round; stroke-linecap:round; fill:rgba(0,0,0,0)"/><path d="M 375 0 L 375 500" style="stroke:#f4f4f4; stroke-width:5; stroke-linejoin:round; stroke-linecap:round; fill:rgba(0,0,0,0)"/><path d="M 0 375 L 500 375" style="stroke:#f4f4f4; stroke-width:5; stroke-linejoin:round; stroke-linecap:round; fill:rgba(0,0,0,0)"/><path d="M 416 0 L 416 500" style="stroke:#f4f4f4; stroke-width:5; stroke-linejoin:round; stroke-linecap:round; fill:rgba(0,0,0,0)"/><path d="M 0 416 L 500 416" style="stroke:#f4f4f4; stroke-width:5; stroke-linejoin:round; stroke-linecap:round; fill:rgba(0,0,0,0)"/><path d="M 458 0 L 458 500" style="stroke:#f4f4f4; stroke-width:5; stroke-linejoin:round; stroke-linecap:round; fill:rgba(0,0,0,0)"/><path d="M 0 458 L 500 458" style="stroke:#f4f4f4; stroke-width:5; stroke-linejoin:round; stroke-linecap:round; fill:rgba(0,0,0,0)"/><path d="M 41 0 L 41 500" style="stroke:#f4f4f4; stroke-width:5; stroke-linejoin:round; stroke-linecap:round; fill:rgba(0,0,0,0)"/><path d="M 83 0 L 83 500" style="stroke:#f4f4f4; stroke-width:5; stroke-linejoin:round; stroke-linecap:round; fill:rgba(0,0,0,0)"/><path d="M 125 0 L 125 500" style="stroke:#f4f4f4; stroke-width:5; stroke-linejoin:round; stroke-linecap:round; fill:rgba(0,0,0,0)"/><path d="M 166 0 L 166 500" style="stroke:#f4f4f4; stroke-width:5; stroke-linejoin:round; stroke-linecap:round; fill:rgba(0,0,0,0)"/><path d="M 208 0 L 208 500" style="stroke:#f4f4f4; stroke-width:5; stroke-linejoin:round; stroke-linecap:round; fill:rgba(0,0,0,0)"/><path d="M 250 0 L 250 500" style="stroke:#f4f4f4; stroke-width:5; stroke-linejoin:round; stroke-linecap:round; fill:rgba(0,0,0,0)"/><path d="M 291 0 L 291 500" style="stroke:#f4f4f4; stroke-width:5; stroke-linejoin:round; stroke-linecap:round; fill:rgba(0,0,0,0)"/><path d="M 333 0 L 333 500" style="stroke:#f4f4f4; stroke-width:5; stroke-linejoin:round; stroke-linecap:round; fill:rgba(0,0,0,0)"/><path d="M 375 0 L 375 500" style="stroke:#f4f4f4; stroke-width:5; stroke-linejoin:round; stroke-linecap:round; fill:rgba(0,0,0,0)"/><path d="M 416 0 L 416 500" style="stroke:#f4f4f4; stroke-width:5; stroke-linejoin:round; stroke-linecap:round; fill:rgba(0,0,0,0)"/><path d="M 458 0 L 458 500" style="stroke:#f4f4f4; stroke-width:5; stroke-linejoin:round; stroke-linecap:round; fill:rgba(0,0,0,0)"/><path d="M 0 250 L 500 250" style="stroke:#ccc; stroke-width:5; stroke-linejoin:round; stroke-linecap:round; fill:rgba(0,0,0,0)"/><path d="M 250 0 L 250 500" style="stroke:#ccc; stroke-width:5; stroke-linejoin:round; stroke-linecap:round; fill:rgba(0,0,0,0)"/><path d="M 41 245 L 41 255" style="stroke:#ccc; stroke-width:5; stroke-linejoin:round; stroke-linecap:round; fill:rgba(0,0,0,0)"/><path d="M 245 458 L 255 458" style="stroke:#ccc; stroke-width:5; stroke-linejoin:round; stroke-linecap:round; fill:rgba(0,0,0,0)"/><path d="M 83 245 L 83 255" style="stroke:#ccc; stroke-width:5; stroke-linejoin:round; stroke-linecap:round; fill:rgba(0,0,0,0)"/><path d="M 245 416 L 255 416" style="stroke:#ccc; stroke-width:5; stroke-linejoin:round; stroke-linecap:round; fill:rgba(0,0,0,0)"/><path d="M 125 245 L 125 255" style="stroke:#ccc; stroke-width:5; stroke-linejoin:round; stroke-linecap:round; fill:rgba(0,0,0,0)"/><path d="M 245 375 L 255 375" style="stroke:#ccc; stroke-width:5; stroke-linejoin:round; stroke-linecap:round; fill:rgba(0,0,0,0)"/><path d="M 166 245 L 166 255" style="stroke:#ccc; stroke-width:5; stroke-linejoin:round; stroke-linecap:round; fill:rgba(0,0,0,0)"/><path d="M 245 333 L 255 333" style="stroke:#ccc; stroke-width:5; stroke-linejoin:round; stroke-linecap:round; fill:rgba(0,0,0,0)"/><path d="M 208 245 L 208 255" style="stroke:#ccc; stroke-width:5; stroke-linejoin:round; stroke-linecap:round; fill:rgba(0,0,0,0)"/><path d="M 245 291 L 255 291" style="stroke:#ccc; stroke-width:5; stroke-linejoin:round; stroke-linecap:round; fill:rgba(0,0,0,0)"/><path d="M 291 245 L 291 255" style="stroke:#ccc; stroke-width:5; stroke-linejoin:round; stroke-linecap:round; fill:rgba(0,0,0,0)"/><path d="M 245 208 L 255 208" style="stroke:#ccc; stroke-width:5; stroke-linejoin:round; stroke-linecap:round; fill:rgba(0,0,0,0)"/><path d="M 333 245 L 333 255" style="stroke:#ccc; stroke-width:5; stroke-linejoin:round; stroke-linecap:round; fill:rgba(0,0,0,0)"/><path d="M 245 166 L 255 166" style="stroke:#ccc; stroke-width:5; stroke-linejoin:round; stroke-linecap:round; fill:rgba(0,0,0,0)"/><path d="M 375 245 L 375 255" style="stroke:#ccc; stroke-width:5; stroke-linejoin:round; stroke-linecap:round; fill:rgba(0,0,0,0)"/><path d="M 245 125 L 255 125" style="stroke:#ccc; stroke-width:5; stroke-linejoin:round; stroke-linecap:round; fill:rgba(0,0,0,0)"/><path d="M 416 245 L 416 255" style="stroke:#ccc; stroke-width:5; stroke-linejoin:round; stroke-linecap:round; fill:rgba(0,0,0,0)"/><path d="M 245 83 L 255 83" style="stroke:#ccc; stroke-width:5; stroke-linejoin:round; stroke-linecap:round; fill:rgba(0,0,0,0)"/><path d="M 458 245 L 458 255" style="stroke:#ccc; stroke-width:5; stroke-linejoin:round; stroke-linecap:round; fill:rgba(0,0,0,0)"/><path d="M 245 41 L 255 41" style="stroke:#ccc; stroke-width:5; stroke-linejoin:round; stroke-linecap:round; fill:rgba(0,0,0,0)"/><path d="M 492 242 L 500 250" style="stroke:#ccc; stroke-width:5; stroke-linejoin:round; stroke-linecap:round; fill:rgba(0,0,0,0)"/><path d="M 492 257 L 500 250" style="stroke:#ccc; stroke-width:5; stroke-linejoin:round; stroke-linecap:round; fill:rgba(0,0,0,0)"/><path d="M 240 10 L 250 0" style="stroke:#ccc; stroke-width:5; stroke-linejoin:round; stroke-linecap:round; fill:rgba(0,0,0,0)"/><path d="M 260 10 L 250 0" style="stroke:#ccc; stroke-width:5; stroke-linejoin:round; stroke-linecap:round; fill:rgba(0,0,0,0)"/><path d="M 157 1 L 157 2 L 157 4 L 158 6 L 158 8 L 159 10 L 159 12 L 159 13 L 160 15 L 160 17 L 161 19 L 161 21 L 162 22 L 162 24 L 162 26 L 163 28 L 163 29 L 164 31 L 164 33 L 164 34 L 165 36 L 165 38 L 166 39 L 166 41 L 167 43 L 167 44 L 167 46 L 168 48 L 168 49 L 169 51 L 169 53 L 169 54 L 170 56 L 170 57 L 171 59 L 171 61 L 172 62 L 172 64 L 172 65 L 173 67 L 173 68 L 174 70 L 174 71 L 174 73 L 175 74 L 175 76 L 176 77 L 176 79 L 177 80 L 177 82 L 177 83 L 178 85 L 178 86 L 179 87 L 179 89 L 179 90 L 180 92 L 180 93 L 181 94 L 181 96 L 182 97 L 182 98 L 182 100 L 183 101 L 183 102 L 184 104 L 184 105 L 184 106 L 185 108 L 185 109 L 186 110 L 186 112 L 187 113 L 187 114 L 187 115 L 188 117 L 188 118 L 189 119 L 189 120 L 189 121 L 190 123 L 190 124 L 191 125 L 191 126 L 192 127 L 192 128 L 192 130 L 193 131 L 193 132 L 194 133 L 194 134 L 194 135 L 195 136 L 195 137 L 196 138 L 196 140 L 197 141 L 197 142 L 197 143 L 198 144 L 198 145 L 199 146 L 199 147 L 199 148 L 200 149 L 200 150 L 201 151 L 201 152 L 202 153 L 202 154 L 202 155 L 203 156 L 203 156 L 204 157 L 204 158 L 204 159 L 205 160 L 205 161 L 206 162 L 206 163 L 207 164 L 207 164 L 207 165 L 208 166 L 208 167 L 209 168 L 209 169 L 209 169 L 210 170 L 210 171 L 211 172 L 211 173 L 212 173 L 212 174 L 212 175 L 213 176 L 213 176 L 214 177 L 214 178 L 214 178 L 215 179 L 215 180 L 216 180 L 216 181 L 217 182 L 217 182 L 217 183 L 218 184 L 218 184 L 219 185 L 219 186 L 219 186 L 220 187 L 220 187 L 221 188 L 221 189 L 222 189 L 222 190 L 222 190 L 223 191 L 223 191 L 224 192 L 224 192 L 224 193 L 225 193 L 225 194 L 226 194 L 226 195 L 227 195 L 227 196 L 227 196 L 228 197 L 228 197 L 229 197 L 229 198 L 229 198 L 230 199 L 230 199 L 231 199 L 231 200 L 232 200 L 232 200 L 232 201 L 233 201 L 233 201 L 234 202 L 234 202 L 234 202 L 235 203 L 235 203 L 236 203 L 236 204 L 237 204 L 237 204 L 237 204 L 238 205 L 238 205 L 239 205 L 239 205 L 239 205 L 240 206 L 240 206 L 241 206 L 241 206 L 242 206 L 242 206 L 242 207 L 243 207 L 243 207 L 244 207 L 244 207 L 244 207 L 245 207 L 245 207 L 246 207 L 246 208 L 247 208 L 247 208 L 247 208 L 248 208 L 248 208 L 249 208 L 249 208 L 249 208 L 250 208 L 250 208 L 251 208 L 251 208 L 252 208 L 252 208 L 252 208 L 253 208 L 253 207 L 254 207 L 254 207 L 254 207 L 255 207 L 255 207 L 256 207 L 256 207 L 257 207 L 257 206 L 257 206 L 258 206 L 258 206 L 259 206 L 259 206 L 259 205 L 260 205 L 260 205 L 261 205 L 261 205 L 262 204 L 262 204 L 262 204 L 263 204 L 263 203 L 264 203 L 264 203 L 264 202 L 265 202 L 265 202 L 266 201 L 266 201 L 267 201 L 267 200 L 267 200 L 268 200 L 268 199 L 269 199 L 269 199 L 269 198 L 270 198 L 270 197 L 271 197 L 271 197 L 272 196 L 272 196 L 272 195 L 273 195 L 273 194 L 274 194 L 274 193 L 274 193 L 275 192 L 275 192 L 276 191 L 276 191 L 277 190 L 277 190 L 277 189 L 278 189 L 278 188 L 279 187 L 279 187 L 279 186 L 280 186 L 280 185 L 281 184 L 281 184 L 282 183 L 282 182 L 282 182 L 283 181 L 283 180 L 284 180 L 284 179 L 284 178 L 285 178 L 285 177 L 286 176 L 286 176 L 287 175 L 287 174 L 287 173 L 288 173 L 288 172 L 289 171 L 289 170 L 289 169 L 290 169 L 290 168 L 291 167 L 291 166 L 292 165 L 292 164 L 292 164 L 293 163 L 293 162 L 294 161 L 294 160 L 294 159 L 295 158 L 295 157 L 296 156 L 296 156 L 297 155 L 297 154 L 297 153 L 298 152 L 298 151 L 299 150 L 299 149 L 299 148 L 300 147 L 300 146 L 301 145 L 301 144 L 302 143 L 302 142 L 302 141 L 303 140 L 303 138 L 304 137 L 304 136 L 304 135 L 305 134 L 305 133 L 306 132 L 306 131 L 307 130 L 307 128 L 307 127 L 308 126 L 308 125 L 309 124 L 309 123 L 309 121 L 310 120 L 310 119 L 311 118 L 311 117 L 312 115 L 312 114 L 312 113 L 313 112 L 313 110 L 314 109 L 314 108 L 314 106 L 315 105 L 315 104 L 316 102 L 316 101 L 317 100 L 317 98 L 317 97 L 318 96 L 318 94 L 319 93 L 319 92 L 319 90 L 320 89 L 320 87 L 321 86 L 321 85 L 322 83 L 322 82 L 322 80 L 323 79 L 323 77 L 324 76 L 324 74 L 324 73 L 325 71 L 325 70 L 326 68 L 326 67 L 327 65 L 327 64 L 327 62 L 328 61 L 328 59 L 329 57 L 329 56 L 329 54 L 330 53 L 330 51 L 331 49 L 331 48 L 332 46 L 332 44 L 332 43 L 333 41 L 333 39 L 334 38 L 334 36 L 334 34 L 335 33 L 335 31 L 336 29 L 336 28 L 337 26 L 337 24 L 337 22 L 338 21 L 338 19 L 339 17 L 339 15 L 339 13 L 340 12 L 340 10 L 341 8 L 341 6 L 342 4 L 342 2 L 342 1 " style="stroke:#8DC34E; stroke-width:5; stroke-linejoin:round; stroke-linecap:round; fill:rgba(0,0,0,0)"/><path d="" style="stroke:#8DC34E; stroke-width:5; stroke-linejoin:round; stroke-linecap:round; fill:rgba(0,0,0,0)"/><path d="M 41 0 L 41 500" style="stroke:#f4f4f4; stroke-width:5; stroke-linejoin:round; stroke-linecap:round; fill:rgba(0,0,0,0)"/><path d="M 0 41 L 500 41" style="stroke:#f4f4f4; stroke-width:5; stroke-linejoin:round; stroke-linecap:round; fill:rgba(0,0,0,0)"/><path d="M 83 0 L 83 500" style="stroke:#f4f4f4; stroke-width:5; stroke-linejoin:round; stroke-linecap:round; fill:rgba(0,0,0,0)"/><path d="M 0 83 L 500 83" style="stroke:#f4f4f4; stroke-width:5; stroke-linejoin:round; stroke-linecap:round; fill:rgba(0,0,0,0)"/><path d="M 125 0 L 125 500" style="stroke:#f4f4f4; stroke-width:5; stroke-linejoin:round; stroke-linecap:round; fill:rgba(0,0,0,0)"/><path d="M 0 125 L 500 125" style="stroke:#f4f4f4; stroke-width:5; stroke-linejoin:round; stroke-linecap:round; fill:rgba(0,0,0,0)"/><path d="M 166 0 L 166 500" style="stroke:#f4f4f4; stroke-width:5; stroke-linejoin:round; stroke-linecap:round; fill:rgba(0,0,0,0)"/><path d="M 0 166 L 500 166" style="stroke:#f4f4f4; stroke-width:5; stroke-linejoin:round; stroke-linecap:round; fill:rgba(0,0,0,0)"/><path d="M 208 0 L 208 500" style="stroke:#f4f4f4; stroke-width:5; stroke-linejoin:round; stroke-linecap:round; fill:rgba(0,0,0,0)"/><path d="M 0 208 L 500 208" style="stroke:#f4f4f4; stroke-width:5; stroke-linejoin:round; stroke-linecap:round; fill:rgba(0,0,0,0)"/><path d="M 250 0 L 250 500" style="stroke:#f4f4f4; stroke-width:5; stroke-linejoin:round; stroke-linecap:round; fill:rgba(0,0,0,0)"/><path d="M 0 250 L 500 250" style="stroke:#f4f4f4; stroke-width:5; stroke-linejoin:round; stroke-linecap:round; fill:rgba(0,0,0,0)"/><path d="M 291 0 L 291 500" style="stroke:#f4f4f4; stroke-width:5; stroke-linejoin:round; stroke-linecap:round; fill:rgba(0,0,0,0)"/><path d="M 0 291 L 500 291" style="stroke:#f4f4f4; stroke-width:5; stroke-linejoin:round; stroke-linecap:round; fill:rgba(0,0,0,0)"/><path d="M 333 0 L 333 500" style="stroke:#f4f4f4; stroke-width:5; stroke-linejoin:round; stroke-linecap:round; fill:rgba(0,0,0,0)"/><path d="M 0 333 L 500 333" style="stroke:#f4f4f4; stroke-width:5; stroke-linejoin:round; stroke-linecap:round; fill:rgba(0,0,0,0)"/><path d="M 375 0 L 375 500" style="stroke:#f4f4f4; stroke-width:5; stroke-linejoin:round; stroke-linecap:round; fill:rgba(0,0,0,0)"/><path d="M 0 375 L 500 375" style="stroke:#f4f4f4; stroke-width:5; stroke-linejoin:round; stroke-linecap:round; fill:rgba(0,0,0,0)"/><path d="M 416 0 L 416 500" style="stroke:#f4f4f4; stroke-width:5; stroke-linejoin:round; stroke-linecap:round; fill:rgba(0,0,0,0)"/><path d="M 0 416 L 500 416" style="stroke:#f4f4f4; stroke-width:5; stroke-linejoin:round; stroke-linecap:round; fill:rgba(0,0,0,0)"/><path d="M 458 0 L 458 500" style="stroke:#f4f4f4; stroke-width:5; stroke-linejoin:round; stroke-linecap:round; fill:rgba(0,0,0,0)"/><path d="M 0 458 L 500 458" style="stroke:#f4f4f4; stroke-width:5; stroke-linejoin:round; stroke-linecap:round; fill:rgba(0,0,0,0)"/><path d="M 41 0 L 41 500" style="stroke:#f4f4f4; stroke-width:5; stroke-linejoin:round; stroke-linecap:round; fill:rgba(0,0,0,0)"/><path d="M 83 0 L 83 500" style="stroke:#f4f4f4; stroke-width:5; stroke-linejoin:round; stroke-linecap:round; fill:rgba(0,0,0,0)"/><path d="M 125 0 L 125 500" style="stroke:#f4f4f4; stroke-width:5; stroke-linejoin:round; stroke-linecap:round; fill:rgba(0,0,0,0)"/><path d="M 166 0 L 166 500" style="stroke:#f4f4f4; stroke-width:5; stroke-linejoin:round; stroke-linecap:round; fill:rgba(0,0,0,0)"/><path d="M 208 0 L 208 500" style="stroke:#f4f4f4; stroke-width:5; stroke-linejoin:round; stroke-linecap:round; fill:rgba(0,0,0,0)"/><path d="M 250 0 L 250 500" style="stroke:#f4f4f4; stroke-width:5; stroke-linejoin:round; stroke-linecap:round; fill:rgba(0,0,0,0)"/><path d="M 291 0 L 291 500" style="stroke:#f4f4f4; stroke-width:5; stroke-linejoin:round; stroke-linecap:round; fill:rgba(0,0,0,0)"/><path d="M 333 0 L 333 500" style="stroke:#f4f4f4; stroke-width:5; stroke-linejoin:round; stroke-linecap:round; fill:rgba(0,0,0,0)"/><path d="M 375 0 L 375 500" style="stroke:#f4f4f4; stroke-width:5; stroke-linejoin:round; stroke-linecap:round; fill:rgba(0,0,0,0)"/><path d="M 416 0 L 416 500" style="stroke:#f4f4f4; stroke-width:5; stroke-linejoin:round; stroke-linecap:round; fill:rgba(0,0,0,0)"/><path d="M 458 0 L 458 500" style="stroke:#f4f4f4; stroke-width:5; stroke-linejoin:round; stroke-linecap:round; fill:rgba(0,0,0,0)"/><path d="M 0 250 L 500 250" style="stroke:#ccc; stroke-width:5; stroke-linejoin:round; stroke-linecap:round; fill:rgba(0,0,0,0)"/><path d="M 250 0 L 250 500" style="stroke:#ccc; stroke-width:5; stroke-linejoin:round; stroke-linecap:round; fill:rgba(0,0,0,0)"/><path d="M 41 245 L 41 255" style="stroke:#ccc; stroke-width:5; stroke-linejoin:round; stroke-linecap:round; fill:rgba(0,0,0,0)"/><path d="M 245 458 L 255 458" style="stroke:#ccc; stroke-width:5; stroke-linejoin:round; stroke-linecap:round; fill:rgba(0,0,0,0)"/><path d="M 83 245 L 83 255" style="stroke:#ccc; stroke-width:5; stroke-linejoin:round; stroke-linecap:round; fill:rgba(0,0,0,0)"/><path d="M 245 416 L 255 416" style="stroke:#ccc; stroke-width:5; stroke-linejoin:round; stroke-linecap:round; fill:rgba(0,0,0,0)"/><path d="M 125 245 L 125 255" style="stroke:#ccc; stroke-width:5; stroke-linejoin:round; stroke-linecap:round; fill:rgba(0,0,0,0)"/><path d="M 245 375 L 255 375" style="stroke:#ccc; stroke-width:5; stroke-linejoin:round; stroke-linecap:round; fill:rgba(0,0,0,0)"/><path d="M 166 245 L 166 255" style="stroke:#ccc; stroke-width:5; stroke-linejoin:round; stroke-linecap:round; fill:rgba(0,0,0,0)"/><path d="M 245 333 L 255 333" style="stroke:#ccc; stroke-width:5; stroke-linejoin:round; stroke-linecap:round; fill:rgba(0,0,0,0)"/><path d="M 208 245 L 208 255" style="stroke:#ccc; stroke-width:5; stroke-linejoin:round; stroke-linecap:round; fill:rgba(0,0,0,0)"/><path d="M 245 291 L 255 291" style="stroke:#ccc; stroke-width:5; stroke-linejoin:round; stroke-linecap:round; fill:rgba(0,0,0,0)"/><path d="M 291 245 L 291 255" style="stroke:#ccc; stroke-width:5; stroke-linejoin:round; stroke-linecap:round; fill:rgba(0,0,0,0)"/><path d="M 245 208 L 255 208" style="stroke:#ccc; stroke-width:5; stroke-linejoin:round; stroke-linecap:round; fill:rgba(0,0,0,0)"/><path d="M 333 245 L 333 255" style="stroke:#ccc; stroke-width:5; stroke-linejoin:round; stroke-linecap:round; fill:rgba(0,0,0,0)"/><path d="M 245 166 L 255 166" style="stroke:#ccc; stroke-width:5; stroke-linejoin:round; stroke-linecap:round; fill:rgba(0,0,0,0)"/><path d="M 375 245 L 375 255" style="stroke:#ccc; stroke-width:5; stroke-linejoin:round; stroke-linecap:round; fill:rgba(0,0,0,0)"/><path d="M 245 125 L 255 125" style="stroke:#ccc; stroke-width:5; stroke-linejoin:round; stroke-linecap:round; fill:rgba(0,0,0,0)"/><path d="M 416 245 L 416 255" style="stroke:#ccc; stroke-width:5; stroke-linejoin:round; stroke-linecap:round; fill:rgba(0,0,0,0)"/><path d="M 245 83 L 255 83" style="stroke:#ccc; stroke-width:5; stroke-linejoin:round; stroke-linecap:round; fill:rgba(0,0,0,0)"/><path d="M 458 245 L 458 255" style="stroke:#ccc; stroke-width:5; stroke-linejoin:round; stroke-linecap:round; fill:rgba(0,0,0,0)"/><path d="M 245 41 L 255 41" style="stroke:#ccc; stroke-width:5; stroke-linejoin:round; stroke-linecap:round; fill:rgba(0,0,0,0)"/><path d="M 492 242 L 500 250" style="stroke:#ccc; stroke-width:5; stroke-linejoin:round; stroke-linecap:round; fill:rgba(0,0,0,0)"/><path d="M 492 257 L 500 250" style="stroke:#ccc; stroke-width:5; stroke-linejoin:round; stroke-linecap:round; fill:rgba(0,0,0,0)"/><path d="M 240 10 L 250 0" style="stroke:#ccc; stroke-width:5; stroke-linejoin:round; stroke-linecap:round; fill:rgba(0,0,0,0)"/><path d="M 260 10 L 250 0" style="stroke:#ccc; stroke-width:5; stroke-linejoin:round; stroke-linecap:round; fill:rgba(0,0,0,0)"/><path d="M 157 1 L 157 2 L 157 4 L 158 6 L 158 8 L 159 10 L 159 12 L 159 13 L 160 15 L 160 17 L 161 19 L 161 21 L 162 22 L 162 24 L 162 26 L 163 28 L 163 29 L 164 31 L 164 33 L 164 34 L 165 36 L 165 38 L 166 39 L 166 41 L 167 43 L 167 44 L 167 46 L 168 48 L 168 49 L 169 51 L 169 53 L 169 54 L 170 56 L 170 57 L 171 59 L 171 61 L 172 62 L 172 64 L 172 65 L 173 67 L 173 68 L 174 70 L 174 71 L 174 73 L 175 74 L 175 76 L 176 77 L 176 79 L 177 80 L 177 82 L 177 83 L 178 85 L 178 86 L 179 87 L 179 89 L 179 90 L 180 92 L 180 93 L 181 94 L 181 96 L 182 97 L 182 98 L 182 100 L 183 101 L 183 102 L 184 104 L 184 105 L 184 106 L 185 108 L 185 109 L 186 110 L 186 112 L 187 113 L 187 114 L 187 115 L 188 117 L 188 118 L 189 119 L 189 120 L 189 121 L 190 123 L 190 124 L 191 125 L 191 126 L 192 127 L 192 128 L 192 130 L 193 131 L 193 132 L 194 133 L 194 134 L 194 135 L 195 136 L 195 137 L 196 138 L 196 140 L 197 141 L 197 142 L 197 143 L 198 144 L 198 145 L 199 146 L 199 147 L 199 148 L 200 149 L 200 150 L 201 151 L 201 152 L 202 153 L 202 154 L 202 155 L 203 156 L 203 156 L 204 157 L 204 158 L 204 159 L 205 160 L 205 161 L 206 162 L 206 163 L 207 164 L 207 164 L 207 165 L 208 166 L 208 167 L 209 168 L 209 169 L 209 169 L 210 170 L 210 171 L 211 172 L 211 173 L 212 173 L 212 174 L 212 175 L 213 176 L 213 176 L 214 177 L 214 178 L 214 178 L 215 179 L 215 180 L 216 180 L 216 181 L 217 182 L 217 182 L 217 183 L 218 184 L 218 184 L 219 185 L 219 186 L 219 186 L 220 187 L 220 187 L 221 188 L 221 189 L 222 189 L 222 190 L 222 190 L 223 191 L 223 191 L 224 192 L 224 192 L 224 193 L 225 193 L 225 194 L 226 194 L 226 195 L 227 195 L 227 196 L 227 196 L 228 197 L 228 197 L 229 197 L 229 198 L 229 198 L 230 199 L 230 199 L 231 199 L 231 200 L 232 200 L 232 200 L 232 201 L 233 201 L 233 201 L 234 202 L 234 202 L 234 202 L 235 203 L 235 203 L 236 203 L 236 204 L 237 204 L 237 204 L 237 204 L 238 205 L 238 205 L 239 205 L 239 205 L 239 205 L 240 206 L 240 206 L 241 206 L 241 206 L 242 206 L 242 206 L 242 207 L 243 207 L 243 207 L 244 207 L 244 207 L 244 207 L 245 207 L 245 207 L 246 207 L 246 208 L 247 208 L 247 208 L 247 208 L 248 208 L 248 208 L 249 208 L 249 208 L 249 208 L 250 208 L 250 208 L 251 208 L 251 208 L 252 208 L 252 208 L 252 208 L 253 208 L 253 207 L 254 207 L 254 207 L 254 207 L 255 207 L 255 207 L 256 207 L 256 207 L 257 207 L 257 206 L 257 206 L 258 206 L 258 206 L 259 206 L 259 206 L 259 205 L 260 205 L 260 205 L 261 205 L 261 205 L 262 204 L 262 204 L 262 204 L 263 204 L 263 203 L 264 203 L 264 203 L 264 202 L 265 202 L 265 202 L 266 201 L 266 201 L 267 201 L 267 200 L 267 200 L 268 200 L 268 199 L 269 199 L 269 199 L 269 198 L 270 198 L 270 197 L 271 197 L 271 197 L 272 196 L 272 196 L 272 195 L 273 195 L 273 194 L 274 194 L 274 193 L 274 193 L 275 192 L 275 192 L 276 191 L 276 191 L 277 190 L 277 190 L 277 189 L 278 189 L 278 188 L 279 187 L 279 187 L 279 186 L 280 186 L 280 185 L 281 184 L 281 184 L 282 183 L 282 182 L 282 182 L 283 181 L 283 180 L 284 180 L 284 179 L 284 178 L 285 178 L 285 177 L 286 176 L 286 176 L 287 175 L 287 174 L 287 173 L 288 173 L 288 172 L 289 171 L 289 170 L 289 169 L 290 169 L 290 168 L 291 167 L 291 166 L 292 165 L 292 164 L 292 164 L 293 163 L 293 162 L 294 161 L 294 160 L 294 159 L 295 158 L 295 157 L 296 156 L 296 156 L 297 155 L 297 154 L 297 153 L 298 152 L 298 151 L 299 150 L 299 149 L 299 148 L 300 147 L 300 146 L 301 145 L 301 144 L 302 143 L 302 142 L 302 141 L 303 140 L 303 138 L 304 137 L 304 136 L 304 135 L 305 134 L 305 133 L 306 132 L 306 131 L 307 130 L 307 128 L 307 127 L 308 126 L 308 125 L 309 124 L 309 123 L 309 121 L 310 120 L 310 119 L 311 118 L 311 117 L 312 115 L 312 114 L 312 113 L 313 112 L 313 110 L 314 109 L 314 108 L 314 106 L 315 105 L 315 104 L 316 102 L 316 101 L 317 100 L 317 98 L 317 97 L 318 96 L 318 94 L 319 93 L 319 92 L 319 90 L 320 89 L 320 87 L 321 86 L 321 85 L 322 83 L 322 82 L 322 80 L 323 79 L 323 77 L 324 76 L 324 74 L 324 73 L 325 71 L 325 70 L 326 68 L 326 67 L 327 65 L 327 64 L 327 62 L 328 61 L 328 59 L 329 57 L 329 56 L 329 54 L 330 53 L 330 51 L 331 49 L 331 48 L 332 46 L 332 44 L 332 43 L 333 41 L 333 39 L 334 38 L 334 36 L 334 34 L 335 33 L 335 31 L 336 29 L 336 28 L 337 26 L 337 24 L 337 22 L 338 21 L 338 19 L 339 17 L 339 15 L 339 13 L 340 12 L 340 10 L 341 8 L 341 6 L 342 4 L 342 2 L 342 1 " style="stroke:#8DC34E; stroke-width:5; stroke-linejoin:round; stroke-linecap:round; fill:rgba(0,0,0,0)"/><path d="" style="stroke:#8DC34E; stroke-width:5; stroke-linejoin:round; stroke-linecap:round; fill:rgba(0,0,0,0)"/><text x="41.666666666666686" y="280" text-anchor="middle" font-family="Nunito" font-size="22px" fill="#ccc">-5</text><text x="270" y="464.9333333333333" text-anchor="middle" font-family="Nunito" font-size="22px" fill="#ccc">-5</text><text x="83.33333333333334" y="280" text-anchor="middle" font-family="Nunito" font-size="22px" fill="#ccc">-4</text><text x="270" y="423.26666666666665" text-anchor="middle" font-family="Nunito" font-size="22px" fill="#ccc">-4</text><text x="125" y="280" text-anchor="middle" font-family="Nunito" font-size="22px" fill="#ccc">-3</text><text x="270" y="381.6" text-anchor="middle" font-family="Nunito" font-size="22px" fill="#ccc">-3</text><text x="166.66666666666669" y="280" text-anchor="middle" font-family="Nunito" font-size="22px" fill="#ccc">-2</text><text x="270" y="339.93333333333334" text-anchor="middle" font-family="Nunito" font-size="22px" fill="#ccc">-2</text><text x="208.33333333333334" y="280" text-anchor="middle" font-family="Nunito" font-size="22px" fill="#ccc">-1</text><text x="270" y="298.26666666666665" text-anchor="middle" font-family="Nunito" font-size="22px" fill="#ccc">-1</text><text x="267.6" y="280" text-anchor="middle" font-family="Nunito" font-size="22px" fill="#ccc">0</text><text x="267.6" y="280" text-anchor="middle" font-family="Nunito" font-size="22px" fill="#ccc">0</text><text x="291.6666666666667" y="280" text-anchor="middle" font-family="Nunito" font-size="22px" fill="#ccc">1</text><text x="270" y="214.93333333333334" text-anchor="middle" font-family="Nunito" font-size="22px" fill="#ccc">1</text><text x="333.3333333333333" y="280" text-anchor="middle" font-family="Nunito" font-size="22px" fill="#ccc">2</text><text x="270" y="173.26666666666665" text-anchor="middle" font-family="Nunito" font-size="22px" fill="#ccc">2</text><text x="375" y="280" text-anchor="middle" font-family="Nunito" font-size="22px" fill="#ccc">3</text><text x="270" y="131.6" text-anchor="middle" font-family="Nunito" font-size="22px" fill="#ccc">3</text><text x="416.66666666666663" y="280" text-anchor="middle" font-family="Nunito" font-size="22px" fill="#ccc">4</text><text x="270" y="89.93333333333334" text-anchor="middle" font-family="Nunito" font-size="22px" fill="#ccc">4</text><text x="458.3333333333333" y="280" text-anchor="middle" font-family="Nunito" font-size="22px" fill="#ccc">5</text><text x="270" y="48.26666666666668" text-anchor="middle" font-family="Nunito" font-size="22px" fill="#ccc">5</text><text x="41.666666666666686" y="280" text-anchor="middle" font-family="Nunito" font-size="22px" fill="#ccc">-5</text><text x="270" y="464.9333333333333" text-anchor="middle" font-family="Nunito" font-size="22px" fill="#ccc">-5</text><text x="83.33333333333334" y="280" text-anchor="middle" font-family="Nunito" font-size="22px" fill="#ccc">-4</text><text x="270" y="423.26666666666665" text-anchor="middle" font-family="Nunito" font-size="22px" fill="#ccc">-4</text><text x="125" y="280" text-anchor="middle" font-family="Nunito" font-size="22px" fill="#ccc">-3</text><text x="270" y="381.6" text-anchor="middle" font-family="Nunito" font-size="22px" fill="#ccc">-3</text><text x="166.66666666666669" y="280" text-anchor="middle" font-family="Nunito" font-size="22px" fill="#ccc">-2</text><text x="270" y="339.93333333333334" text-anchor="middle" font-family="Nunito" font-size="22px" fill="#ccc">-2</text><text x="208.33333333333334" y="280" text-anchor="middle" font-family="Nunito" font-size="22px" fill="#ccc">-1</text><text x="270" y="298.26666666666665" text-anchor="middle" font-family="Nunito" font-size="22px" fill="#ccc">-1</text><text x="267.6" y="280" text-anchor="middle" font-family="Nunito" font-size="22px" fill="#ccc">0</text><text x="267.6" y="280" text-anchor="middle" font-family="Nunito" font-size="22px" fill="#ccc">0</text><text x="291.6666666666667" y="280" text-anchor="middle" font-family="Nunito" font-size="22px" fill="#ccc">1</text><text x="270" y="214.93333333333334" text-anchor="middle" font-family="Nunito" font-size="22px" fill="#ccc">1</text><text x="333.3333333333333" y="280" text-anchor="middle" font-family="Nunito" font-size="22px" fill="#ccc">2</text><text x="270" y="173.26666666666665" text-anchor="middle" font-family="Nunito" font-size="22px" fill="#ccc">2</text><text x="375" y="280" text-anchor="middle" font-family="Nunito" font-size="22px" fill="#ccc">3</text><text x="270" y="131.6" text-anchor="middle" font-family="Nunito" font-size="22px" fill="#ccc">3</text><text x="416.66666666666663" y="280" text-anchor="middle" font-family="Nunito" font-size="22px" fill="#ccc">4</text><text x="270" y="89.93333333333334" text-anchor="middle" font-family="Nunito" font-size="22px" fill="#ccc">4</text><text x="458.3333333333333" y="280" text-anchor="middle" font-family="Nunito" font-size="22px" fill="#ccc">5</text><text x="270" y="48.26666666666668" text-anchor="middle" font-family="Nunito" font-size="22px" fill="#ccc">5</text><text x="41.666666666666686" y="280" text-anchor="middle" font-family="Nunito" font-size="22px" fill="#ccc">-5</text><text x="270" y="464.9333333333333" text-anchor="middle" font-family="Nunito" font-size="22px" fill="#ccc">-5</text><text x="83.33333333333334" y="280" text-anchor="middle" font-family="Nunito" font-size="22px" fill="#ccc">-4</text><text x="270" y="423.26666666666665" text-anchor="middle" font-family="Nunito" font-size="22px" fill="#ccc">-4</text><text x="125" y="280" text-anchor="middle" font-family="Nunito" font-size="22px" fill="#ccc">-3</text><text x="270" y="381.6" text-anchor="middle" font-family="Nunito" font-size="22px" fill="#ccc">-3</text><text x="166.66666666666669" y="280" text-anchor="middle" font-family="Nunito" font-size="22px" fill="#ccc">-2</text><text x="270" y="339.93333333333334" text-anchor="middle" font-family="Nunito" font-size="22px" fill="#ccc">-2</text><text x="208.33333333333334" y="280" text-anchor="middle" font-family="Nunito" font-size="22px" fill="#ccc">-1</text><text x="270" y="298.26666666666665" text-anchor="middle" font-family="Nunito" font-size="22px" fill="#ccc">-1</text><text x="267.6" y="280" text-anchor="middle" font-family="Nunito" font-size="22px" fill="#ccc">0</text><text x="267.6" y="280" text-anchor="middle" font-family="Nunito" font-size="22px" fill="#ccc">0</text><text x="291.6666666666667" y="280" text-anchor="middle" font-family="Nunito" font-size="22px" fill="#ccc">1</text><text x="270" y="214.93333333333334" text-anchor="middle" font-family="Nunito" font-size="22px" fill="#ccc">1</text><text x="333.3333333333333" y="280" text-anchor="middle" font-family="Nunito" font-size="22px" fill="#ccc">2</text><text x="270" y="173.26666666666665" text-anchor="middle" font-family="Nunito" font-size="22px" fill="#ccc">2</text><text x="375" y="280" text-anchor="middle" font-family="Nunito" font-size="22px" fill="#ccc">3</text><text x="270" y="131.6" text-anchor="middle" font-family="Nunito" font-size="22px" fill="#ccc">3</text><text x="416.66666666666663" y="280" text-anchor="middle" font-family="Nunito" font-size="22px" fill="#ccc">4</text><text x="270" y="89.93333333333334" text-anchor="middle" font-family="Nunito" font-size="22px" fill="#ccc">4</text><text x="458.3333333333333" y="280" text-anchor="middle" font-family="Nunito" font-size="22px" fill="#ccc">5</text><text x="270" y="48.26666666666668" text-anchor="middle" font-family="Nunito" font-size="22px" fill="#ccc">5</text></svg>