<svg xmlns="http://www.w3.org/2000/svg" width="500" height="500"><rect width="500" height="500" x="0" y="0" style="fill:#fff"/><path d="M 41 0 L 41 500" style="stroke:#f4f4f4; stroke-width:5; stroke-linejoin:round; stroke-linecap:round; fill:rgba(0,0,0,0)"/><path d="M 0 41 L 500 41" style="stroke:#f4f4f4; stroke-width:5; stroke-linejoin:round; stroke-linecap:round; fill:rgba(0,0,0,0)"/><path d="M 83 0 L 83 500" style="stroke:#f4f4f4; stroke-width:5; stroke-linejoin:round; stroke-linecap:round; fill:rgba(0,0,0,0)"/><path d="M 0 83 L 500 83" style="stroke:#f4f4f4; stroke-width:5; stroke-linejoin:round; stroke-linecap:round; fill:rgba(0,0,0,0)"/><path d="M 125 0 L 125 500" style="stroke:#f4f4f4; stroke-width:5; stroke-linejoin:round; stroke-linecap:round; fill:rgba(0,0,0,0)"/><path d="M 0 125 L 500 125" style="stroke:#f4f4f4; stroke-width:5; stroke-linejoin:round; stroke-linecap:round; fill:rgba(0,0,0,0)"/><path d="M 166 0 L 166 500" style="stroke:#f4f4f4; stroke-width:5; stroke-linejoin:round; stroke-linecap:round; fill:rgba(0,0,0,0)"/><path d="M 0 166 L 500 166" style="stroke:#f4f4f4; stroke-width:5; stroke-linejoin:round; stroke-linecap:round; fill:rgba(0,0,0,0)"/><path d="M 208 0 L 208 500" style="stroke:#f4f4f4; stroke-width:5; stroke-linejoin:round; stroke-linecap:round; fill:rgba(0,0,0,0)"/><path d="M 0 208 L 500 208" style="stroke:#f4f4f4; stroke-width:5; stroke-linejoin:round; stroke-linecap:round; fill:rgba(0,0,0,0)"/><path d="M 250 0 L 250 500" style="stroke:#f4f4f4; stroke-width:5; stroke-linejoin:round; stroke-linecap:round; fill:rgba(0,0,0,0)"/><path d="M 0 250 L 500 250" style="stroke:#f4f4f4; stroke-width:5; stroke-linejoin:round; stroke-linecap:round; fill:rgba(0,0,0,0)"/><path d="M 291 0 L 291 500" style="stroke:#f4f4f4; stroke-width:5; stroke-linejoin:round; stroke-linecap:round; fill:rgba(0,0,0,0)"/><path d="M 0 291 L 500 291" style="stroke:#f4f4f4; stroke-width:5; stroke-linejoin:round; stroke-linecap:round; fill:rgba(0,0,0,0)"/><path d="M 333 0 L 333 500" style="stroke:#f4f4f4; stroke-width:5; stroke-linejoin:round; stroke-linecap:round; fill:rgba(0,0,0,0)"/><path d="M 0 333 L 500 333" style="stroke:#f4f4f4; stroke-width:5; stroke-linejoin:round; stroke-linecap:round; fill:rgba(0,0,0,0)"/><path d="M 375 0 L 375 500" style="stroke:#f4f4f4; stroke-width:5; stroke-linejoin:round; stroke-linecap:round; fill:rgba(0,0,0,0)"/><path d="M 0 375 L 500 375" style="stroke:#f4f4f4; stroke-width:5; stroke-linejoin:round; stroke-linecap:round; fill:rgba(0,0,0,0)"/><path d="M 416 0 L 416 500" style="stroke:#f4f4f4; stroke-width:5; stroke-linejoin:round; stroke-linecap:round; fill:rgba(0,0,0,0)"/><path d="M 0 416 L 500 416" style="stroke:#f4f4f4; stroke-width:5; stroke-linejoin:round; stroke-linecap:round; fill:rgba(0,0,0,0)"/><path d="M 458 0 L 458 500" style="stroke:#f4f4f4; stroke-width:5; stroke-linejoin:round; stroke-linecap:round; fill:rgba(0,0,0,0)"/><path d="M 0 458 L 500 458" style="stroke:#f4f4f4; stroke-width:5; stroke-linejoin:round; stroke-linecap:round; fill:rgba(0,0,0,0)"/><path d="M 41 0 L 41 500" style="stroke:#f4f4f4; stroke-width:5; stroke-linejoin:round; stroke-linecap:round; fill:rgba(0,0,0,0)"/><path d="M 83 0 L 83 500" style="stroke:#f4f4f4; stroke-width:5; stroke-linejoin:round; stroke-linecap:round; fill:rgba(0,0,0,0)"/><path d="M 125 0 L 125 500" style="stroke:#f4f4f4; stroke-width:5; stroke-linejoin:round; stroke-linecap:round; fill:rgba(0,0,0,0)"/><path d="M 166 0 L 166 500" style="stroke:#f4f4f4; stroke-width:5; stroke-linejoin:round; stroke-linecap:round; fill:rgba(0,0,0,0)"/><path d="M 208 0 L 208 500" style="stroke:#f4f4f4; stroke-width:5; stroke-linejoin:round; stroke-linecap:round; fill:rgba(0,0,0,0)"/><path d="M 250 0 L 250 500" style="stroke:#f4f4f4; stroke-width:5; stroke-linejoin:round; stroke-linecap:round; fill:rgba(0,0,0,0)"/><path d="M 291 0 L 291 500" style="stroke:#f4f4f4; stroke-width:5; stroke-linejoin:round; stroke-linecap:round; fill:rgba(0,0,0,0)"/><path d="M 333 0 L 333 500" style="stroke:#f4f4f4; stroke-width:5; stroke-linejoin:round; stroke-linecap:round; fill:rgba(0,0,0,0)"/><path d="M 375 0 L 375 500" style="stroke:#f4f4f4; stroke-width:5; stroke-linejoin:round; stroke-linecap:round; fill:rgba(0,0,0,0)"/><path d="M 416 0 L 416 500" style="stroke:#f4f4f4; stroke-width:5; stroke-linejoin:round; stroke-linecap:round; fill:rgba(0,0,0,0)"/><path d="M 458 0 L 458 500" style="stroke:#f4f4f4; stroke-width:5; stroke-linejoin:round; stroke-linecap:round; fill:rgba(0,0,0,0)"/><path d="M 0 250 L 500 250" style="stroke:#ccc; stroke-width:5; stroke-linejoin:round; stroke-linecap:round; fill:rgba(0,0,0,0)"/><path d="M 250 0 L 250 500" style="stroke:#ccc; stroke-width:5; stroke-linejoin:round; stroke-linecap:round; fill:rgba(0,0,0,0)"/><path d="M 41 245 L 41 255" style="stroke:#ccc; stroke-width:5; stroke-linejoin:round; stroke-linecap:round; fill:rgba(0,0,0,0)"/><path d="M 245 458 L 255 458" style="stroke:#ccc; stroke-width:5; stroke-linejoin:round; stroke-linecap:round; fill:rgba(0,0,0,0)"/><path d="M 83 245 L 83 255" style="stroke:#ccc; stroke-width:5; stroke-linejoin:round; stroke-linecap:round; fill:rgba(0,0,0,0)"/><path d="M 245 416 L 255 416" style="stroke:#ccc; stroke-width:5; stroke-linejoin:round; stroke-linecap:round; fill:rgba(0,0,0,0)"/><path d="M 125 245 L 125 255" style="stroke:#ccc; stroke-width:5; stroke-linejoin:round; stroke-linecap:round; fill:rgba(0,0,0,0)"/><path d="M 245 375 L 255 375" style="stroke:#ccc; stroke-width:5; stroke-linejoin:round; stroke-linecap:round; fill:rgba(0,0,0,0)"/><path d="M 166 245 L 166 255" style="stroke:#ccc; stroke-width:5; stroke-linejoin:round; stroke-linecap:round; fill:rgba(0,0,0,0)"/><path d="M 245 333 L 255 333" style="stroke:#ccc; stroke-width:5; stroke-linejoin:round; stroke-linecap:round; fill:rgba(0,0,0,0)"/><path d="M 208 245 L 208 255" style="stroke:#ccc; stroke-width:5; stroke-linejoin:round; stroke-linecap:round; fill:rgba(0,0,0,0)"/><path d="M 245 291 L 255 291" style="stroke:#ccc; stroke-width:5; stroke-linejoin:round; stroke-linecap:round; fill:rgba(0,0,0,0)"/><path d="M 291 245 L 291 255" style="stroke:#ccc; stroke-width:5; stroke-linejoin:round; stroke-linecap:round; fill:rgba(0,0,0,0)"/><path d="M 245 208 L 255 208" style="stroke:#ccc; stroke-width:5; stroke-linejoin:round; stroke-linecap:round; fill:rgba(0,0,0,0)"/><path d="M 333 245 L 333 255" style="stroke:#ccc; stroke-width:5; stroke-linejoin:round; stroke-linecap:round; fill:rgba(0,0,0,0)"/><path d="M 245 166 L 255 166" style="stroke:#ccc; stroke-width:5; stroke-linejoin:round; stroke-linecap:round; fill:rgba(0,0,0,0)"/><path d="M 375 245 L 375 255" style="stroke:#ccc; stroke-width:5; stroke-linejoin:round; stroke-linecap:round; fill:rgba(0,0,0,0)"/><path d="M 245 125 L 255 125" style="stroke:#ccc; stroke-width:5; stroke-linejoin:round; stroke-linecap:round; fill:rgba(0,0,0,0)"/><path d="M 416 245 L 416 255" style="stroke:#ccc; stroke-width:5; stroke-linejoin:round; stroke-linecap:round; fill:rgba(0,0,0,0)"/><path d="M 245 83 L 255 83" style="stroke:#ccc; stroke-width:5; stroke-linejoin:round; stroke-linecap:round; fill:rgba(0,0,0,0)"/><path d="M 458 245 L 458 255" style="stroke:#ccc; stroke-width:5; stroke-linejoin:round; stroke-linecap:round; fill:rgba(0,0,0,0)"/><path d="M 245 41 L 255 41" style="stroke:#ccc; stroke-width:5; stroke-linejoin:round; stroke-linecap:round; fill:rgba(0,0,0,0)"/><path d="M 492 242 L 500 250" style="stroke:#ccc; stroke-width:5; stroke-linejoin:round; stroke-linecap:round; fill:rgba(0,0,0,0)"/><path d="M 492 257 L 500 250" style="stroke:#ccc; stroke-width:5; stroke-linejoin:round; stroke-linecap:round; fill:rgba(0,0,0,0)"/><path d="M 240 10 L 250 0" style="stroke:#ccc; stroke-width:5; stroke-linejoin:round; stroke-linecap:round; fill:rgba(0,0,0,0)"/><path d="M 260 10 L 250 0" style="stroke:#ccc; stroke-width:5; stroke-linejoin:round; stroke-linecap:round; fill:rgba(0,0,0,0)"/><path d="M 148 1 L 148 3 L 149 5 L 149 7 L 149 9 L 150 11 L 150 13 L 151 15 L 151 17 L 152 19 L 152 21 L 152 23 L 153 25 L 153 27 L 154 29 L 154 31 L 154 33 L 155 35 L 155 37 L 156 39 L 156 40 L 157 42 L 157 44 L 157 46 L 158 48 L 158 50 L 159 51 L 159 53 L 159 55 L 160 57 L 160 59 L 161 60 L 161 62 L 162 64 L 162 66 L 162 67 L 163 69 L 163 71 L 164 73 L 164 74 L 164 76 L 165 78 L 165 79 L 166 81 L 166 83 L 167 84 L 167 86 L 167 88 L 168 89 L 168 91 L 169 93 L 169 94 L 169 96 L 170 97 L 170 99 L 171 101 L 171 102 L 172 104 L 172 105 L 172 107 L 173 108 L 173 110 L 174 111 L 174 113 L 174 114 L 175 116 L 175 117 L 176 119 L 176 120 L 177 122 L 177 123 L 177 125 L 178 126 L 178 128 L 179 129 L 179 130 L 179 132 L 180 133 L 180 135 L 181 136 L 181 137 L 182 139 L 182 140 L 182 141 L 183 143 L 183 144 L 184 145 L 184 147 L 184 148 L 185 149 L 185 151 L 186 152 L 186 153 L 187 154 L 187 156 L 187 157 L 188 158 L 188 159 L 189 161 L 189 162 L 189 163 L 190 164 L 190 165 L 191 167 L 191 168 L 192 169 L 192 170 L 192 171 L 193 172 L 193 174 L 194 175 L 194 176 L 194 177 L 195 178 L 195 179 L 196 180 L 196 181 L 197 182 L 197 183 L 197 184 L 198 185 L 198 186 L 199 187 L 199 188 L 199 189 L 200 190 L 200 191 L 201 192 L 201 193 L 202 194 L 202 195 L 202 196 L 203 197 L 203 198 L 204 199 L 204 200 L 204 201 L 205 202 L 205 203 L 206 204 L 206 204 L 207 205 L 207 206 L 207 207 L 208 208 L 208 209 L 209 209 L 209 210 L 209 211 L 210 212 L 210 213 L 211 213 L 211 214 L 212 215 L 212 216 L 212 216 L 213 217 L 213 218 L 214 219 L 214 219 L 214 220 L 215 221 L 215 221 L 216 222 L 216 223 L 217 223 L 217 224 L 217 225 L 218 225 L 218 226 L 219 227 L 219 227 L 219 228 L 220 228 L 220 229 L 221 230 L 221 230 L 222 231 L 222 231 L 222 232 L 223 232 L 223 233 L 224 233 L 224 234 L 224 234 L 225 235 L 225 235 L 226 236 L 226 236 L 227 237 L 227 237 L 227 238 L 228 238 L 228 239 L 229 239 L 229 239 L 229 240 L 230 240 L 230 241 L 231 241 L 231 241 L 232 242 L 232 242 L 232 242 L 233 243 L 233 243 L 234 243 L 234 244 L 234 244 L 235 244 L 235 245 L 236 245 L 236 245 L 237 245 L 237 246 L 237 246 L 238 246 L 238 246 L 239 247 L 239 247 L 239 247 L 240 247 L 240 247 L 241 248 L 241 248 L 242 248 L 242 248 L 242 248 L 243 248 L 243 249 L 244 249 L 244 249 L 244 249 L 245 249 L 245 249 L 246 249 L 246 249 L 247 249 L 247 249 L 247 249 L 248 249 L 248 249 L 249 249 L 249 249 L 249 249 L 250 249 L 250 249 L 251 249 L 251 249 L 252 249 L 252 249 L 252 249 L 253 249 L 253 249 L 254 249 L 254 249 L 254 249 L 255 249 L 255 249 L 256 249 L 256 248 L 257 248 L 257 248 L 257 248 L 258 248 L 258 248 L 259 247 L 259 247 L 259 247 L 260 247 L 260 247 L 261 246 L 261 246 L 262 246 L 262 246 L 262 245 L 263 245 L 263 245 L 264 245 L 264 244 L 264 244 L 265 244 L 265 243 L 266 243 L 266 243 L 267 242 L 267 242 L 267 242 L 268 241 L 268 241 L 269 241 L 269 240 L 269 240 L 270 239 L 270 239 L 271 239 L 271 238 L 272 238 L 272 237 L 272 237 L 273 236 L 273 236 L 274 235 L 274 235 L 274 235 L 275 234 L 275 233 L 276 233 L 276 232 L 277 232 L 277 231 L 277 231 L 278 230 L 278 230 L 279 229 L 279 228 L 279 228 L 280 227 L 280 227 L 281 226 L 281 225 L 282 225 L 282 224 L 282 223 L 283 223 L 283 222 L 284 221 L 284 221 L 284 220 L 285 219 L 285 219 L 286 218 L 286 217 L 287 216 L 287 216 L 287 215 L 288 214 L 288 213 L 289 213 L 289 212 L 289 211 L 290 210 L 290 209 L 291 209 L 291 208 L 292 207 L 292 206 L 292 205 L 293 204 L 293 204 L 294 203 L 294 202 L 294 201 L 295 200 L 295 199 L 296 198 L 296 197 L 297 196 L 297 195 L 297 194 L 298 193 L 298 192 L 299 191 L 299 190 L 299 190 L 300 188 L 300 187 L 301 186 L 301 185 L 302 184 L 302 183 L 302 182 L 303 181 L 303 180 L 304 179 L 304 178 L 304 177 L 305 176 L 305 175 L 306 174 L 306 172 L 307 171 L 307 170 L 307 169 L 308 168 L 308 167 L 309 165 L 309 164 L 309 163 L 310 162 L 310 161 L 311 159 L 311 158 L 312 157 L 312 156 L 312 154 L 313 153 L 313 152 L 314 151 L 314 149 L 314 148 L 315 147 L 315 145 L 316 144 L 316 143 L 317 141 L 317 140 L 317 139 L 318 137 L 318 136 L 319 135 L 319 133 L 319 132 L 320 130 L 320 129 L 321 128 L 321 126 L 322 125 L 322 123 L 322 122 L 323 120 L 323 119 L 324 117 L 324 116 L 324 115 L 325 113 L 325 111 L 326 110 L 326 108 L 327 107 L 327 105 L 327 104 L 328 102 L 328 101 L 329 99 L 329 97 L 329 96 L 330 94 L 330 93 L 331 91 L 331 89 L 332 88 L 332 86 L 332 84 L 333 83 L 333 81 L 334 79 L 334 78 L 334 76 L 335 74 L 335 73 L 336 71 L 336 69 L 337 67 L 337 66 L 337 64 L 338 62 L 338 60 L 339 59 L 339 57 L 339 55 L 340 53 L 340 51 L 341 50 L 341 48 L 342 46 L 342 44 L 342 42 L 343 40 L 343 39 L 344 37 L 344 35 L 344 33 L 345 31 L 345 29 L 346 27 L 346 25 L 347 23 L 347 21 L 347 19 L 348 17 L 348 15 L 349 13 L 349 11 L 349 10 L 350 7 L 350 5 L 351 3 L 351 1 " style="stroke:#8DC34E; stroke-width:5; stroke-linejoin:round; stroke-linecap:round; fill:rgba(0,0,0,0)"/><path d="" style="stroke:#8DC34E; stroke-width:5; stroke-linejoin:round; stroke-linecap:round; fill:rgba(0,0,0,0)"/><text x="41.666666666666686" y="280" text-anchor="middle" font-family="Nunito" font-size="22px" fill="#ccc">-5</text><text x="270" y="464.9333333333333" text-anchor="middle" font-family="Nunito" font-size="22px" fill="#ccc">-5</text><text x="83.33333333333334" y="280" text-anchor="middle" font-family="Nunito" font-size="22px" fill="#ccc">-4</text><text x="270" y="423.26666666666665" text-anchor="middle" font-family="Nunito" font-size="22px" fill="#ccc">-4</text><text x="125" y="280" text-anchor="middle" font-family="Nunito" font-size="22px" fill="#ccc">-3</text><text x="270" y="381.6" text-anchor="middle" font-family="Nunito" font-size="22px" fill="#ccc">-3</text><text x="166.66666666666669" y="280" text-anchor="middle" font-family="Nunito" font-size="22px" fill="#ccc">-2</text><text x="270" y="339.93333333333334" text-anchor="middle" font-family="Nunito" font-size="22px" fill="#ccc">-2</text><text x="208.33333333333334" y="280" text-anchor="middle" font-family="Nunito" font-size="22px" fill="#ccc">-1</text><text x="270" y="298.26666666666665" text-anchor="middle" font-family="Nunito" font-size="22px" fill="#ccc">-1</text><text x="267.6" y="280" text-anchor="middle" font-family="Nunito" font-size="22px" fill="#ccc">0</text><text x="267.6" y="280" text-anchor="middle" font-family="Nunito" font-size="22px" fill="#ccc">0</text><text x="291.6666666666667" y="280" text-anchor="middle" font-family="Nunito" font-size="22px" fill="#ccc">1</text><text x="270" y="214.93333333333334" text-anchor="middle" font-family="Nunito" font-size="22px" fill="#ccc">1</text><text x="333.3333333333333" y="280" text-anchor="middle" font-family="Nunito" font-size="22px" fill="#ccc">2</text><text x="270" y="173.26666666666665" text-anchor="middle" font-family="Nunito" font-size="22px" fill="#ccc">2</text><text x="375" y="280" text-anchor="middle" font-family="Nunito" font-size="22px" fill="#ccc">3</text><text x="270" y="131.6" text-anchor="middle" font-family="Nunito" font-size="22px" fill="#ccc">3</text><text x="416.66666666666663" y="280" text-anchor="middle" font-family="Nunito" font-size="22px" fill="#ccc">4</text><text x="270" y="89.93333333333334" text-anchor="middle" font-family="Nunito" font-size="22px" fill="#ccc">4</text><text x="458.3333333333333" y="280" text-anchor="middle" font-family="Nunito" font-size="22px" fill="#ccc">5</text><text x="270" y="48.26666666666668" text-anchor="middle" font-family="Nunito" font-size="22px" fill="#ccc">5</text></svg>