<svg xmlns="http://www.w3.org/2000/svg" width="500" height="500"><rect width="500" height="500" x="0" y="0" style="fill:#fff"/><path d="M 41 0 L 41 500" style="stroke:#f4f4f4; stroke-width:5; stroke-linejoin:round; stroke-linecap:round; fill:rgba(0,0,0,0)"/><path d="M 0 41 L 500 41" style="stroke:#f4f4f4; stroke-width:5; stroke-linejoin:round; stroke-linecap:round; fill:rgba(0,0,0,0)"/><path d="M 83 0 L 83 500" style="stroke:#f4f4f4; stroke-width:5; stroke-linejoin:round; stroke-linecap:round; fill:rgba(0,0,0,0)"/><path d="M 0 83 L 500 83" style="stroke:#f4f4f4; stroke-width:5; stroke-linejoin:round; stroke-linecap:round; fill:rgba(0,0,0,0)"/><path d="M 125 0 L 125 500" style="stroke:#f4f4f4; stroke-width:5; stroke-linejoin:round; stroke-linecap:round; fill:rgba(0,0,0,0)"/><path d="M 0 125 L 500 125" style="stroke:#f4f4f4; stroke-width:5; stroke-linejoin:round; stroke-linecap:round; fill:rgba(0,0,0,0)"/><path d="M 166 0 L 166 500" style="stroke:#f4f4f4; stroke-width:5; stroke-linejoin:round; stroke-linecap:round; fill:rgba(0,0,0,0)"/><path d="M 0 166 L 500 166" style="stroke:#f4f4f4; stroke-width:5; stroke-linejoin:round; stroke-linecap:round; fill:rgba(0,0,0,0)"/><path d="M 208 0 L 208 500" style="stroke:#f4f4f4; stroke-width:5; stroke-linejoin:round; stroke-linecap:round; fill:rgba(0,0,0,0)"/><path d="M 0 208 L 500 208" style="stroke:#f4f4f4; stroke-width:5; stroke-linejoin:round; stroke-linecap:round; fill:rgba(0,0,0,0)"/><path d="M 250 0 L 250 500" style="stroke:#f4f4f4; stroke-width:5; stroke-linejoin:round; stroke-linecap:round; fill:rgba(0,0,0,0)"/><path d="M 0 250 L 500 250" style="stroke:#f4f4f4; stroke-width:5; stroke-linejoin:round; stroke-linecap:round; fill:rgba(0,0,0,0)"/><path d="M 291 0 L 291 500" style="stroke:#f4f4f4; stroke-width:5; stroke-linejoin:round; stroke-linecap:round; fill:rgba(0,0,0,0)"/><path d="M 0 291 L 500 291" style="stroke:#f4f4f4; stroke-width:5; stroke-linejoin:round; stroke-linecap:round; fill:rgba(0,0,0,0)"/><path d="M 333 0 L 333 500" style="stroke:#f4f4f4; stroke-width:5; stroke-linejoin:round; stroke-linecap:round; fill:rgba(0,0,0,0)"/><path d="M 0 333 L 500 333" style="stroke:#f4f4f4; stroke-width:5; stroke-linejoin:round; stroke-linecap:round; fill:rgba(0,0,0,0)"/><path d="M 375 0 L 375 500" style="stroke:#f4f4f4; stroke-width:5; stroke-linejoin:round; stroke-linecap:round; fill:rgba(0,0,0,0)"/><path d="M 0 375 L 500 375" style="stroke:#f4f4f4; stroke-width:5; stroke-linejoin:round; stroke-linecap:round; fill:rgba(0,0,0,0)"/><path d="M 416 0 L 416 500" style="stroke:#f4f4f4; stroke-width:5; stroke-linejoin:round; stroke-linecap:round; fill:rgba(0,0,0,0)"/><path d="M 0 416 L 500 416" style="stroke:#f4f4f4; stroke-width:5; stroke-linejoin:round; stroke-linecap:round; fill:rgba(0,0,0,0)"/><path d="M 458 0 L 458 500" style="stroke:#f4f4f4; stroke-width:5; stroke-linejoin:round; stroke-linecap:round; fill:rgba(0,0,0,0)"/><path d="M 0 458 L 500 458" style="stroke:#f4f4f4; stroke-width:5; stroke-linejoin:round; stroke-linecap:round; fill:rgba(0,0,0,0)"/><path d="M 41 0 L 41 500" style="stroke:#f4f4f4; stroke-width:5; stroke-linejoin:round; stroke-linecap:round; fill:rgba(0,0,0,0)"/><path d="M 83 0 L 83 500" style="stroke:#f4f4f4; stroke-width:5; stroke-linejoin:round; stroke-linecap:round; fill:rgba(0,0,0,0)"/><path d="M 125 0 L 125 500" style="stroke:#f4f4f4; stroke-width:5; stroke-linejoin:round; stroke-linecap:round; fill:rgba(0,0,0,0)"/><path d="M 166 0 L 166 500" style="stroke:#f4f4f4; stroke-width:5; stroke-linejoin:round; stroke-linecap:round; fill:rgba(0,0,0,0)"/><path d="M 208 0 L 208 500" style="stroke:#f4f4f4; stroke-width:5; stroke-linejoin:round; stroke-linecap:round; fill:rgba(0,0,0,0)"/><path d="M 250 0 L 250 500" style="stroke:#f4f4f4; stroke-width:5; stroke-linejoin:round; stroke-linecap:round; fill:rgba(0,0,0,0)"/><path d="M 291 0 L 291 500" style="stroke:#f4f4f4; stroke-width:5; stroke-linejoin:round; stroke-linecap:round; fill:rgba(0,0,0,0)"/><path d="M 333 0 L 333 500" style="stroke:#f4f4f4; stroke-width:5; stroke-linejoin:round; stroke-linecap:round; fill:rgba(0,0,0,0)"/><path d="M 375 0 L 375 500" style="stroke:#f4f4f4; stroke-width:5; stroke-linejoin:round; stroke-linecap:round; fill:rgba(0,0,0,0)"/><path d="M 416 0 L 416 500" style="stroke:#f4f4f4; stroke-width:5; stroke-linejoin:round; stroke-linecap:round; fill:rgba(0,0,0,0)"/><path d="M 458 0 L 458 500" style="stroke:#f4f4f4; stroke-width:5; stroke-linejoin:round; stroke-linecap:round; fill:rgba(0,0,0,0)"/><path d="M 0 250 L 500 250" style="stroke:#ccc; stroke-width:5; stroke-linejoin:round; stroke-linecap:round; fill:rgba(0,0,0,0)"/><path d="M 250 0 L 250 500" style="stroke:#ccc; stroke-width:5; stroke-linejoin:round; stroke-linecap:round; fill:rgba(0,0,0,0)"/><path d="M 41 245 L 41 255" style="stroke:#ccc; stroke-width:5; stroke-linejoin:round; stroke-linecap:round; fill:rgba(0,0,0,0)"/><path d="M 245 458 L 255 458" style="stroke:#ccc; stroke-width:5; stroke-linejoin:round; stroke-linecap:round; fill:rgba(0,0,0,0)"/><path d="M 83 245 L 83 255" style="stroke:#ccc; stroke-width:5; stroke-linejoin:round; stroke-linecap:round; fill:rgba(0,0,0,0)"/><path d="M 245 416 L 255 416" style="stroke:#ccc; stroke-width:5; stroke-linejoin:round; stroke-linecap:round; fill:rgba(0,0,0,0)"/><path d="M 125 245 L 125 255" style="stroke:#ccc; stroke-width:5; stroke-linejoin:round; stroke-linecap:round; fill:rgba(0,0,0,0)"/><path d="M 245 375 L 255 375" style="stroke:#ccc; stroke-width:5; stroke-linejoin:round; stroke-linecap:round; fill:rgba(0,0,0,0)"/><path d="M 166 245 L 166 255" style="stroke:#ccc; stroke-width:5; stroke-linejoin:round; stroke-linecap:round; fill:rgba(0,0,0,0)"/><path d="M 245 333 L 255 333" style="stroke:#ccc; stroke-width:5; stroke-linejoin:round; stroke-linecap:round; fill:rgba(0,0,0,0)"/><path d="M 208 245 L 208 255" style="stroke:#ccc; stroke-width:5; stroke-linejoin:round; stroke-linecap:round; fill:rgba(0,0,0,0)"/><path d="M 245 291 L 255 291" style="stroke:#ccc; stroke-width:5; stroke-linejoin:round; stroke-linecap:round; fill:rgba(0,0,0,0)"/><path d="M 291 245 L 291 255" style="stroke:#ccc; stroke-width:5; stroke-linejoin:round; stroke-linecap:round; fill:rgba(0,0,0,0)"/><path d="M 245 208 L 255 208" style="stroke:#ccc; stroke-width:5; stroke-linejoin:round; stroke-linecap:round; fill:rgba(0,0,0,0)"/><path d="M 333 245 L 333 255" style="stroke:#ccc; stroke-width:5; stroke-linejoin:round; stroke-linecap:round; fill:rgba(0,0,0,0)"/><path d="M 245 166 L 255 166" style="stroke:#ccc; stroke-width:5; stroke-linejoin:round; stroke-linecap:round; fill:rgba(0,0,0,0)"/><path d="M 375 245 L 375 255" style="stroke:#ccc; stroke-width:5; stroke-linejoin:round; stroke-linecap:round; fill:rgba(0,0,0,0)"/><path d="M 245 125 L 255 125" style="stroke:#ccc; stroke-width:5; stroke-linejoin:round; stroke-linecap:round; fill:rgba(0,0,0,0)"/><path d="M 416 245 L 416 255" style="stroke:#ccc; stroke-width:5; stroke-linejoin:round; stroke-linecap:round; fill:rgba(0,0,0,0)"/><path d="M 245 83 L 255 83" style="stroke:#ccc; stroke-width:5; stroke-linejoin:round; stroke-linecap:round; fill:rgba(0,0,0,0)"/><path d="M 458 245 L 458 255" style="stroke:#ccc; stroke-width:5; stroke-linejoin:round; stroke-linecap:round; fill:rgba(0,0,0,0)"/><path d="M 245 41 L 255 41" style="stroke:#ccc; stroke-width:5; stroke-linejoin:round; stroke-linecap:round; fill:rgba(0,0,0,0)"/><path d="M 492 242 L 500 250" style="stroke:#ccc; stroke-width:5; stroke-linejoin:round; stroke-linecap:round; fill:rgba(0,0,0,0)"/><path d="M 492 257 L 500 250" style="stroke:#ccc; stroke-width:5; stroke-linejoin:round; stroke-linecap:round; fill:rgba(0,0,0,0)"/><path d="M 240 10 L 250 0" style="stroke:#ccc; stroke-width:5; stroke-linejoin:round; stroke-linecap:round; fill:rgba(0,0,0,0)"/><path d="M 260 10 L 250 0" style="stroke:#ccc; stroke-width:5; stroke-linejoin:round; stroke-linecap:round; fill:rgba(0,0,0,0)"/><path d="M 125 2 L 125 4 L 126 7 L 126 9 L 127 12 L 127 14 L 127 17 L 128 19 L 128 22 L 129 24 L 129 26 L 129 29 L 130 31 L 130 34 L 131 36 L 131 38 L 132 41 L 132 43 L 132 45 L 133 48 L 133 50 L 134 52 L 134 55 L 134 57 L 135 59 L 135 62 L 136 64 L 136 66 L 137 68 L 137 71 L 137 73 L 138 75 L 138 77 L 139 80 L 139 82 L 139 84 L 140 86 L 140 88 L 141 91 L 141 93 L 142 95 L 142 97 L 142 99 L 143 101 L 143 104 L 144 106 L 144 108 L 144 110 L 145 112 L 145 114 L 146 116 L 146 118 L 147 120 L 147 122 L 147 124 L 148 126 L 148 128 L 149 130 L 149 132 L 149 134 L 150 136 L 150 138 L 151 140 L 151 142 L 152 144 L 152 146 L 152 148 L 153 150 L 153 152 L 154 154 L 154 156 L 154 158 L 155 160 L 155 162 L 156 164 L 156 165 L 157 167 L 157 169 L 157 171 L 158 173 L 158 175 L 159 176 L 159 178 L 159 180 L 160 182 L 160 184 L 161 185 L 161 187 L 162 189 L 162 191 L 162 192 L 163 194 L 163 196 L 164 198 L 164 199 L 164 201 L 165 203 L 165 204 L 166 206 L 166 208 L 167 209 L 167 211 L 167 213 L 168 214 L 168 216 L 169 218 L 169 219 L 169 221 L 170 222 L 170 224 L 171 226 L 171 227 L 172 229 L 172 230 L 172 232 L 173 233 L 173 235 L 174 236 L 174 238 L 174 239 L 175 241 L 175 242 L 176 244 L 176 245 L 177 247 L 177 248 L 177 250 L 178 251 L 178 253 L 179 254 L 179 255 L 179 257 L 180 258 L 180 260 L 181 261 L 181 262 L 182 264 L 182 265 L 182 266 L 183 268 L 183 269 L 184 270 L 184 272 L 184 273 L 185 274 L 185 276 L 186 277 L 186 278 L 187 279 L 187 281 L 187 282 L 188 283 L 188 284 L 189 286 L 189 287 L 189 288 L 190 289 L 190 290 L 191 292 L 191 293 L 192 294 L 192 295 L 192 296 L 193 297 L 193 299 L 194 300 L 194 301 L 194 302 L 195 303 L 195 304 L 196 305 L 196 306 L 197 307 L 197 308 L 197 309 L 198 310 L 198 311 L 199 312 L 199 313 L 199 314 L 200 315 L 200 316 L 201 317 L 201 318 L 202 319 L 202 320 L 202 321 L 203 322 L 203 323 L 204 324 L 204 325 L 204 326 L 205 327 L 205 328 L 206 329 L 206 329 L 207 330 L 207 331 L 207 332 L 208 333 L 208 334 L 209 334 L 209 335 L 209 336 L 210 337 L 210 338 L 211 338 L 211 339 L 212 340 L 212 341 L 212 341 L 213 342 L 213 343 L 214 344 L 214 344 L 214 345 L 215 346 L 215 346 L 216 347 L 216 348 L 217 348 L 217 349 L 217 350 L 218 350 L 218 351 L 219 352 L 219 352 L 219 353 L 220 353 L 220 354 L 221 355 L 221 355 L 222 356 L 222 356 L 222 357 L 223 357 L 223 358 L 224 358 L 224 359 L 224 359 L 225 360 L 225 360 L 226 361 L 226 361 L 227 362 L 227 362 L 227 363 L 228 363 L 228 364 L 229 364 L 229 364 L 229 365 L 230 365 L 230 366 L 231 366 L 231 366 L 232 367 L 232 367 L 232 367 L 233 368 L 233 368 L 234 368 L 234 369 L 234 369 L 235 369 L 235 370 L 236 370 L 236 370 L 237 370 L 237 371 L 237 371 L 238 371 L 238 371 L 239 372 L 239 372 L 239 372 L 240 372 L 240 372 L 241 373 L 241 373 L 242 373 L 242 373 L 242 373 L 243 373 L 243 374 L 244 374 L 244 374 L 244 374 L 245 374 L 245 374 L 246 374 L 246 374 L 247 374 L 247 374 L 247 374 L 248 374 L 248 374 L 249 374 L 249 374 L 249 375 L 250 374 L 250 374 L 251 374 L 251 374 L 252 374 L 252 374 L 252 374 L 253 374 L 253 374 L 254 374 L 254 374 L 254 374 L 255 374 L 255 374 L 256 374 L 256 373 L 257 373 L 257 373 L 257 373 L 258 373 L 258 373 L 259 372 L 259 372 L 259 372 L 260 372 L 260 372 L 261 371 L 261 371 L 262 371 L 262 371 L 262 370 L 263 370 L 263 370 L 264 370 L 264 369 L 264 369 L 265 369 L 265 368 L 266 368 L 266 368 L 267 367 L 267 367 L 267 367 L 268 366 L 268 366 L 269 366 L 269 365 L 269 365 L 270 364 L 270 364 L 271 364 L 271 363 L 272 363 L 272 362 L 272 362 L 273 361 L 273 361 L 274 360 L 274 360 L 274 360 L 275 359 L 275 358 L 276 358 L 276 357 L 277 357 L 277 356 L 277 356 L 278 355 L 278 355 L 279 354 L 279 353 L 279 353 L 280 352 L 280 352 L 281 351 L 281 350 L 282 350 L 282 349 L 282 348 L 283 348 L 283 347 L 284 346 L 284 346 L 284 345 L 285 344 L 285 344 L 286 343 L 286 342 L 287 341 L 287 341 L 287 340 L 288 339 L 288 338 L 289 338 L 289 337 L 289 336 L 290 335 L 290 334 L 291 334 L 291 333 L 292 332 L 292 331 L 292 330 L 293 329 L 293 329 L 294 328 L 294 327 L 294 326 L 295 325 L 295 324 L 296 323 L 296 322 L 297 321 L 297 320 L 297 319 L 298 318 L 298 317 L 299 316 L 299 315 L 299 315 L 300 313 L 300 312 L 301 311 L 301 310 L 302 309 L 302 308 L 302 307 L 303 306 L 303 305 L 304 304 L 304 303 L 304 302 L 305 301 L 305 300 L 306 299 L 306 297 L 307 296 L 307 295 L 307 294 L 308 293 L 308 292 L 309 290 L 309 289 L 309 288 L 310 287 L 310 286 L 311 284 L 311 283 L 312 282 L 312 281 L 312 279 L 313 278 L 313 277 L 314 276 L 314 274 L 314 273 L 315 272 L 315 270 L 316 269 L 316 268 L 317 266 L 317 265 L 317 264 L 318 262 L 318 261 L 319 260 L 319 258 L 319 257 L 320 255 L 320 254 L 321 253 L 321 251 L 322 250 L 322 248 L 322 247 L 323 245 L 323 244 L 324 242 L 324 241 L 324 240 L 325 238 L 325 236 L 326 235 L 326 233 L 327 232 L 327 230 L 327 229 L 328 227 L 328 226 L 329 224 L 329 222 L 329 221 L 330 219 L 330 218 L 331 216 L 331 214 L 332 213 L 332 211 L 332 209 L 333 208 L 333 206 L 334 204 L 334 203 L 334 201 L 335 199 L 335 198 L 336 196 L 336 194 L 337 192 L 337 191 L 337 189 L 338 187 L 338 185 L 339 184 L 339 182 L 339 180 L 340 178 L 340 176 L 341 175 L 341 173 L 342 171 L 342 169 L 342 167 L 343 165 L 343 164 L 344 162 L 344 160 L 344 158 L 345 156 L 345 154 L 346 152 L 346 150 L 347 148 L 347 146 L 347 144 L 348 142 L 348 140 L 349 138 L 349 136 L 349 135 L 350 132 L 350 130 L 351 128 L 351 126 L 352 124 L 352 122 L 352 120 L 353 118 L 353 116 L 354 114 L 354 112 L 354 110 L 355 108 L 355 106 L 356 104 L 356 101 L 357 99 L 357 97 L 357 95 L 358 93 L 358 91 L 359 88 L 359 86 L 359 84 L 360 82 L 360 80 L 361 77 L 361 75 L 362 73 L 362 71 L 362 68 L 363 66 L 363 64 L 364 62 L 364 59 L 364 57 L 365 55 L 365 52 L 366 50 L 366 48 L 367 45 L 367 43 L 367 41 L 368 38 L 368 36 L 369 34 L 369 31 L 369 29 L 370 26 L 370 24 L 371 22 L 371 19 L 372 17 L 372 14 L 372 12 L 373 9 L 373 7 L 374 4 L 374 2 L 374 0 " style="stroke:#8DC34E; stroke-width:5; stroke-linejoin:round; stroke-linecap:round; fill:rgba(0,0,0,0)"/><path d="" style="stroke:#8DC34E; stroke-width:5; stroke-linejoin:round; stroke-linecap:round; fill:rgba(0,0,0,0)"/><text x="41.666666666666686" y="280" text-anchor="middle" font-family="Nunito" font-size="22px" fill="#ccc">-5</text><text x="270" y="464.9333333333333" text-anchor="middle" font-family="Nunito" font-size="22px" fill="#ccc">-5</text><text x="83.33333333333334" y="280" text-anchor="middle" font-family="Nunito" font-size="22px" fill="#ccc">-4</text><text x="270" y="423.26666666666665" text-anchor="middle" font-family="Nunito" font-size="22px" fill="#ccc">-4</text><text x="125" y="280" text-anchor="middle" font-family="Nunito" font-size="22px" fill="#ccc">-3</text><text x="270" y="381.6" text-anchor="middle" font-family="Nunito" font-size="22px" fill="#ccc">-3</text><text x="166.66666666666669" y="280" text-anchor="middle" font-family="Nunito" font-size="22px" fill="#ccc">-2</text><text x="270" y="339.93333333333334" text-anchor="middle" font-family="Nunito" font-size="22px" fill="#ccc">-2</text><text x="208.33333333333334" y="280" text-anchor="middle" font-family="Nunito" font-size="22px" fill="#ccc">-1</text><text x="270" y="298.26666666666665" text-anchor="middle" font-family="Nunito" font-size="22px" fill="#ccc">-1</text><text x="267.6" y="280" text-anchor="middle" font-family="Nunito" font-size="22px" fill="#ccc">0</text><text x="267.6" y="280" text-anchor="middle" font-family="Nunito" font-size="22px" fill="#ccc">0</text><text x="291.6666666666667" y="280" text-anchor="middle" font-family="Nunito" font-size="22px" fill="#ccc">1</text><text x="270" y="214.93333333333334" text-anchor="middle" font-family="Nunito" font-size="22px" fill="#ccc">1</text><text x="333.3333333333333" y="280" text-anchor="middle" font-family="Nunito" font-size="22px" fill="#ccc">2</text><text x="270" y="173.26666666666665" text-anchor="middle" font-family="Nunito" font-size="22px" fill="#ccc">2</text><text x="375" y="280" text-anchor="middle" font-family="Nunito" font-size="22px" fill="#ccc">3</text><text x="270" y="131.6" text-anchor="middle" font-family="Nunito" font-size="22px" fill="#ccc">3</text><text x="416.66666666666663" y="280" text-anchor="middle" font-family="Nunito" font-size="22px" fill="#ccc">4</text><text x="270" y="89.93333333333334" text-anchor="middle" font-family="Nunito" font-size="22px" fill="#ccc">4</text><text x="458.3333333333333" y="280" text-anchor="middle" font-family="Nunito" font-size="22px" fill="#ccc">5</text><text x="270" y="48.26666666666668" text-anchor="middle" font-family="Nunito" font-size="22px" fill="#ccc">5</text></svg>