<svg xmlns="http://www.w3.org/2000/svg" width="500" height="500"><rect width="500" height="500" x="0" y="0" style="fill:#fff"/><path d="M 41 0 L 41 500" style="stroke:#f4f4f4; stroke-width:5; stroke-linejoin:round; stroke-linecap:round; fill:rgba(0,0,0,0)"/><path d="M 0 41 L 500 41" style="stroke:#f4f4f4; stroke-width:5; stroke-linejoin:round; stroke-linecap:round; fill:rgba(0,0,0,0)"/><path d="M 83 0 L 83 500" style="stroke:#f4f4f4; stroke-width:5; stroke-linejoin:round; stroke-linecap:round; fill:rgba(0,0,0,0)"/><path d="M 0 83 L 500 83" style="stroke:#f4f4f4; stroke-width:5; stroke-linejoin:round; stroke-linecap:round; fill:rgba(0,0,0,0)"/><path d="M 125 0 L 125 500" style="stroke:#f4f4f4; stroke-width:5; stroke-linejoin:round; stroke-linecap:round; fill:rgba(0,0,0,0)"/><path d="M 0 125 L 500 125" style="stroke:#f4f4f4; stroke-width:5; stroke-linejoin:round; stroke-linecap:round; fill:rgba(0,0,0,0)"/><path d="M 166 0 L 166 500" style="stroke:#f4f4f4; stroke-width:5; stroke-linejoin:round; stroke-linecap:round; fill:rgba(0,0,0,0)"/><path d="M 0 166 L 500 166" style="stroke:#f4f4f4; stroke-width:5; stroke-linejoin:round; stroke-linecap:round; fill:rgba(0,0,0,0)"/><path d="M 208 0 L 208 500" style="stroke:#f4f4f4; stroke-width:5; stroke-linejoin:round; stroke-linecap:round; fill:rgba(0,0,0,0)"/><path d="M 0 208 L 500 208" style="stroke:#f4f4f4; stroke-width:5; stroke-linejoin:round; stroke-linecap:round; fill:rgba(0,0,0,0)"/><path d="M 250 0 L 250 500" style="stroke:#f4f4f4; stroke-width:5; stroke-linejoin:round; stroke-linecap:round; fill:rgba(0,0,0,0)"/><path d="M 0 250 L 500 250" style="stroke:#f4f4f4; stroke-width:5; stroke-linejoin:round; stroke-linecap:round; fill:rgba(0,0,0,0)"/><path d="M 291 0 L 291 500" style="stroke:#f4f4f4; stroke-width:5; stroke-linejoin:round; stroke-linecap:round; fill:rgba(0,0,0,0)"/><path d="M 0 291 L 500 291" style="stroke:#f4f4f4; stroke-width:5; stroke-linejoin:round; stroke-linecap:round; fill:rgba(0,0,0,0)"/><path d="M 333 0 L 333 500" style="stroke:#f4f4f4; stroke-width:5; stroke-linejoin:round; stroke-linecap:round; fill:rgba(0,0,0,0)"/><path d="M 0 333 L 500 333" style="stroke:#f4f4f4; stroke-width:5; stroke-linejoin:round; stroke-linecap:round; fill:rgba(0,0,0,0)"/><path d="M 375 0 L 375 500" style="stroke:#f4f4f4; stroke-width:5; stroke-linejoin:round; stroke-linecap:round; fill:rgba(0,0,0,0)"/><path d="M 0 375 L 500 375" style="stroke:#f4f4f4; stroke-width:5; stroke-linejoin:round; stroke-linecap:round; fill:rgba(0,0,0,0)"/><path d="M 416 0 L 416 500" style="stroke:#f4f4f4; stroke-width:5; stroke-linejoin:round; stroke-linecap:round; fill:rgba(0,0,0,0)"/><path d="M 0 416 L 500 416" style="stroke:#f4f4f4; stroke-width:5; stroke-linejoin:round; stroke-linecap:round; fill:rgba(0,0,0,0)"/><path d="M 458 0 L 458 500" style="stroke:#f4f4f4; stroke-width:5; stroke-linejoin:round; stroke-linecap:round; fill:rgba(0,0,0,0)"/><path d="M 0 458 L 500 458" style="stroke:#f4f4f4; stroke-width:5; stroke-linejoin:round; stroke-linecap:round; fill:rgba(0,0,0,0)"/><path d="M 41 0 L 41 500" style="stroke:#f4f4f4; stroke-width:5; stroke-linejoin:round; stroke-linecap:round; fill:rgba(0,0,0,0)"/><path d="M 83 0 L 83 500" style="stroke:#f4f4f4; stroke-width:5; stroke-linejoin:round; stroke-linecap:round; fill:rgba(0,0,0,0)"/><path d="M 125 0 L 125 500" style="stroke:#f4f4f4; stroke-width:5; stroke-linejoin:round; stroke-linecap:round; fill:rgba(0,0,0,0)"/><path d="M 166 0 L 166 500" style="stroke:#f4f4f4; stroke-width:5; stroke-linejoin:round; stroke-linecap:round; fill:rgba(0,0,0,0)"/><path d="M 208 0 L 208 500" style="stroke:#f4f4f4; stroke-width:5; stroke-linejoin:round; stroke-linecap:round; fill:rgba(0,0,0,0)"/><path d="M 250 0 L 250 500" style="stroke:#f4f4f4; stroke-width:5; stroke-linejoin:round; stroke-linecap:round; fill:rgba(0,0,0,0)"/><path d="M 291 0 L 291 500" style="stroke:#f4f4f4; stroke-width:5; stroke-linejoin:round; stroke-linecap:round; fill:rgba(0,0,0,0)"/><path d="M 333 0 L 333 500" style="stroke:#f4f4f4; stroke-width:5; stroke-linejoin:round; stroke-linecap:round; fill:rgba(0,0,0,0)"/><path d="M 375 0 L 375 500" style="stroke:#f4f4f4; stroke-width:5; stroke-linejoin:round; stroke-linecap:round; fill:rgba(0,0,0,0)"/><path d="M 416 0 L 416 500" style="stroke:#f4f4f4; stroke-width:5; stroke-linejoin:round; stroke-linecap:round; fill:rgba(0,0,0,0)"/><path d="M 458 0 L 458 500" style="stroke:#f4f4f4; stroke-width:5; stroke-linejoin:round; stroke-linecap:round; fill:rgba(0,0,0,0)"/><path d="M 0 250 L 500 250" style="stroke:#ccc; stroke-width:5; stroke-linejoin:round; stroke-linecap:round; fill:rgba(0,0,0,0)"/><path d="M 250 0 L 250 500" style="stroke:#ccc; stroke-width:5; stroke-linejoin:round; stroke-linecap:round; fill:rgba(0,0,0,0)"/><path d="M 41 245 L 41 255" style="stroke:#ccc; stroke-width:5; stroke-linejoin:round; stroke-linecap:round; fill:rgba(0,0,0,0)"/><path d="M 245 458 L 255 458" style="stroke:#ccc; stroke-width:5; stroke-linejoin:round; stroke-linecap:round; fill:rgba(0,0,0,0)"/><path d="M 83 245 L 83 255" style="stroke:#ccc; stroke-width:5; stroke-linejoin:round; stroke-linecap:round; fill:rgba(0,0,0,0)"/><path d="M 245 416 L 255 416" style="stroke:#ccc; stroke-width:5; stroke-linejoin:round; stroke-linecap:round; fill:rgba(0,0,0,0)"/><path d="M 125 245 L 125 255" style="stroke:#ccc; stroke-width:5; stroke-linejoin:round; stroke-linecap:round; fill:rgba(0,0,0,0)"/><path d="M 245 375 L 255 375" style="stroke:#ccc; stroke-width:5; stroke-linejoin:round; stroke-linecap:round; fill:rgba(0,0,0,0)"/><path d="M 166 245 L 166 255" style="stroke:#ccc; stroke-width:5; stroke-linejoin:round; stroke-linecap:round; fill:rgba(0,0,0,0)"/><path d="M 245 333 L 255 333" style="stroke:#ccc; stroke-width:5; stroke-linejoin:round; stroke-linecap:round; fill:rgba(0,0,0,0)"/><path d="M 208 245 L 208 255" style="stroke:#ccc; stroke-width:5; stroke-linejoin:round; stroke-linecap:round; fill:rgba(0,0,0,0)"/><path d="M 245 291 L 255 291" style="stroke:#ccc; stroke-width:5; stroke-linejoin:round; stroke-linecap:round; fill:rgba(0,0,0,0)"/><path d="M 291 245 L 291 255" style="stroke:#ccc; stroke-width:5; stroke-linejoin:round; stroke-linecap:round; fill:rgba(0,0,0,0)"/><path d="M 245 208 L 255 208" style="stroke:#ccc; stroke-width:5; stroke-linejoin:round; stroke-linecap:round; fill:rgba(0,0,0,0)"/><path d="M 333 245 L 333 255" style="stroke:#ccc; stroke-width:5; stroke-linejoin:round; stroke-linecap:round; fill:rgba(0,0,0,0)"/><path d="M 245 166 L 255 166" style="stroke:#ccc; stroke-width:5; stroke-linejoin:round; stroke-linecap:round; fill:rgba(0,0,0,0)"/><path d="M 375 245 L 375 255" style="stroke:#ccc; stroke-width:5; stroke-linejoin:round; stroke-linecap:round; fill:rgba(0,0,0,0)"/><path d="M 245 125 L 255 125" style="stroke:#ccc; stroke-width:5; stroke-linejoin:round; stroke-linecap:round; fill:rgba(0,0,0,0)"/><path d="M 416 245 L 416 255" style="stroke:#ccc; stroke-width:5; stroke-linejoin:round; stroke-linecap:round; fill:rgba(0,0,0,0)"/><path d="M 245 83 L 255 83" style="stroke:#ccc; stroke-width:5; stroke-linejoin:round; stroke-linecap:round; fill:rgba(0,0,0,0)"/><path d="M 458 245 L 458 255" style="stroke:#ccc; stroke-width:5; stroke-linejoin:round; stroke-linecap:round; fill:rgba(0,0,0,0)"/><path d="M 245 41 L 255 41" style="stroke:#ccc; stroke-width:5; stroke-linejoin:round; stroke-linecap:round; fill:rgba(0,0,0,0)"/><path d="M 492 242 L 500 250" style="stroke:#ccc; stroke-width:5; stroke-linejoin:round; stroke-linecap:round; fill:rgba(0,0,0,0)"/><path d="M 492 257 L 500 250" style="stroke:#ccc; stroke-width:5; stroke-linejoin:round; stroke-linecap:round; fill:rgba(0,0,0,0)"/><path d="M 240 10 L 250 0" style="stroke:#ccc; stroke-width:5; stroke-linejoin:round; stroke-linecap:round; fill:rgba(0,0,0,0)"/><path d="M 260 10 L 250 0" style="stroke:#ccc; stroke-width:5; stroke-linejoin:round; stroke-linecap:round; fill:rgba(0,0,0,0)"/><path d="M 0 244 L 0 244 L 0 244 L 1 244 L 1 244 L 2 244 L 2 243 L 2 243 L 3 243 L 3 243 L 4 243 L 4 243 L 4 243 L 5 243 L 5 243 L 6 243 L 6 243 L 7 243 L 7 243 L 7 243 L 8 243 L 8 243 L 9 243 L 9 243 L 9 243 L 10 243 L 10 243 L 11 243 L 11 243 L 12 243 L 12 243 L 12 243 L 13 243 L 13 243 L 14 243 L 14 243 L 14 243 L 15 243 L 15 243 L 16 243 L 16 243 L 17 243 L 17 243 L 17 243 L 18 243 L 18 243 L 19 243 L 19 243 L 19 243 L 20 243 L 20 243 L 21 243 L 21 243 L 22 243 L 22 243 L 22 243 L 23 243 L 23 243 L 24 243 L 24 243 L 24 243 L 25 243 L 25 243 L 26 243 L 26 243 L 27 243 L 27 243 L 27 243 L 28 243 L 28 243 L 29 243 L 29 243 L 29 243 L 30 243 L 30 243 L 31 243 L 31 243 L 32 243 L 32 243 L 32 243 L 33 243 L 33 243 L 34 243 L 34 243 L 34 243 L 35 243 L 35 243 L 36 243 L 36 243 L 37 243 L 37 243 L 37 243 L 38 243 L 38 243 L 39 243 L 39 243 L 39 243 L 40 243 L 40 243 L 41 243 L 41 243 L 42 243 L 42 243 L 42 243 L 43 243 L 43 242 L 44 242 L 44 242 L 44 242 L 45 242 L 45 242 L 46 242 L 46 242 L 47 242 L 47 242 L 47 242 L 48 242 L 48 242 L 49 242 L 49 242 L 49 242 L 50 242 L 50 242 L 51 242 L 51 242 L 52 242 L 52 242 L 52 242 L 53 242 L 53 242 L 54 242 L 54 242 L 54 242 L 55 242 L 55 242 L 56 242 L 56 242 L 57 242 L 57 242 L 57 242 L 58 242 L 58 242 L 59 242 L 59 242 L 59 242 L 60 242 L 60 242 L 61 242 L 61 242 L 62 242 L 62 242 L 62 242 L 63 242 L 63 242 L 64 242 L 64 242 L 64 242 L 65 242 L 65 242 L 66 242 L 66 242 L 67 242 L 67 242 L 67 242 L 68 242 L 68 242 L 69 242 L 69 242 L 69 242 L 70 242 L 70 242 L 71 242 L 71 242 L 72 242 L 72 242 L 72 242 L 73 242 L 73 242 L 74 242 L 74 242 L 74 241 L 75 241 L 75 241 L 76 241 L 76 241 L 77 241 L 77 241 L 77 241 L 78 241 L 78 241 L 79 241 L 79 241 L 79 241 L 80 241 L 80 241 L 81 241 L 81 241 L 82 241 L 82 241 L 82 241 L 83 241 L 83 241 L 84 241 L 84 241 L 84 241 L 85 241 L 85 241 L 86 241 L 86 241 L 87 241 L 87 241 L 87 241 L 88 241 L 88 241 L 89 241 L 89 241 L 89 241 L 90 241 L 90 241 L 91 241 L 91 241 L 92 241 L 92 241 L 92 241 L 93 241 L 93 241 L 94 241 L 94 241 L 94 241 L 95 241 L 95 241 L 96 241 L 96 241 L 97 241 L 97 241 L 97 241 L 98 241 L 98 241 L 99 240 L 99 240 L 99 240 L 100 240 L 100 240 L 101 240 L 101 240 L 102 240 L 102 240 L 102 240 L 103 240 L 103 240 L 104 240 L 104 240 L 104 240 L 105 240 L 105 240 L 106 240 L 106 240 L 107 240 L 107 240 L 107 240 L 108 240 L 108 240 L 109 240 L 109 240 L 109 240 L 110 240 L 110 240 L 111 240 L 111 240 L 112 240 L 112 240 L 112 240 L 113 240 L 113 240 L 114 240 L 114 240 L 114 240 L 115 240 L 115 240 L 116 240 L 116 240 L 117 240 L 117 240 L 117 240 L 118 239 L 118 239 L 119 239 L 119 239 L 119 239 L 120 239 L 120 239 L 121 239 L 121 239 L 122 239 L 122 239 L 122 239 L 123 239 L 123 239 L 124 239 L 124 239 L 124 239 L 125 239 L 125 239 L 126 239 L 126 239 L 127 239 L 127 239 L 127 239 L 128 239 L 128 239 L 129 239 L 129 239 L 129 239 L 130 239 L 130 239 L 131 239 L 131 239 L 132 239 L 132 239 L 132 239 L 133 239 L 133 239 L 134 238 L 134 238 L 134 238 L 135 238 L 135 238 L 136 238 L 136 238 L 137 238 L 137 238 L 137 238 L 138 238 L 138 238 L 139 238 L 139 238 L 139 238 L 140 238 L 140 238 L 141 238 L 141 238 L 142 238 L 142 238 L 142 238 L 143 238 L 143 238 L 144 238 L 144 238 L 144 238 L 145 238 L 145 238 L 146 238 L 146 238 L 147 237 L 147 237 L 147 237 L 148 237 L 148 237 L 149 237 L 149 237 L 149 237 L 150 237 L 150 237 L 151 237 L 151 237 L 152 237 L 152 237 L 152 237 L 153 237 L 153 237 L 154 237 L 154 237 L 154 237 L 155 237 L 155 237 L 156 237 L 156 237 L 157 237 L 157 237 L 157 237 L 158 236 L 158 236 L 159 236 L 159 236 L 159 236 L 160 236 L 160 236 L 161 236 L 161 236 L 162 236 L 162 236 L 162 236 L 163 236 L 163 236 L 164 236 L 164 236 L 164 236 L 165 236 L 165 236 L 166 236 L 166 236 L 167 236 L 167 236 L 167 235 L 168 235 L 168 235 L 169 235 L 169 235 L 169 235 L 170 235 L 170 235 L 171 235 L 171 235 L 172 235 L 172 235 L 172 235 L 173 235 L 173 235 L 174 235 L 174 235 L 174 235 L 175 235 L 175 235 L 176 234 L 176 234 L 177 234 L 177 234 L 177 234 L 178 234 L 178 234 L 179 234 L 179 234 L 179 234 L 180 234 L 180 234 L 181 234 L 181 234 L 182 234 L 182 234 L 182 234 L 183 233 L 183 233 L 184 233 L 184 233 L 184 233 L 185 233 L 185 233 L 186 233 L 186 233 L 187 233 L 187 233 L 187 233 L 188 233 L 188 233 L 189 233 L 189 232 L 189 232 L 190 232 L 190 232 L 191 232 L 191 232 L 192 232 L 192 232 L 192 232 L 193 232 L 193 232 L 194 232 L 194 232 L 194 232 L 195 231 L 195 231 L 196 231 L 196 231 L 197 231 L 197 231 L 197 231 L 198 231 L 198 231 L 199 231 L 199 231 L 199 231 L 200 230 L 200 230 L 201 230 L 201 230 L 202 230 L 202 230 L 202 230 L 203 230 L 203 230 L 204 230 L 204 230 L 204 229 L 205 229 L 205 229 L 206 229 L 206 229 L 207 229 L 207 229 L 207 229 L 208 229 L 208 229 L 209 228 L 209 228 L 209 228 L 210 228 L 210 228 L 211 228 L 211 228 L 212 228 L 212 228 L 212 227 L 213 227 L 213 227 L 214 227 L 214 227 L 214 227 L 215 227 L 215 227 L 216 226 L 216 226 L 217 226 L 217 226 L 217 226 L 218 226 L 218 226 L 219 226 L 219 225 L 219 225 L 220 225 L 220 225 L 221 225 L 221 225 L 222 225 L 222 224 L 222 224 L 223 224 L 223 224 L 224 224 L 224 224 L 224 223 L 225 223 L 225 223 L 226 223 L 226 223 L 227 223 L 227 222 L 227 222 L 228 222 L 228 222 L 229 222 L 229 222 L 229 221 L 230 221 L 230 221 L 231 221 L 231 221 L 232 220 L 232 220 L 232 220 L 233 220 L 233 220 L 234 219 L 234 219 L 234 219 L 235 219 L 235 218 L 236 218 L 236 218 L 237 218 L 237 217 L 237 217 L 238 217 L 238 217 L 239 216 L 239 216 L 239 216 L 240 216 L 240 215 L 241 215 L 241 215 L 242 214 L 242 214 L 242 214 L 243 214 L 243 213 L 244 213 L 244 213 L 244 212 L 245 212 L 245 212 L 246 211 L 246 211 L 247 211 L 247 210 L 247 210 L 248 209 L 248 209 L 249 209 L 249 208 L 249 208 L 250 207 L 250 207 L 251 207 L 251 206 L 252 206 L 252 205 L 252 205 L 253 204 L 253 204 L 254 203 L 254 203 L 254 202 L 255 202 L 255 201 L 256 200 L 256 200 L 257 199 L 257 199 L 257 198 L 258 197 L 258 197 L 259 196 L 259 195 L 259 195 L 260 194 L 260 193 L 261 192 L 261 192 L 262 191 L 262 190 L 262 189 L 263 188 L 263 187 L 264 186 L 264 185 L 264 184 L 265 183 L 265 182 L 266 181 L 266 180 L 267 179 L 267 178 L 267 176 L 268 175 L 268 174 L 269 172 L 269 171 L 269 169 L 270 168 L 270 166 L 271 164 L 271 163 L 272 161 L 272 159 L 272 157 L 273 155 L 273 153 L 274 150 L 274 148 L 274 145 L 275 143 L 275 140 L 276 137 L 276 134 L 277 130 L 277 127 L 277 123 L 278 119 L 278 115 L 279 111 L 279 106 L 279 101 L 280 95 L 280 89 L 281 83 L 281 76 L 282 68 L 282 60 L 282 51 L 283 41 L 283 30 L 284 18 L 284 4 " style="stroke:#FE6055; stroke-width:5; stroke-linejoin:round; stroke-linecap:round; fill:rgba(0,0,0,0)"/><path d="M 298 495 L 299 481 L 299 469 L 299 458 L 300 448 L 300 439 L 301 431 L 301 423 L 302 416 L 302 410 L 302 404 L 303 398 L 303 393 L 304 388 L 304 384 L 304 380 L 305 376 L 305 372 L 306 369 L 306 365 L 307 362 L 307 359 L 307 356 L 308 354 L 308 351 L 309 349 L 309 346 L 309 344 L 310 342 L 310 340 L 311 338 L 311 336 L 312 335 L 312 333 L 312 331 L 313 330 L 313 328 L 314 327 L 314 325 L 314 324 L 315 323 L 315 321 L 316 320 L 316 319 L 317 318 L 317 317 L 317 316 L 318 315 L 318 314 L 319 313 L 319 312 L 319 311 L 320 310 L 320 309 L 321 308 L 321 307 L 322 307 L 322 306 L 322 305 L 323 304 L 323 304 L 324 303 L 324 302 L 324 302 L 325 301 L 325 300 L 326 300 L 326 299 L 327 299 L 327 298 L 327 297 L 328 297 L 328 296 L 329 296 L 329 295 L 329 295 L 330 294 L 330 294 L 331 293 L 331 293 L 332 292 L 332 292 L 332 292 L 333 291 L 333 291 L 334 290 L 334 290 L 334 290 L 335 289 L 335 289 L 336 288 L 336 288 L 337 288 L 337 287 L 337 287 L 338 287 L 338 286 L 339 286 L 339 286 L 339 285 L 340 285 L 340 285 L 341 285 L 341 284 L 342 284 L 342 284 L 342 283 L 343 283 L 343 283 L 344 283 L 344 282 L 344 282 L 345 282 L 345 282 L 346 281 L 346 281 L 347 281 L 347 281 L 347 280 L 348 280 L 348 280 L 349 280 L 349 279 L 349 279 L 350 279 L 350 279 L 351 279 L 351 278 L 352 278 L 352 278 L 352 278 L 353 278 L 353 277 L 354 277 L 354 277 L 354 277 L 355 277 L 355 277 L 356 276 L 356 276 L 357 276 L 357 276 L 357 276 L 358 276 L 358 275 L 359 275 L 359 275 L 359 275 L 360 275 L 360 275 L 361 274 L 361 274 L 362 274 L 362 274 L 362 274 L 363 274 L 363 274 L 364 273 L 364 273 L 364 273 L 365 273 L 365 273 L 366 273 L 366 273 L 367 273 L 367 272 L 367 272 L 368 272 L 368 272 L 369 272 L 369 272 L 369 272 L 370 272 L 370 271 L 371 271 L 371 271 L 372 271 L 372 271 L 372 271 L 373 271 L 373 271 L 374 271 L 374 270 L 374 270 L 375 270 L 375 270 L 376 270 L 376 270 L 377 270 L 377 270 L 377 270 L 378 270 L 378 269 L 379 269 L 379 269 L 379 269 L 380 269 L 380 269 L 381 269 L 381 269 L 382 269 L 382 269 L 382 269 L 383 268 L 383 268 L 384 268 L 384 268 L 384 268 L 385 268 L 385 268 L 386 268 L 386 268 L 387 268 L 387 268 L 387 268 L 388 267 L 388 267 L 389 267 L 389 267 L 389 267 L 390 267 L 390 267 L 391 267 L 391 267 L 392 267 L 392 267 L 392 267 L 393 267 L 393 267 L 394 266 L 394 266 L 394 266 L 395 266 L 395 266 L 396 266 L 396 266 L 397 266 L 397 266 L 397 266 L 398 266 L 398 266 L 399 266 L 399 266 L 399 266 L 400 265 L 400 265 L 401 265 L 401 265 L 402 265 L 402 265 L 402 265 L 403 265 L 403 265 L 404 265 L 404 265 L 404 265 L 405 265 L 405 265 L 406 265 L 406 265 L 407 265 L 407 264 L 407 264 L 408 264 L 408 264 L 409 264 L 409 264 L 409 264 L 410 264 L 410 264 L 411 264 L 411 264 L 412 264 L 412 264 L 412 264 L 413 264 L 413 264 L 414 264 L 414 264 L 414 264 L 415 264 L 415 263 L 416 263 L 416 263 L 417 263 L 417 263 L 417 263 L 418 263 L 418 263 L 419 263 L 419 263 L 419 263 L 420 263 L 420 263 L 421 263 L 421 263 L 422 263 L 422 263 L 422 263 L 423 263 L 423 263 L 424 263 L 424 263 L 424 263 L 425 262 L 425 262 L 426 262 L 426 262 L 427 262 L 427 262 L 427 262 L 428 262 L 428 262 L 429 262 L 429 262 L 429 262 L 430 262 L 430 262 L 431 262 L 431 262 L 432 262 L 432 262 L 432 262 L 433 262 L 433 262 L 434 262 L 434 262 L 434 262 L 435 262 L 435 262 L 436 262 L 436 261 L 437 261 L 437 261 L 437 261 L 438 261 L 438 261 L 439 261 L 439 261 L 439 261 L 440 261 L 440 261 L 441 261 L 441 261 L 442 261 L 442 261 L 442 261 L 443 261 L 443 261 L 444 261 L 444 261 L 444 261 L 445 261 L 445 261 L 446 261 L 446 261 L 447 261 L 447 261 L 447 261 L 448 261 L 448 261 L 449 261 L 449 260 L 449 260 L 450 260 L 450 260 L 451 260 L 451 260 L 452 260 L 452 260 L 452 260 L 453 260 L 453 260 L 454 260 L 454 260 L 454 260 L 455 260 L 455 260 L 456 260 L 456 260 L 457 260 L 457 260 L 457 260 L 458 260 L 458 260 L 459 260 L 459 260 L 459 260 L 460 260 L 460 260 L 461 260 L 461 260 L 462 260 L 462 260 L 462 260 L 463 260 L 463 260 L 464 260 L 464 260 L 464 260 L 465 259 L 465 259 L 466 259 L 466 259 L 467 259 L 467 259 L 467 259 L 468 259 L 468 259 L 469 259 L 469 259 L 469 259 L 470 259 L 470 259 L 471 259 L 471 259 L 472 259 L 472 259 L 472 259 L 473 259 L 473 259 L 474 259 L 474 259 L 474 259 L 475 259 L 475 259 L 476 259 L 476 259 L 477 259 L 477 259 L 477 259 L 478 259 L 478 259 L 479 259 L 479 259 L 479 259 L 480 259 L 480 259 L 481 259 L 481 259 L 482 259 L 482 259 L 482 259 L 483 259 L 483 259 L 484 259 L 484 258 L 484 258 L 485 258 L 485 258 L 486 258 L 486 258 L 487 258 L 487 258 L 487 258 L 488 258 L 488 258 L 489 258 L 489 258 L 489 258 L 490 258 L 490 258 L 491 258 L 491 258 L 492 258 L 492 258 L 492 258 L 493 258 L 493 258 L 494 258 L 494 258 L 494 258 L 495 258 L 495 258 L 496 258 L 496 258 L 497 258 L 497 258 L 497 258 L 498 258 L 498 258 L 499 258 L 499 258 L 499 258 " style="stroke:#FE6055; stroke-width:5; stroke-linejoin:round; stroke-linecap:round; fill:rgba(0,0,0,0)"/><path d="M 0 296 L 0 296 L 0 296 L 1 296 L 1 296 L 2 296 L 2 296 L 2 296 L 3 296 L 3 296 L 4 296 L 4 296 L 4 296 L 5 296 L 5 296 L 6 296 L 6 296 L 7 296 L 7 296 L 7 297 L 8 297 L 8 297 L 9 297 L 9 297 L 9 297 L 10 297 L 10 297 L 11 297 L 11 297 L 12 297 L 12 297 L 12 297 L 13 297 L 13 297 L 14 297 L 14 297 L 14 297 L 15 297 L 15 297 L 16 297 L 16 297 L 17 297 L 17 297 L 17 297 L 18 297 L 18 297 L 19 297 L 19 297 L 19 297 L 20 297 L 20 297 L 21 297 L 21 297 L 22 297 L 22 297 L 22 297 L 23 297 L 23 297 L 24 297 L 24 297 L 24 297 L 25 297 L 25 297 L 26 297 L 26 297 L 27 297 L 27 297 L 27 297 L 28 297 L 28 297 L 29 297 L 29 297 L 29 297 L 30 297 L 30 297 L 31 297 L 31 297 L 32 297 L 32 297 L 32 297 L 33 297 L 33 297 L 34 297 L 34 297 L 34 297 L 35 297 L 35 297 L 36 297 L 36 297 L 37 297 L 37 297 L 37 297 L 38 297 L 38 297 L 39 297 L 39 297 L 39 297 L 40 297 L 40 297 L 41 297 L 41 297 L 42 297 L 42 297 L 42 297 L 43 297 L 43 297 L 44 297 L 44 297 L 44 297 L 45 297 L 45 297 L 46 297 L 46 297 L 47 297 L 47 297 L 47 297 L 48 297 L 48 297 L 49 297 L 49 297 L 49 297 L 50 297 L 50 297 L 51 297 L 51 297 L 52 297 L 52 297 L 52 297 L 53 297 L 53 297 L 54 297 L 54 297 L 54 297 L 55 297 L 55 297 L 56 297 L 56 297 L 57 297 L 57 297 L 57 297 L 58 297 L 58 297 L 59 297 L 59 298 L 59 298 L 60 298 L 60 298 L 61 298 L 61 298 L 62 298 L 62 298 L 62 298 L 63 298 L 63 298 L 64 298 L 64 298 L 64 298 L 65 298 L 65 298 L 66 298 L 66 298 L 67 298 L 67 298 L 67 298 L 68 298 L 68 298 L 69 298 L 69 298 L 69 298 L 70 298 L 70 298 L 71 298 L 71 298 L 72 298 L 72 298 L 72 298 L 73 298 L 73 298 L 74 298 L 74 298 L 74 298 L 75 298 L 75 298 L 76 298 L 76 298 L 77 298 L 77 298 L 77 298 L 78 298 L 78 298 L 79 298 L 79 298 L 79 298 L 80 298 L 80 298 L 81 298 L 81 298 L 82 298 L 82 298 L 82 298 L 83 298 L 83 298 L 84 298 L 84 298 L 84 298 L 85 298 L 85 298 L 86 298 L 86 298 L 87 298 L 87 298 L 87 298 L 88 298 L 88 298 L 89 298 L 89 298 L 89 298 L 90 298 L 90 298 L 91 298 L 91 298 L 92 298 L 92 298 L 92 298 L 93 298 L 93 298 L 94 298 L 94 298 L 94 298 L 95 298 L 95 298 L 96 298 L 96 299 L 97 299 L 97 299 L 97 299 L 98 299 L 98 299 L 99 299 L 99 299 L 99 299 L 100 299 L 100 299 L 101 299 L 101 299 L 102 299 L 102 299 L 102 299 L 103 299 L 103 299 L 104 299 L 104 299 L 104 299 L 105 299 L 105 299 L 106 299 L 106 299 L 107 299 L 107 299 L 107 299 L 108 299 L 108 299 L 109 299 L 109 299 L 109 299 L 110 299 L 110 299 L 111 299 L 111 299 L 112 299 L 112 299 L 112 299 L 113 299 L 113 299 L 114 299 L 114 299 L 114 299 L 115 299 L 115 299 L 116 299 L 116 299 L 117 299 L 117 299 L 117 299 L 118 299 L 118 299 L 119 299 L 119 299 L 119 299 L 120 299 L 120 299 L 121 299 L 121 299 L 122 299 L 122 299 L 122 299 L 123 299 L 123 299 L 124 299 L 124 299 L 124 299 L 125 300 L 125 300 L 126 300 L 126 300 L 127 300 L 127 300 L 127 300 L 128 300 L 128 300 L 129 300 L 129 300 L 129 300 L 130 300 L 130 300 L 131 300 L 131 300 L 132 300 L 132 300 L 132 300 L 133 300 L 133 300 L 134 300 L 134 300 L 134 300 L 135 300 L 135 300 L 136 300 L 136 300 L 137 300 L 137 300 L 137 300 L 138 300 L 138 300 L 139 300 L 139 300 L 139 300 L 140 300 L 140 300 L 141 300 L 141 300 L 142 300 L 142 300 L 142 300 L 143 300 L 143 300 L 144 300 L 144 300 L 144 300 L 145 300 L 145 300 L 146 300 L 146 300 L 147 300 L 147 301 L 147 301 L 148 301 L 148 301 L 149 301 L 149 301 L 149 301 L 150 301 L 150 301 L 151 301 L 151 301 L 152 301 L 152 301 L 152 301 L 153 301 L 153 301 L 154 301 L 154 301 L 154 301 L 155 301 L 155 301 L 156 301 L 156 301 L 157 301 L 157 301 L 157 301 L 158 301 L 158 301 L 159 301 L 159 301 L 159 301 L 160 301 L 160 301 L 161 301 L 161 301 L 162 301 L 162 301 L 162 301 L 163 301 L 163 301 L 164 301 L 164 301 L 164 301 L 165 302 L 165 302 L 166 302 L 166 302 L 167 302 L 167 302 L 167 302 L 168 302 L 168 302 L 169 302 L 169 302 L 169 302 L 170 302 L 170 302 L 171 302 L 171 302 L 172 302 L 172 302 L 172 302 L 173 302 L 173 302 L 174 302 L 174 302 L 174 302 L 175 302 L 175 302 L 176 302 L 176 302 L 177 302 L 177 302 L 177 302 L 178 302 L 178 302 L 179 302 L 179 302 L 179 302 L 180 303 L 180 303 L 181 303 L 181 303 L 182 303 L 182 303 L 182 303 L 183 303 L 183 303 L 184 303 L 184 303 L 184 303 L 185 303 L 185 303 L 186 303 L 186 303 L 187 303 L 187 303 L 187 303 L 188 303 L 188 303 L 189 303 L 189 303 L 189 303 L 190 303 L 190 303 L 191 303 L 191 303 L 192 303 L 192 303 L 192 304 L 193 304 L 193 304 L 194 304 L 194 304 L 194 304 L 195 304 L 195 304 L 196 304 L 196 304 L 197 304 L 197 304 L 197 304 L 198 304 L 198 304 L 199 304 L 199 304 L 199 304 L 200 304 L 200 304 L 201 304 L 201 304 L 202 304 L 202 304 L 202 304 L 203 305 L 203 305 L 204 305 L 204 305 L 204 305 L 205 305 L 205 305 L 206 305 L 206 305 L 207 305 L 207 305 L 207 305 L 208 305 L 208 305 L 209 305 L 209 305 L 209 305 L 210 305 L 210 305 L 211 305 L 211 305 L 212 305 L 212 306 L 212 306 L 213 306 L 213 306 L 214 306 L 214 306 L 214 306 L 215 306 L 215 306 L 216 306 L 216 306 L 217 306 L 217 306 L 217 306 L 218 306 L 218 306 L 219 306 L 219 306 L 219 306 L 220 307 L 220 307 L 221 307 L 221 307 L 222 307 L 222 307 L 222 307 L 223 307 L 223 307 L 224 307 L 224 307 L 224 307 L 225 307 L 225 307 L 226 307 L 226 307 L 227 308 L 227 308 L 227 308 L 228 308 L 228 308 L 229 308 L 229 308 L 229 308 L 230 308 L 230 308 L 231 308 L 231 308 L 232 308 L 232 308 L 232 308 L 233 309 L 233 309 L 234 309 L 234 309 L 234 309 L 235 309 L 235 309 L 236 309 L 236 309 L 237 309 L 237 309 L 237 309 L 238 309 L 238 310 L 239 310 L 239 310 L 239 310 L 240 310 L 240 310 L 241 310 L 241 310 L 242 310 L 242 310 L 242 310 L 243 310 L 243 311 L 244 311 L 244 311 L 244 311 L 245 311 L 245 311 L 246 311 L 246 311 L 247 311 L 247 311 L 247 311 L 248 312 L 248 312 L 249 312 L 249 312 L 249 312 L 250 312 L 250 312 L 251 312 L 251 312 L 252 313 L 252 313 L 252 313 L 253 313 L 253 313 L 254 313 L 254 313 L 254 313 L 255 313 L 255 314 L 256 314 L 256 314 L 257 314 L 257 314 L 257 314 L 258 314 L 258 314 L 259 315 L 259 315 L 259 315 L 260 315 L 260 315 L 261 315 L 261 315 L 262 316 L 262 316 L 262 316 L 263 316 L 263 316 L 264 316 L 264 316 L 264 317 L 265 317 L 265 317 L 266 317 L 266 317 L 267 317 L 267 318 L 267 318 L 268 318 L 268 318 L 269 318 L 269 318 L 269 319 L 270 319 L 270 319 L 271 319 L 271 319 L 272 320 L 272 320 L 272 320 L 273 320 L 273 320 L 274 321 L 274 321 L 274 321 L 275 321 L 275 321 L 276 322 L 276 322 L 277 322 L 277 322 L 277 322 L 278 323 L 278 323 L 279 323 L 279 323 L 279 324 L 280 324 L 280 324 L 281 324 L 281 325 L 282 325 L 282 325 L 282 326 L 283 326 L 283 326 L 284 326 L 284 327 L 284 327 L 285 327 L 285 328 L 286 328 L 286 328 L 287 329 L 287 329 L 287 329 L 288 330 L 288 330 L 289 330 L 289 331 L 289 331 L 290 332 L 290 332 L 291 332 L 291 333 L 292 333 L 292 334 L 292 334 L 293 335 L 293 335 L 294 335 L 294 336 L 294 336 L 295 337 L 295 337 L 296 338 L 296 339 L 297 339 L 297 340 L 297 340 L 298 341 L 298 341 L 299 342 L 299 343 L 299 343 L 300 344 L 300 345 L 301 345 L 301 346 L 302 347 L 302 347 L 302 348 L 303 349 L 303 350 L 304 351 L 304 352 L 304 352 L 305 353 L 305 354 L 306 355 L 306 356 L 307 357 L 307 358 L 307 359 L 308 361 L 308 362 L 309 363 L 309 364 L 309 366 L 310 367 L 310 368 L 311 370 L 311 371 L 312 373 L 312 374 L 312 376 L 313 378 L 313 380 L 314 382 L 314 384 L 314 386 L 315 388 L 315 390 L 316 393 L 316 395 L 317 398 L 317 401 L 317 404 L 318 407 L 318 410 L 319 414 L 319 417 L 319 421 L 320 426 L 320 430 L 321 435 L 321 440 L 322 445 L 322 451 L 322 458 L 323 465 L 323 472 L 324 481 L 324 490 L 324 499 " style="stroke:#8DC34E; stroke-width:5; stroke-linejoin:round; stroke-linecap:round; fill:rgba(0,0,0,0)"/><path d="M 339 13 L 339 31 L 340 46 L 340 60 L 341 72 L 341 83 L 342 93 L 342 102 L 342 110 L 343 118 L 343 124 L 344 131 L 344 137 L 344 142 L 345 147 L 345 152 L 346 157 L 346 161 L 347 165 L 347 169 L 347 172 L 348 175 L 348 179 L 349 182 L 349 184 L 349 187 L 350 190 L 350 192 L 351 194 L 351 196 L 352 199 L 352 201 L 352 203 L 353 204 L 353 206 L 354 208 L 354 209 L 354 211 L 355 213 L 355 214 L 356 215 L 356 217 L 357 218 L 357 219 L 357 221 L 358 222 L 358 223 L 359 224 L 359 225 L 359 226 L 360 227 L 360 228 L 361 229 L 361 230 L 362 231 L 362 232 L 362 232 L 363 233 L 363 234 L 364 235 L 364 236 L 364 236 L 365 237 L 365 238 L 366 238 L 366 239 L 367 240 L 367 240 L 367 241 L 368 242 L 368 242 L 369 243 L 369 243 L 369 244 L 370 244 L 370 245 L 371 245 L 371 246 L 372 246 L 372 247 L 372 247 L 373 248 L 373 248 L 374 249 L 374 249 L 374 249 L 375 250 L 375 250 L 376 251 L 376 251 L 377 251 L 377 252 L 377 252 L 378 253 L 378 253 L 379 253 L 379 254 L 379 254 L 380 254 L 380 255 L 381 255 L 381 255 L 382 256 L 382 256 L 382 256 L 383 256 L 383 257 L 384 257 L 384 257 L 384 258 L 385 258 L 385 258 L 386 258 L 386 259 L 387 259 L 387 259 L 387 259 L 388 260 L 388 260 L 389 260 L 389 260 L 389 261 L 390 261 L 390 261 L 391 261 L 391 261 L 392 262 L 392 262 L 392 262 L 393 262 L 393 262 L 394 263 L 394 263 L 394 263 L 395 263 L 395 263 L 396 264 L 396 264 L 397 264 L 397 264 L 397 264 L 398 264 L 398 265 L 399 265 L 399 265 L 399 265 L 400 265 L 400 265 L 401 266 L 401 266 L 402 266 L 402 266 L 402 266 L 403 266 L 403 267 L 404 267 L 404 267 L 404 267 L 405 267 L 405 267 L 406 267 L 406 267 L 407 268 L 407 268 L 407 268 L 408 268 L 408 268 L 409 268 L 409 268 L 409 269 L 410 269 L 410 269 L 411 269 L 411 269 L 412 269 L 412 269 L 412 269 L 413 269 L 413 270 L 414 270 L 414 270 L 414 270 L 415 270 L 415 270 L 416 270 L 416 270 L 417 270 L 417 271 L 417 271 L 418 271 L 418 271 L 419 271 L 419 271 L 419 271 L 420 271 L 420 271 L 421 271 L 421 272 L 422 272 L 422 272 L 422 272 L 423 272 L 423 272 L 424 272 L 424 272 L 424 272 L 425 272 L 425 272 L 426 272 L 426 273 L 427 273 L 427 273 L 427 273 L 428 273 L 428 273 L 429 273 L 429 273 L 429 273 L 430 273 L 430 273 L 431 273 L 431 274 L 432 274 L 432 274 L 432 274 L 433 274 L 433 274 L 434 274 L 434 274 L 434 274 L 435 274 L 435 274 L 436 274 L 436 274 L 437 274 L 437 274 L 437 275 L 438 275 L 438 275 L 439 275 L 439 275 L 439 275 L 440 275 L 440 275 L 441 275 L 441 275 L 442 275 L 442 275 L 442 275 L 443 275 L 443 275 L 444 276 L 444 276 L 444 276 L 445 276 L 445 276 L 446 276 L 446 276 L 447 276 L 447 276 L 447 276 L 448 276 L 448 276 L 449 276 L 449 276 L 449 276 L 450 276 L 450 276 L 451 276 L 451 276 L 452 277 L 452 277 L 452 277 L 453 277 L 453 277 L 454 277 L 454 277 L 454 277 L 455 277 L 455 277 L 456 277 L 456 277 L 457 277 L 457 277 L 457 277 L 458 277 L 458 277 L 459 277 L 459 277 L 459 277 L 460 278 L 460 278 L 461 278 L 461 278 L 462 278 L 462 278 L 462 278 L 463 278 L 463 278 L 464 278 L 464 278 L 464 278 L 465 278 L 465 278 L 466 278 L 466 278 L 467 278 L 467 278 L 467 278 L 468 278 L 468 278 L 469 278 L 469 278 L 469 278 L 470 279 L 470 279 L 471 279 L 471 279 L 472 279 L 472 279 L 472 279 L 473 279 L 473 279 L 474 279 L 474 279 L 474 279 L 475 279 L 475 279 L 476 279 L 476 279 L 477 279 L 477 279 L 477 279 L 478 279 L 478 279 L 479 279 L 479 279 L 479 279 L 480 279 L 480 279 L 481 279 L 481 279 L 482 279 L 482 280 L 482 280 L 483 280 L 483 280 L 484 280 L 484 280 L 484 280 L 485 280 L 485 280 L 486 280 L 486 280 L 487 280 L 487 280 L 487 280 L 488 280 L 488 280 L 489 280 L 489 280 L 489 280 L 490 280 L 490 280 L 491 280 L 491 280 L 492 280 L 492 280 L 492 280 L 493 280 L 493 280 L 494 280 L 494 280 L 494 280 L 495 280 L 495 280 L 496 281 L 496 281 L 497 281 L 497 281 L 497 281 L 498 281 L 498 281 L 499 281 L 499 281 L 499 281 " style="stroke:#8DC34E; stroke-width:5; stroke-linejoin:round; stroke-linecap:round; fill:rgba(0,0,0,0)"/><path d="M 0 263 L 0 263 L 0 263 L 1 263 L 1 263 L 2 264 L 2 264 L 2 264 L 3 264 L 3 264 L 4 264 L 4 264 L 4 264 L 5 264 L 5 264 L 6 264 L 6 264 L 7 264 L 7 264 L 7 264 L 8 264 L 8 264 L 9 264 L 9 264 L 9 264 L 10 264 L 10 264 L 11 264 L 11 264 L 12 264 L 12 264 L 12 264 L 13 264 L 13 264 L 14 264 L 14 264 L 14 264 L 15 264 L 15 264 L 16 264 L 16 264 L 17 264 L 17 264 L 17 264 L 18 264 L 18 265 L 19 265 L 19 265 L 19 265 L 20 265 L 20 265 L 21 265 L 21 265 L 22 265 L 22 265 L 22 265 L 23 265 L 23 265 L 24 265 L 24 265 L 24 265 L 25 265 L 25 265 L 26 265 L 26 265 L 27 265 L 27 265 L 27 265 L 28 265 L 28 265 L 29 265 L 29 265 L 29 265 L 30 265 L 30 265 L 31 265 L 31 265 L 32 265 L 32 265 L 32 265 L 33 266 L 33 266 L 34 266 L 34 266 L 34 266 L 35 266 L 35 266 L 36 266 L 36 266 L 37 266 L 37 266 L 37 266 L 38 266 L 38 266 L 39 266 L 39 266 L 39 266 L 40 266 L 40 266 L 41 266 L 41 266 L 42 266 L 42 266 L 42 266 L 43 266 L 43 266 L 44 266 L 44 266 L 44 266 L 45 266 L 45 267 L 46 267 L 46 267 L 47 267 L 47 267 L 47 267 L 48 267 L 48 267 L 49 267 L 49 267 L 49 267 L 50 267 L 50 267 L 51 267 L 51 267 L 52 267 L 52 267 L 52 267 L 53 267 L 53 267 L 54 267 L 54 267 L 54 267 L 55 267 L 55 267 L 56 267 L 56 267 L 57 267 L 57 268 L 57 268 L 58 268 L 58 268 L 59 268 L 59 268 L 59 268 L 60 268 L 60 268 L 61 268 L 61 268 L 62 268 L 62 268 L 62 268 L 63 268 L 63 268 L 64 268 L 64 268 L 64 268 L 65 268 L 65 268 L 66 268 L 66 268 L 67 268 L 67 269 L 67 269 L 68 269 L 68 269 L 69 269 L 69 269 L 69 269 L 70 269 L 70 269 L 71 269 L 71 269 L 72 269 L 72 269 L 72 269 L 73 269 L 73 269 L 74 269 L 74 269 L 74 269 L 75 269 L 75 269 L 76 269 L 76 270 L 77 270 L 77 270 L 77 270 L 78 270 L 78 270 L 79 270 L 79 270 L 79 270 L 80 270 L 80 270 L 81 270 L 81 270 L 82 270 L 82 270 L 82 270 L 83 270 L 83 270 L 84 270 L 84 270 L 84 271 L 85 271 L 85 271 L 86 271 L 86 271 L 87 271 L 87 271 L 87 271 L 88 271 L 88 271 L 89 271 L 89 271 L 89 271 L 90 271 L 90 271 L 91 271 L 91 271 L 92 271 L 92 272 L 92 272 L 93 272 L 93 272 L 94 272 L 94 272 L 94 272 L 95 272 L 95 272 L 96 272 L 96 272 L 97 272 L 97 272 L 97 272 L 98 272 L 98 272 L 99 273 L 99 273 L 99 273 L 100 273 L 100 273 L 101 273 L 101 273 L 102 273 L 102 273 L 102 273 L 103 273 L 103 273 L 104 273 L 104 273 L 104 273 L 105 274 L 105 274 L 106 274 L 106 274 L 107 274 L 107 274 L 107 274 L 108 274 L 108 274 L 109 274 L 109 274 L 109 274 L 110 274 L 110 274 L 111 275 L 111 275 L 112 275 L 112 275 L 112 275 L 113 275 L 113 275 L 114 275 L 114 275 L 114 275 L 115 275 L 115 275 L 116 275 L 116 276 L 117 276 L 117 276 L 117 276 L 118 276 L 118 276 L 119 276 L 119 276 L 119 276 L 120 276 L 120 276 L 121 276 L 121 277 L 122 277 L 122 277 L 122 277 L 123 277 L 123 277 L 124 277 L 124 277 L 124 277 L 125 277 L 125 277 L 126 278 L 126 278 L 127 278 L 127 278 L 127 278 L 128 278 L 128 278 L 129 278 L 129 278 L 129 278 L 130 279 L 130 279 L 131 279 L 131 279 L 132 279 L 132 279 L 132 279 L 133 279 L 133 279 L 134 279 L 134 280 L 134 280 L 135 280 L 135 280 L 136 280 L 136 280 L 137 280 L 137 280 L 137 280 L 138 281 L 138 281 L 139 281 L 139 281 L 139 281 L 140 281 L 140 281 L 141 281 L 141 282 L 142 282 L 142 282 L 142 282 L 143 282 L 143 282 L 144 282 L 144 282 L 144 283 L 145 283 L 145 283 L 146 283 L 146 283 L 147 283 L 147 283 L 147 284 L 148 284 L 148 284 L 149 284 L 149 284 L 149 284 L 150 284 L 150 285 L 151 285 L 151 285 L 152 285 L 152 285 L 152 285 L 153 285 L 153 286 L 154 286 L 154 286 L 154 286 L 155 286 L 155 286 L 156 287 L 156 287 L 157 287 L 157 287 L 157 287 L 158 287 L 158 288 L 159 288 L 159 288 L 159 288 L 160 288 L 160 288 L 161 289 L 161 289 L 162 289 L 162 289 L 162 289 L 163 290 L 163 290 L 164 290 L 164 290 L 164 290 L 165 291 L 165 291 L 166 291 L 166 291 L 167 291 L 167 292 L 167 292 L 168 292 L 168 292 L 169 292 L 169 293 L 169 293 L 170 293 L 170 293 L 171 294 L 171 294 L 172 294 L 172 294 L 172 295 L 173 295 L 173 295 L 174 295 L 174 296 L 174 296 L 175 296 L 175 296 L 176 297 L 176 297 L 177 297 L 177 297 L 177 298 L 178 298 L 178 298 L 179 299 L 179 299 L 179 299 L 180 299 L 180 300 L 181 300 L 181 300 L 182 301 L 182 301 L 182 301 L 183 302 L 183 302 L 184 302 L 184 303 L 184 303 L 185 303 L 185 304 L 186 304 L 186 304 L 187 305 L 187 305 L 187 305 L 188 306 L 188 306 L 189 307 L 189 307 L 189 307 L 190 308 L 190 308 L 191 309 L 191 309 L 192 309 L 192 310 L 192 310 L 193 311 L 193 311 L 194 312 L 194 312 L 194 313 L 195 313 L 195 314 L 196 314 L 196 315 L 197 315 L 197 316 L 197 316 L 198 317 L 198 317 L 199 318 L 199 318 L 199 319 L 200 320 L 200 320 L 201 321 L 201 321 L 202 322 L 202 323 L 202 323 L 203 324 L 203 325 L 204 325 L 204 326 L 204 327 L 205 327 L 205 328 L 206 329 L 206 330 L 207 330 L 207 331 L 207 332 L 208 333 L 208 334 L 209 335 L 209 335 L 209 336 L 210 337 L 210 338 L 211 339 L 211 340 L 212 341 L 212 342 L 212 343 L 213 344 L 213 345 L 214 346 L 214 348 L 214 349 L 215 350 L 215 351 L 216 352 L 216 354 L 217 355 L 217 356 L 217 358 L 218 359 L 218 361 L 219 362 L 219 364 L 219 365 L 220 367 L 220 369 L 221 370 L 221 372 L 222 374 L 222 376 L 222 378 L 223 380 L 223 382 L 224 384 L 224 386 L 224 388 L 225 391 L 225 393 L 226 396 L 226 398 L 227 401 L 227 404 L 227 407 L 228 410 L 228 413 L 229 416 L 229 420 L 229 423 L 230 427 L 230 431 L 231 435 L 231 439 L 232 443 L 232 448 L 232 453 L 233 458 L 233 463 L 234 469 L 234 475 L 234 481 L 235 488 L 235 495 " style="stroke:#4EAEEE; stroke-width:5; stroke-linejoin:round; stroke-linecap:round; fill:rgba(0,0,0,0)"/><path d="M 264 4 L 264 11 L 264 18 L 265 24 L 265 30 L 266 36 L 266 41 L 267 46 L 267 51 L 267 56 L 268 60 L 268 64 L 269 68 L 269 72 L 269 76 L 270 79 L 270 83 L 271 86 L 271 89 L 272 92 L 272 95 L 272 98 L 273 101 L 273 103 L 274 106 L 274 108 L 274 111 L 275 113 L 275 115 L 276 117 L 276 119 L 277 121 L 277 123 L 277 125 L 278 127 L 278 129 L 279 130 L 279 132 L 279 134 L 280 135 L 280 137 L 281 138 L 281 140 L 282 141 L 282 143 L 282 144 L 283 145 L 283 147 L 284 148 L 284 149 L 284 150 L 285 151 L 285 153 L 286 154 L 286 155 L 287 156 L 287 157 L 287 158 L 288 159 L 288 160 L 289 161 L 289 162 L 289 163 L 290 164 L 290 164 L 291 165 L 291 166 L 292 167 L 292 168 L 292 169 L 293 169 L 293 170 L 294 171 L 294 172 L 294 172 L 295 173 L 295 174 L 296 174 L 296 175 L 297 176 L 297 176 L 297 177 L 298 178 L 298 178 L 299 179 L 299 179 L 299 180 L 300 181 L 300 181 L 301 182 L 301 182 L 302 183 L 302 183 L 302 184 L 303 184 L 303 185 L 304 185 L 304 186 L 304 186 L 305 187 L 305 187 L 306 188 L 306 188 L 307 189 L 307 189 L 307 190 L 308 190 L 308 190 L 309 191 L 309 191 L 309 192 L 310 192 L 310 192 L 311 193 L 311 193 L 312 194 L 312 194 L 312 194 L 313 195 L 313 195 L 314 195 L 314 196 L 314 196 L 315 196 L 315 197 L 316 197 L 316 197 L 317 198 L 317 198 L 317 198 L 318 199 L 318 199 L 319 199 L 319 200 L 319 200 L 320 200 L 320 200 L 321 201 L 321 201 L 322 201 L 322 202 L 322 202 L 323 202 L 323 202 L 324 203 L 324 203 L 324 203 L 325 203 L 325 204 L 326 204 L 326 204 L 327 204 L 327 205 L 327 205 L 328 205 L 328 205 L 329 206 L 329 206 L 329 206 L 330 206 L 330 207 L 331 207 L 331 207 L 332 207 L 332 207 L 332 208 L 333 208 L 333 208 L 334 208 L 334 208 L 334 209 L 335 209 L 335 209 L 336 209 L 336 209 L 337 210 L 337 210 L 337 210 L 338 210 L 338 210 L 339 211 L 339 211 L 339 211 L 340 211 L 340 211 L 341 211 L 341 212 L 342 212 L 342 212 L 342 212 L 343 212 L 343 212 L 344 213 L 344 213 L 344 213 L 345 213 L 345 213 L 346 213 L 346 214 L 347 214 L 347 214 L 347 214 L 348 214 L 348 214 L 349 214 L 349 215 L 349 215 L 350 215 L 350 215 L 351 215 L 351 215 L 352 215 L 352 216 L 352 216 L 353 216 L 353 216 L 354 216 L 354 216 L 354 216 L 355 217 L 355 217 L 356 217 L 356 217 L 357 217 L 357 217 L 357 217 L 358 217 L 358 218 L 359 218 L 359 218 L 359 218 L 360 218 L 360 218 L 361 218 L 361 218 L 362 219 L 362 219 L 362 219 L 363 219 L 363 219 L 364 219 L 364 219 L 364 219 L 365 219 L 365 220 L 366 220 L 366 220 L 367 220 L 367 220 L 367 220 L 368 220 L 368 220 L 369 220 L 369 220 L 369 221 L 370 221 L 370 221 L 371 221 L 371 221 L 372 221 L 372 221 L 372 221 L 373 221 L 373 221 L 374 222 L 374 222 L 374 222 L 375 222 L 375 222 L 376 222 L 376 222 L 377 222 L 377 222 L 377 222 L 378 222 L 378 223 L 379 223 L 379 223 L 379 223 L 380 223 L 380 223 L 381 223 L 381 223 L 382 223 L 382 223 L 382 223 L 383 223 L 383 224 L 384 224 L 384 224 L 384 224 L 385 224 L 385 224 L 386 224 L 386 224 L 387 224 L 387 224 L 387 224 L 388 224 L 388 224 L 389 225 L 389 225 L 389 225 L 390 225 L 390 225 L 391 225 L 391 225 L 392 225 L 392 225 L 392 225 L 393 225 L 393 225 L 394 225 L 394 225 L 394 226 L 395 226 L 395 226 L 396 226 L 396 226 L 397 226 L 397 226 L 397 226 L 398 226 L 398 226 L 399 226 L 399 226 L 399 226 L 400 226 L 400 226 L 401 227 L 401 227 L 402 227 L 402 227 L 402 227 L 403 227 L 403 227 L 404 227 L 404 227 L 404 227 L 405 227 L 405 227 L 406 227 L 406 227 L 407 227 L 407 227 L 407 228 L 408 228 L 408 228 L 409 228 L 409 228 L 409 228 L 410 228 L 410 228 L 411 228 L 411 228 L 412 228 L 412 228 L 412 228 L 413 228 L 413 228 L 414 228 L 414 228 L 414 228 L 415 229 L 415 229 L 416 229 L 416 229 L 417 229 L 417 229 L 417 229 L 418 229 L 418 229 L 419 229 L 419 229 L 419 229 L 420 229 L 420 229 L 421 229 L 421 229 L 422 229 L 422 229 L 422 229 L 423 229 L 423 230 L 424 230 L 424 230 L 424 230 L 425 230 L 425 230 L 426 230 L 426 230 L 427 230 L 427 230 L 427 230 L 428 230 L 428 230 L 429 230 L 429 230 L 429 230 L 430 230 L 430 230 L 431 230 L 431 230 L 432 230 L 432 230 L 432 231 L 433 231 L 433 231 L 434 231 L 434 231 L 434 231 L 435 231 L 435 231 L 436 231 L 436 231 L 437 231 L 437 231 L 437 231 L 438 231 L 438 231 L 439 231 L 439 231 L 439 231 L 440 231 L 440 231 L 441 231 L 441 231 L 442 231 L 442 231 L 442 232 L 443 232 L 443 232 L 444 232 L 444 232 L 444 232 L 445 232 L 445 232 L 446 232 L 446 232 L 447 232 L 447 232 L 447 232 L 448 232 L 448 232 L 449 232 L 449 232 L 449 232 L 450 232 L 450 232 L 451 232 L 451 232 L 452 232 L 452 232 L 452 232 L 453 232 L 453 232 L 454 232 L 454 233 L 454 233 L 455 233 L 455 233 L 456 233 L 456 233 L 457 233 L 457 233 L 457 233 L 458 233 L 458 233 L 459 233 L 459 233 L 459 233 L 460 233 L 460 233 L 461 233 L 461 233 L 462 233 L 462 233 L 462 233 L 463 233 L 463 233 L 464 233 L 464 233 L 464 233 L 465 233 L 465 233 L 466 233 L 466 233 L 467 234 L 467 234 L 467 234 L 468 234 L 468 234 L 469 234 L 469 234 L 469 234 L 470 234 L 470 234 L 471 234 L 471 234 L 472 234 L 472 234 L 472 234 L 473 234 L 473 234 L 474 234 L 474 234 L 474 234 L 475 234 L 475 234 L 476 234 L 476 234 L 477 234 L 477 234 L 477 234 L 478 234 L 478 234 L 479 234 L 479 234 L 479 234 L 480 234 L 480 234 L 481 234 L 481 235 L 482 235 L 482 235 L 482 235 L 483 235 L 483 235 L 484 235 L 484 235 L 484 235 L 485 235 L 485 235 L 486 235 L 486 235 L 487 235 L 487 235 L 487 235 L 488 235 L 488 235 L 489 235 L 489 235 L 489 235 L 490 235 L 490 235 L 491 235 L 491 235 L 492 235 L 492 235 L 492 235 L 493 235 L 493 235 L 494 235 L 494 235 L 494 235 L 495 235 L 495 235 L 496 235 L 496 235 L 497 235 L 497 235 L 497 235 L 498 236 L 498 236 L 499 236 L 499 236 L 499 236 " style="stroke:#4EAEEE; stroke-width:5; stroke-linejoin:round; stroke-linecap:round; fill:rgba(0,0,0,0)"/><text x="41.666666666666686" y="280" text-anchor="middle" font-family="Nunito" font-size="22px" fill="#ccc">-5</text><text x="270" y="464.9333333333333" text-anchor="middle" font-family="Nunito" font-size="22px" fill="#ccc">-5</text><text x="83.33333333333334" y="280" text-anchor="middle" font-family="Nunito" font-size="22px" fill="#ccc">-4</text><text x="270" y="423.26666666666665" text-anchor="middle" font-family="Nunito" font-size="22px" fill="#ccc">-4</text><text x="125" y="280" text-anchor="middle" font-family="Nunito" font-size="22px" fill="#ccc">-3</text><text x="270" y="381.6" text-anchor="middle" font-family="Nunito" font-size="22px" fill="#ccc">-3</text><text x="166.66666666666669" y="280" text-anchor="middle" font-family="Nunito" font-size="22px" fill="#ccc">-2</text><text x="270" y="339.93333333333334" text-anchor="middle" font-family="Nunito" font-size="22px" fill="#ccc">-2</text><text x="208.33333333333334" y="280" text-anchor="middle" font-family="Nunito" font-size="22px" fill="#ccc">-1</text><text x="270" y="298.26666666666665" text-anchor="middle" font-family="Nunito" font-size="22px" fill="#ccc">-1</text><text x="267.6" y="280" text-anchor="middle" font-family="Nunito" font-size="22px" fill="#ccc">0</text><text x="267.6" y="280" text-anchor="middle" font-family="Nunito" font-size="22px" fill="#ccc">0</text><text x="291.6666666666667" y="280" text-anchor="middle" font-family="Nunito" font-size="22px" fill="#ccc">1</text><text x="270" y="214.93333333333334" text-anchor="middle" font-family="Nunito" font-size="22px" fill="#ccc">1</text><text x="333.3333333333333" y="280" text-anchor="middle" font-family="Nunito" font-size="22px" fill="#ccc">2</text><text x="270" y="173.26666666666665" text-anchor="middle" font-family="Nunito" font-size="22px" fill="#ccc">2</text><text x="375" y="280" text-anchor="middle" font-family="Nunito" font-size="22px" fill="#ccc">3</text><text x="270" y="131.6" text-anchor="middle" font-family="Nunito" font-size="22px" fill="#ccc">3</text><text x="416.66666666666663" y="280" text-anchor="middle" font-family="Nunito" font-size="22px" fill="#ccc">4</text><text x="270" y="89.93333333333334" text-anchor="middle" font-family="Nunito" font-size="22px" fill="#ccc">4</text><text x="458.3333333333333" y="280" text-anchor="middle" font-family="Nunito" font-size="22px" fill="#ccc">5</text><text x="270" y="48.26666666666668" text-anchor="middle" font-family="Nunito" font-size="22px" fill="#ccc">5</text></svg>