<svg xmlns="http://www.w3.org/2000/svg" width="500" height="500"><rect width="500" height="500" x="0" y="0" style="fill:#fff"/><path d="M 62 0 L 62 500" style="stroke:#f4f4f4; stroke-width:5; stroke-linejoin:round; stroke-linecap:round; fill:rgba(0,0,0,0)"/><path d="M 0 62 L 500 62" style="stroke:#f4f4f4; stroke-width:5; stroke-linejoin:round; stroke-linecap:round; fill:rgba(0,0,0,0)"/><path d="M 125 0 L 125 500" style="stroke:#f4f4f4; stroke-width:5; stroke-linejoin:round; stroke-linecap:round; fill:rgba(0,0,0,0)"/><path d="M 0 125 L 500 125" style="stroke:#f4f4f4; stroke-width:5; stroke-linejoin:round; stroke-linecap:round; fill:rgba(0,0,0,0)"/><path d="M 187 0 L 187 500" style="stroke:#f4f4f4; stroke-width:5; stroke-linejoin:round; stroke-linecap:round; fill:rgba(0,0,0,0)"/><path d="M 0 187 L 500 187" style="stroke:#f4f4f4; stroke-width:5; stroke-linejoin:round; stroke-linecap:round; fill:rgba(0,0,0,0)"/><path d="M 250 0 L 250 500" style="stroke:#f4f4f4; stroke-width:5; stroke-linejoin:round; stroke-linecap:round; fill:rgba(0,0,0,0)"/><path d="M 0 250 L 500 250" style="stroke:#f4f4f4; stroke-width:5; stroke-linejoin:round; stroke-linecap:round; fill:rgba(0,0,0,0)"/><path d="M 312 0 L 312 500" style="stroke:#f4f4f4; stroke-width:5; stroke-linejoin:round; stroke-linecap:round; fill:rgba(0,0,0,0)"/><path d="M 0 312 L 500 312" style="stroke:#f4f4f4; stroke-width:5; stroke-linejoin:round; stroke-linecap:round; fill:rgba(0,0,0,0)"/><path d="M 375 0 L 375 500" style="stroke:#f4f4f4; stroke-width:5; stroke-linejoin:round; stroke-linecap:round; fill:rgba(0,0,0,0)"/><path d="M 0 375 L 500 375" style="stroke:#f4f4f4; stroke-width:5; stroke-linejoin:round; stroke-linecap:round; fill:rgba(0,0,0,0)"/><path d="M 437 0 L 437 500" style="stroke:#f4f4f4; stroke-width:5; stroke-linejoin:round; stroke-linecap:round; fill:rgba(0,0,0,0)"/><path d="M 0 437 L 500 437" style="stroke:#f4f4f4; stroke-width:5; stroke-linejoin:round; stroke-linecap:round; fill:rgba(0,0,0,0)"/><path d="M 62 0 L 62 500" style="stroke:#f4f4f4; stroke-width:5; stroke-linejoin:round; stroke-linecap:round; fill:rgba(0,0,0,0)"/><path d="M 125 0 L 125 500" style="stroke:#f4f4f4; stroke-width:5; stroke-linejoin:round; stroke-linecap:round; fill:rgba(0,0,0,0)"/><path d="M 187 0 L 187 500" style="stroke:#f4f4f4; stroke-width:5; stroke-linejoin:round; stroke-linecap:round; fill:rgba(0,0,0,0)"/><path d="M 250 0 L 250 500" style="stroke:#f4f4f4; stroke-width:5; stroke-linejoin:round; stroke-linecap:round; fill:rgba(0,0,0,0)"/><path d="M 312 0 L 312 500" style="stroke:#f4f4f4; stroke-width:5; stroke-linejoin:round; stroke-linecap:round; fill:rgba(0,0,0,0)"/><path d="M 375 0 L 375 500" style="stroke:#f4f4f4; stroke-width:5; stroke-linejoin:round; stroke-linecap:round; fill:rgba(0,0,0,0)"/><path d="M 437 0 L 437 500" style="stroke:#f4f4f4; stroke-width:5; stroke-linejoin:round; stroke-linecap:round; fill:rgba(0,0,0,0)"/><path d="M 0 250 L 500 250" style="stroke:#ccc; stroke-width:5; stroke-linejoin:round; stroke-linecap:round; fill:rgba(0,0,0,0)"/><path d="M 250 0 L 250 500" style="stroke:#ccc; stroke-width:5; stroke-linejoin:round; stroke-linecap:round; fill:rgba(0,0,0,0)"/><path d="M 62 245 L 62 255" style="stroke:#ccc; stroke-width:5; stroke-linejoin:round; stroke-linecap:round; fill:rgba(0,0,0,0)"/><path d="M 245 437 L 255 437" style="stroke:#ccc; stroke-width:5; stroke-linejoin:round; stroke-linecap:round; fill:rgba(0,0,0,0)"/><path d="M 125 245 L 125 255" style="stroke:#ccc; stroke-width:5; stroke-linejoin:round; stroke-linecap:round; fill:rgba(0,0,0,0)"/><path d="M 245 375 L 255 375" style="stroke:#ccc; stroke-width:5; stroke-linejoin:round; stroke-linecap:round; fill:rgba(0,0,0,0)"/><path d="M 187 245 L 187 255" style="stroke:#ccc; stroke-width:5; stroke-linejoin:round; stroke-linecap:round; fill:rgba(0,0,0,0)"/><path d="M 245 312 L 255 312" style="stroke:#ccc; stroke-width:5; stroke-linejoin:round; stroke-linecap:round; fill:rgba(0,0,0,0)"/><path d="M 312 245 L 312 255" style="stroke:#ccc; stroke-width:5; stroke-linejoin:round; stroke-linecap:round; fill:rgba(0,0,0,0)"/><path d="M 245 187 L 255 187" style="stroke:#ccc; stroke-width:5; stroke-linejoin:round; stroke-linecap:round; fill:rgba(0,0,0,0)"/><path d="M 375 245 L 375 255" style="stroke:#ccc; stroke-width:5; stroke-linejoin:round; stroke-linecap:round; fill:rgba(0,0,0,0)"/><path d="M 245 125 L 255 125" style="stroke:#ccc; stroke-width:5; stroke-linejoin:round; stroke-linecap:round; fill:rgba(0,0,0,0)"/><path d="M 437 245 L 437 255" style="stroke:#ccc; stroke-width:5; stroke-linejoin:round; stroke-linecap:round; fill:rgba(0,0,0,0)"/><path d="M 245 62 L 255 62" style="stroke:#ccc; stroke-width:5; stroke-linejoin:round; stroke-linecap:round; fill:rgba(0,0,0,0)"/><path d="M 492 242 L 500 250" style="stroke:#ccc; stroke-width:5; stroke-linejoin:round; stroke-linecap:round; fill:rgba(0,0,0,0)"/><path d="M 492 257 L 500 250" style="stroke:#ccc; stroke-width:5; stroke-linejoin:round; stroke-linecap:round; fill:rgba(0,0,0,0)"/><path d="M 240 10 L 250 0" style="stroke:#ccc; stroke-width:5; stroke-linejoin:round; stroke-linecap:round; fill:rgba(0,0,0,0)"/><path d="M 260 10 L 250 0" style="stroke:#ccc; stroke-width:5; stroke-linejoin:round; stroke-linecap:round; fill:rgba(0,0,0,0)"/><path d="M 0 197 L 0 197 L 1 197 L 1 197 L 2 197 L 3 198 L 3 198 L 4 198 L 4 198 L 5 198 L 6 198 L 6 198 L 7 198 L 8 198 L 8 198 L 9 198 L 9 198 L 10 198 L 11 198 L 11 198 L 12 198 L 13 198 L 13 198 L 14 198 L 14 198 L 15 198 L 16 198 L 16 198 L 17 198 L 18 198 L 18 198 L 19 198 L 19 198 L 20 198 L 21 198 L 21 198 L 22 198 L 23 198 L 23 198 L 24 198 L 24 198 L 25 198 L 26 198 L 26 198 L 27 198 L 28 198 L 28 198 L 29 198 L 29 198 L 30 198 L 31 198 L 31 198 L 32 198 L 33 198 L 33 198 L 34 198 L 34 198 L 35 199 L 36 199 L 36 199 L 37 199 L 38 199 L 38 199 L 39 199 L 39 199 L 40 199 L 41 199 L 41 199 L 42 199 L 43 199 L 43 199 L 44 199 L 44 199 L 45 199 L 46 199 L 46 199 L 47 199 L 48 199 L 48 199 L 49 199 L 49 199 L 50 199 L 51 199 L 51 199 L 52 199 L 53 199 L 53 199 L 54 199 L 54 199 L 55 199 L 56 199 L 56 199 L 57 199 L 58 199 L 58 199 L 59 199 L 59 199 L 60 199 L 61 199 L 61 199 L 62 199 L 63 200 L 63 200 L 64 200 L 64 200 L 65 200 L 66 200 L 66 200 L 67 200 L 68 200 L 68 200 L 69 200 L 69 200 L 70 200 L 71 200 L 71 200 L 72 200 L 73 200 L 73 200 L 74 200 L 74 200 L 75 200 L 76 200 L 76 200 L 77 200 L 78 200 L 78 200 L 79 200 L 79 200 L 80 200 L 81 200 L 81 200 L 82 200 L 83 200 L 83 200 L 84 200 L 84 200 L 85 200 L 86 201 L 86 201 L 87 201 L 88 201 L 88 201 L 89 201 L 89 201 L 90 201 L 91 201 L 91 201 L 92 201 L 93 201 L 93 201 L 94 201 L 94 201 L 95 201 L 96 201 L 96 201 L 97 201 L 98 201 L 98 201 L 99 201 L 99 201 L 100 201 L 101 201 L 101 201 L 102 201 L 103 201 L 103 201 L 104 201 L 104 201 L 105 202 L 106 202 L 106 202 L 107 202 L 108 202 L 108 202 L 109 202 L 109 202 L 110 202 L 111 202 L 111 202 L 112 202 L 113 202 L 113 202 L 114 202 L 114 202 L 115 202 L 116 202 L 116 202 L 117 202 L 118 202 L 118 202 L 119 202 L 119 202 L 120 202 L 121 202 L 121 202 L 122 202 L 123 203 L 123 203 L 124 203 L 124 203 L 125 203 L 126 203 L 126 203 L 127 203 L 128 203 L 128 203 L 129 203 L 129 203 L 130 203 L 131 203 L 131 203 L 132 203 L 133 203 L 133 203 L 134 203 L 134 203 L 135 203 L 136 203 L 136 203 L 137 203 L 138 203 L 138 204 L 139 204 L 139 204 L 140 204 L 141 204 L 141 204 L 142 204 L 143 204 L 143 204 L 144 204 L 144 204 L 145 204 L 146 204 L 146 204 L 147 204 L 148 204 L 148 204 L 149 204 L 149 204 L 150 204 L 151 204 L 151 205 L 152 205 L 153 205 L 153 205 L 154 205 L 154 205 L 155 205 L 156 205 L 156 205 L 157 205 L 158 205 L 158 205 L 159 205 L 159 205 L 160 205 L 161 205 L 161 205 L 162 205 L 163 205 L 163 205 L 164 206 L 164 206 L 165 206 L 166 206 L 166 206 L 167 206 L 168 206 L 168 206 L 169 206 L 169 206 L 170 206 L 171 206 L 171 206 L 172 206 L 173 206 L 173 206 L 174 206 L 174 207 L 175 207 L 176 207 L 176 207 L 177 207 L 178 207 L 178 207 L 179 207 L 179 207 L 180 207 L 181 207 L 181 207 L 182 207 L 183 207 L 183 207 L 184 207 L 184 208 L 185 208 L 186 208 L 186 208 L 187 208 L 188 208 L 188 208 L 189 208 L 189 208 L 190 208 L 191 208 L 191 208 L 192 208 L 193 208 L 193 209 L 194 209 L 194 209 L 195 209 L 196 209 L 196 209 L 197 209 L 198 209 L 198 209 L 199 209 L 199 209 L 200 209 L 201 209 L 201 210 L 202 210 L 203 210 L 203 210 L 204 210 L 204 210 L 205 210 L 206 210 L 206 210 L 207 210 L 208 210 L 208 210 L 209 211 L 209 211 L 210 211 L 211 211 L 211 211 L 212 211 L 213 211 L 213 211 L 214 211 L 214 211 L 215 212 L 216 212 L 216 212 L 217 212 L 218 212 L 218 212 L 219 212 L 219 212 L 220 212 L 221 212 L 221 213 L 222 213 L 223 213 L 223 213 L 224 213 L 224 213 L 225 213 L 226 213 L 226 213 L 227 213 L 228 214 L 228 214 L 229 214 L 229 214 L 230 214 L 231 214 L 231 214 L 232 214 L 233 215 L 233 215 L 234 215 L 234 215 L 235 215 L 236 215 L 236 215 L 237 215 L 238 216 L 238 216 L 239 216 L 239 216 L 240 216 L 241 216 L 241 216 L 242 216 L 243 217 L 243 217 L 244 217 L 244 217 L 245 217 L 246 217 L 246 217 L 247 218 L 248 218 L 248 218 L 249 218 L 249 218 L 250 218 L 251 219 L 251 219 L 252 219 L 253 219 L 253 219 L 254 219 L 254 220 L 255 220 L 256 220 L 256 220 L 257 220 L 258 220 L 258 221 L 259 221 L 259 221 L 260 221 L 261 221 L 261 222 L 262 222 L 263 222 L 263 222 L 264 222 L 264 223 L 265 223 L 266 223 L 266 223 L 267 223 L 268 224 L 268 224 L 269 224 L 269 224 L 270 224 L 271 225 L 271 225 L 272 225 L 273 225 L 273 226 L 274 226 L 274 226 L 275 226 L 276 227 L 276 227 L 277 227 L 278 227 L 278 228 L 279 228 L 279 228 L 280 228 L 281 229 L 281 229 L 282 229 L 283 230 L 283 230 L 284 230 L 284 230 L 285 231 L 286 231 L 286 231 L 287 232 L 288 232 L 288 232 L 289 233 L 289 233 L 290 233 L 291 234 L 291 234 L 292 234 L 293 235 L 293 235 L 294 235 L 294 236 L 295 236 L 296 237 L 296 237 L 297 237 L 298 238 L 298 238 L 299 239 L 299 239 L 300 240 L 301 240 L 301 240 L 302 241 L 303 241 L 303 242 L 304 242 L 304 243 L 305 243 L 306 244 L 306 244 L 307 245 L 308 245 L 308 246 L 309 247 L 309 247 L 310 248 L 311 248 L 311 249 L 312 249 L 313 250 L 313 251 L 314 251 L 314 252 L 315 253 L 316 253 L 316 254 L 317 255 L 318 256 L 318 256 L 319 257 L 319 258 L 320 259 L 321 260 L 321 261 L 322 261 L 323 262 L 323 263 L 324 264 L 324 265 L 325 266 L 326 267 L 326 268 L 327 269 L 328 270 L 328 271 L 329 273 L 329 274 L 330 275 L 331 276 L 331 278 L 332 279 L 333 280 L 333 282 L 334 283 L 334 285 L 335 286 L 336 288 L 336 289 L 337 291 L 338 293 L 338 295 L 339 297 L 339 299 L 340 301 L 341 303 L 341 305 L 342 307 L 343 310 L 343 312 L 344 315 L 344 317 L 345 320 L 346 323 L 346 326 L 347 329 L 348 332 L 348 336 L 349 339 L 349 343 L 350 347 L 351 351 L 351 356 L 352 361 L 353 366 L 353 371 L 354 376 L 354 382 L 355 389 L 356 395 L 356 403 L 357 410 L 358 418 L 358 427 L 359 437 L 359 447 L 360 459 L 361 471 L 361 485 L 362 499 " style="stroke:#8DC34E; stroke-width:5; stroke-linejoin:round; stroke-linecap:round; fill:rgba(0,0,0,0)"/><path d="M 396 3 L 396 8 L 397 13 L 398 18 L 398 23 L 399 27 L 399 31 L 400 35 L 401 38 L 401 42 L 402 45 L 403 48 L 403 51 L 404 54 L 404 57 L 405 59 L 406 62 L 406 64 L 407 67 L 408 69 L 408 71 L 409 73 L 409 75 L 410 77 L 411 79 L 411 81 L 412 83 L 413 85 L 413 86 L 414 88 L 414 89 L 415 91 L 416 92 L 416 94 L 417 95 L 418 96 L 418 98 L 419 99 L 419 100 L 420 101 L 421 103 L 421 104 L 422 105 L 423 106 L 423 107 L 424 108 L 424 109 L 425 110 L 426 111 L 426 112 L 427 113 L 428 113 L 428 114 L 429 115 L 429 116 L 430 117 L 431 118 L 431 118 L 432 119 L 433 120 L 433 121 L 434 121 L 434 122 L 435 123 L 436 123 L 436 124 L 437 124 L 438 125 L 438 126 L 439 126 L 439 127 L 440 127 L 441 128 L 441 129 L 442 129 L 443 130 L 443 130 L 444 131 L 444 131 L 445 132 L 446 132 L 446 133 L 447 133 L 448 134 L 448 134 L 449 134 L 449 135 L 450 135 L 451 136 L 451 136 L 452 137 L 453 137 L 453 137 L 454 138 L 454 138 L 455 139 L 456 139 L 456 139 L 457 140 L 458 140 L 458 140 L 459 141 L 459 141 L 460 141 L 461 142 L 461 142 L 462 142 L 463 143 L 463 143 L 464 143 L 464 144 L 465 144 L 466 144 L 466 144 L 467 145 L 468 145 L 468 145 L 469 146 L 469 146 L 470 146 L 471 146 L 471 147 L 472 147 L 473 147 L 473 147 L 474 148 L 474 148 L 475 148 L 476 148 L 476 149 L 477 149 L 478 149 L 478 149 L 479 150 L 479 150 L 480 150 L 481 150 L 481 150 L 482 151 L 483 151 L 483 151 L 484 151 L 484 151 L 485 152 L 486 152 L 486 152 L 487 152 L 488 152 L 488 153 L 489 153 L 489 153 L 490 153 L 491 153 L 491 154 L 492 154 L 493 154 L 493 154 L 494 154 L 494 154 L 495 155 L 496 155 L 496 155 L 497 155 L 498 155 L 498 155 L 499 156 L 499 156 " style="stroke:#8DC34E; stroke-width:5; stroke-linejoin:round; stroke-linecap:round; fill:rgba(0,0,0,0)"/><path d="M 0 187 L 0 187 L 1 187 L 1 187 L 2 187 L 3 187 L 3 187 L 4 187 L 4 187 L 5 187 L 6 187 L 6 187 L 7 187 L 8 187 L 8 187 L 9 187 L 9 187 L 10 187 L 11 187 L 11 187 L 12 187 L 13 187 L 13 187 L 14 187 L 14 187 L 15 187 L 16 187 L 16 187 L 17 187 L 18 187 L 18 187 L 19 187 L 19 187 L 20 187 L 21 187 L 21 187 L 22 187 L 23 187 L 23 187 L 24 187 L 24 187 L 25 187 L 26 187 L 26 187 L 27 187 L 28 187 L 28 187 L 29 187 L 29 187 L 30 187 L 31 187 L 31 187 L 32 187 L 33 187 L 33 187 L 34 187 L 34 187 L 35 187 L 36 187 L 36 187 L 37 187 L 38 187 L 38 187 L 39 187 L 39 187 L 40 187 L 41 187 L 41 187 L 42 187 L 43 187 L 43 187 L 44 187 L 44 187 L 45 187 L 46 187 L 46 187 L 47 187 L 48 187 L 48 187 L 49 187 L 49 187 L 50 187 L 51 187 L 51 187 L 52 187 L 53 187 L 53 187 L 54 187 L 54 187 L 55 187 L 56 187 L 56 187 L 57 187 L 58 187 L 58 187 L 59 187 L 59 187 L 60 187 L 61 187 L 61 187 L 62 187 L 63 187 L 63 187 L 64 187 L 64 187 L 65 187 L 66 187 L 66 187 L 67 187 L 68 187 L 68 187 L 69 187 L 69 187 L 70 187 L 71 187 L 71 187 L 72 187 L 73 187 L 73 187 L 74 187 L 74 187 L 75 187 L 76 187 L 76 187 L 77 187 L 78 187 L 78 187 L 79 187 L 79 187 L 80 187 L 81 187 L 81 187 L 82 187 L 83 187 L 83 187 L 84 187 L 84 187 L 85 187 L 86 187 L 86 187 L 87 187 L 88 187 L 88 187 L 89 187 L 89 187 L 90 187 L 91 187 L 91 187 L 92 187 L 93 187 L 93 187 L 94 187 L 94 187 L 95 187 L 96 187 L 96 187 L 97 187 L 98 187 L 98 187 L 99 187 L 99 187 L 100 187 L 101 187 L 101 187 L 102 187 L 103 187 L 103 187 L 104 187 L 104 187 L 105 187 L 106 187 L 106 187 L 107 187 L 108 187 L 108 187 L 109 187 L 109 187 L 110 187 L 111 187 L 111 187 L 112 187 L 113 187 L 113 187 L 114 187 L 114 187 L 115 187 L 116 187 L 116 187 L 117 187 L 118 187 L 118 187 L 119 187 L 119 187 L 120 187 L 121 187 L 121 187 L 122 187 L 123 187 L 123 187 L 124 187 L 124 187 L 125 187 L 126 187 L 126 187 L 127 187 L 128 187 L 128 187 L 129 187 L 129 187 L 130 187 L 131 187 L 131 187 L 132 187 L 133 187 L 133 187 L 134 187 L 134 187 L 135 187 L 136 187 L 136 187 L 137 187 L 138 187 L 138 187 L 139 187 L 139 187 L 140 187 L 141 187 L 141 187 L 142 187 L 143 187 L 143 187 L 144 187 L 144 187 L 145 187 L 146 187 L 146 187 L 147 187 L 148 187 L 148 187 L 149 187 L 149 187 L 150 187 L 151 187 L 151 187 L 152 187 L 153 187 L 153 187 L 154 187 L 154 187 L 155 187 L 156 187 L 156 187 L 157 187 L 158 187 L 158 187 L 159 187 L 159 187 L 160 187 L 161 187 L 161 187 L 162 187 L 163 187 L 163 187 L 164 187 L 164 187 L 165 187 L 166 187 L 166 187 L 167 187 L 168 187 L 168 187 L 169 187 L 169 187 L 170 187 L 171 187 L 171 187 L 172 187 L 173 187 L 173 187 L 174 187 L 174 187 L 175 187 L 176 187 L 176 187 L 177 187 L 178 187 L 178 187 L 179 187 L 179 187 L 180 187 L 181 187 L 181 187 L 182 187 L 183 187 L 183 187 L 184 187 L 184 187 L 185 187 L 186 187 L 186 187 L 187 187 L 188 187 L 188 187 L 189 187 L 189 187 L 190 187 L 191 187 L 191 187 L 192 187 L 193 187 L 193 187 L 194 187 L 194 187 L 195 187 L 196 187 L 196 187 L 197 187 L 198 187 L 198 187 L 199 187 L 199 187 L 200 187 L 201 187 L 201 187 L 202 187 L 203 187 L 203 187 L 204 187 L 204 187 L 205 187 L 206 187 L 206 187 L 207 187 L 208 187 L 208 187 L 209 187 L 209 187 L 210 187 L 211 187 L 211 187 L 212 187 L 213 187 L 213 187 L 214 187 L 214 187 L 215 187 L 216 187 L 216 187 L 217 187 L 218 187 L 218 187 L 219 187 L 219 187 L 220 187 L 221 187 L 221 187 L 222 187 L 223 187 L 223 187 L 224 187 L 224 187 L 225 187 L 226 187 L 226 187 L 227 187 L 228 187 L 228 187 L 229 187 L 229 187 L 230 187 L 231 187 L 231 187 L 232 187 L 233 187 L 233 187 L 234 187 L 234 187 L 235 187 L 236 187 L 236 187 L 237 187 L 238 187 L 238 187 L 239 187 L 239 187 L 240 187 L 241 187 L 241 187 L 242 187 L 243 187 L 243 187 L 244 187 L 244 187 L 245 187 L 246 187 L 246 187 L 247 187 L 248 187 L 248 187 L 249 187 L 249 187 L 250 187 L 251 187 L 251 187 L 252 187 L 253 187 L 253 187 L 254 187 L 254 187 L 255 187 L 256 187 L 256 187 L 257 187 L 258 187 L 258 187 L 259 187 L 259 187 L 260 187 L 261 187 L 261 187 L 262 187 L 263 187 L 263 187 L 264 187 L 264 187 L 265 187 L 266 187 L 266 187 L 267 187 L 268 187 L 268 187 L 269 187 L 269 187 L 270 187 L 271 187 L 271 187 L 272 187 L 273 187 L 273 187 L 274 187 L 274 187 L 275 187 L 276 187 L 276 187 L 277 187 L 278 187 L 278 187 L 279 187 L 279 187 L 280 187 L 281 187 L 281 187 L 282 187 L 283 187 L 283 187 L 284 187 L 284 187 L 285 187 L 286 187 L 286 187 L 287 187 L 288 187 L 288 187 L 289 187 L 289 187 L 290 187 L 291 187 L 291 187 L 292 187 L 293 187 L 293 187 L 294 187 L 294 187 L 295 187 L 296 187 L 296 187 L 297 187 L 298 187 L 298 187 L 299 187 L 299 187 L 300 187 L 301 187 L 301 187 L 302 187 L 303 187 L 303 187 L 304 187 L 304 187 L 305 187 L 306 187 L 306 187 L 307 187 L 308 187 L 308 187 L 309 187 L 309 187 L 310 187 L 311 187 L 311 187 L 312 187 L 313 187 L 313 187 L 314 187 L 314 187 L 315 187 L 316 187 L 316 187 L 317 187 L 318 187 L 318 187 L 319 187 L 319 187 L 320 187 L 321 187 L 321 187 L 322 187 L 323 187 L 323 187 L 324 187 L 324 187 L 325 187 L 326 187 L 326 187 L 327 187 L 328 187 L 328 187 L 329 187 L 329 187 L 330 187 L 331 187 L 331 187 L 332 187 L 333 187 L 333 187 L 334 187 L 334 187 L 335 187 L 336 187 L 336 187 L 337 187 L 338 187 L 338 187 L 339 187 L 339 187 L 340 187 L 341 187 L 341 187 L 342 187 L 343 187 L 343 187 L 344 187 L 344 187 L 345 187 L 346 187 L 346 187 L 347 187 L 348 187 L 348 187 L 349 187 L 349 187 L 350 187 L 351 187 L 351 187 L 352 187 L 353 187 L 353 187 L 354 187 L 354 187 L 355 187 L 356 187 L 356 187 L 357 187 L 358 187 L 358 187 L 359 187 L 359 187 L 360 187 L 361 187 L 361 187 L 362 187 L 363 187 L 363 187 L 364 187 L 364 187 L 365 187 L 366 187 L 366 187 L 367 187 L 368 187 L 368 187 L 369 187 L 369 187 L 370 187 L 371 187 L 371 187 L 372 187 L 373 187 L 373 187 L 374 187 L 374 187 L 375 187 L 376 187 L 376 187 L 377 187 L 378 187 L 378 187 L 379 187 L 379 187 L 380 187 L 381 187 L 381 187 L 382 187 L 383 187 L 383 187 L 384 187 L 384 187 L 385 187 L 386 187 L 386 187 L 387 187 L 388 187 L 388 187 L 389 187 L 389 187 L 390 187 L 391 187 L 391 187 L 392 187 L 393 187 L 393 187 L 394 187 L 394 187 L 395 187 L 396 187 L 396 187 L 397 187 L 398 187 L 398 187 L 399 187 L 399 187 L 400 187 L 401 187 L 401 187 L 402 187 L 403 187 L 403 187 L 404 187 L 404 187 L 405 187 L 406 187 L 406 187 L 407 187 L 408 187 L 408 187 L 409 187 L 409 187 L 410 187 L 411 187 L 411 187 L 412 187 L 413 187 L 413 187 L 414 187 L 414 187 L 415 187 L 416 187 L 416 187 L 417 187 L 418 187 L 418 187 L 419 187 L 419 187 L 420 187 L 421 187 L 421 187 L 422 187 L 423 187 L 423 187 L 424 187 L 424 187 L 425 187 L 426 187 L 426 187 L 427 187 L 428 187 L 428 187 L 429 187 L 429 187 L 430 187 L 431 187 L 431 187 L 432 187 L 433 187 L 433 187 L 434 187 L 434 187 L 435 187 L 436 187 L 436 187 L 437 187 L 438 187 L 438 187 L 439 187 L 439 187 L 440 187 L 441 187 L 441 187 L 442 187 L 443 187 L 443 187 L 444 187 L 444 187 L 445 187 L 446 187 L 446 187 L 447 187 L 448 187 L 448 187 L 449 187 L 449 187 L 450 187 L 451 187 L 451 187 L 452 187 L 453 187 L 453 187 L 454 187 L 454 187 L 455 187 L 456 187 L 456 187 L 457 187 L 458 187 L 458 187 L 459 187 L 459 187 L 460 187 L 461 187 L 461 187 L 462 187 L 463 187 L 463 187 L 464 187 L 464 187 L 465 187 L 466 187 L 466 187 L 467 187 L 468 187 L 468 187 L 469 187 L 469 187 L 470 187 L 471 187 L 471 187 L 472 187 L 473 187 L 473 187 L 474 187 L 474 187 L 475 187 L 476 187 L 476 187 L 477 187 L 478 187 L 478 187 L 479 187 L 479 187 L 480 187 L 481 187 L 481 187 L 482 187 L 483 187 L 483 187 L 484 187 L 484 187 L 485 187 L 486 187 L 486 187 L 487 187 L 488 187 L 488 187 L 489 187 L 489 187 L 490 187 L 491 187 L 491 187 L 492 187 L 493 187 L 493 187 L 494 187 L 494 187 L 495 187 L 496 187 L 496 187 L 497 187 L 498 187 L 498 187 L 499 187 L 499 187 " style="stroke:#4EAEEE; stroke-width:5; stroke-linejoin:round; stroke-linecap:round; fill:rgba(0,0,0,0)"/><path d="M 375 500 L 375 499 L 375 498 L 375 498 L 375 497 L 375 496 L 375 496 L 375 495 L 375 495 L 375 494 L 375 493 L 375 493 L 375 492 L 375 491 L 375 491 L 375 490 L 375 490 L 375 489 L 375 488 L 375 488 L 375 487 L 375 486 L 375 486 L 375 485 L 375 485 L 375 484 L 375 483 L 375 483 L 375 482 L 375 481 L 375 481 L 375 480 L 375 480 L 375 479 L 375 478 L 375 478 L 375 477 L 375 476 L 375 476 L 375 475 L 375 475 L 375 474 L 375 473 L 375 473 L 375 472 L 375 471 L 375 471 L 375 470 L 375 470 L 375 469 L 375 468 L 375 468 L 375 467 L 375 466 L 375 466 L 375 465 L 375 465 L 375 464 L 375 463 L 375 463 L 375 462 L 375 461 L 375 461 L 375 460 L 375 460 L 375 459 L 375 458 L 375 458 L 375 457 L 375 456 L 375 456 L 375 455 L 375 455 L 375 454 L 375 453 L 375 453 L 375 452 L 375 451 L 375 451 L 375 450 L 375 450 L 375 449 L 375 448 L 375 448 L 375 447 L 375 446 L 375 446 L 375 445 L 375 445 L 375 444 L 375 443 L 375 443 L 375 442 L 375 441 L 375 441 L 375 440 L 375 440 L 375 439 L 375 438 L 375 438 L 375 437 L 375 436 L 375 436 L 375 435 L 375 435 L 375 434 L 375 433 L 375 433 L 375 432 L 375 431 L 375 431 L 375 430 L 375 430 L 375 429 L 375 428 L 375 428 L 375 427 L 375 426 L 375 426 L 375 425 L 375 425 L 375 424 L 375 423 L 375 423 L 375 422 L 375 421 L 375 421 L 375 420 L 375 420 L 375 419 L 375 418 L 375 418 L 375 417 L 375 416 L 375 416 L 375 415 L 375 415 L 375 414 L 375 413 L 375 413 L 375 412 L 375 411 L 375 411 L 375 410 L 375 410 L 375 409 L 375 408 L 375 408 L 375 407 L 375 406 L 375 406 L 375 405 L 375 405 L 375 404 L 375 403 L 375 403 L 375 402 L 375 401 L 375 401 L 375 400 L 375 400 L 375 399 L 375 398 L 375 398 L 375 397 L 375 396 L 375 396 L 375 395 L 375 395 L 375 394 L 375 393 L 375 393 L 375 392 L 375 391 L 375 391 L 375 390 L 375 390 L 375 389 L 375 388 L 375 388 L 375 387 L 375 386 L 375 386 L 375 385 L 375 385 L 375 384 L 375 383 L 375 383 L 375 382 L 375 381 L 375 381 L 375 380 L 375 380 L 375 379 L 375 378 L 375 378 L 375 377 L 375 376 L 375 376 L 375 375 L 375 375 L 375 374 L 375 373 L 375 373 L 375 372 L 375 371 L 375 371 L 375 370 L 375 370 L 375 369 L 375 368 L 375 368 L 375 367 L 375 366 L 375 366 L 375 365 L 375 365 L 375 364 L 375 363 L 375 363 L 375 362 L 375 361 L 375 361 L 375 360 L 375 360 L 375 359 L 375 358 L 375 358 L 375 357 L 375 356 L 375 356 L 375 355 L 375 355 L 375 354 L 375 353 L 375 353 L 375 352 L 375 351 L 375 351 L 375 350 L 375 350 L 375 349 L 375 348 L 375 348 L 375 347 L 375 346 L 375 346 L 375 345 L 375 345 L 375 344 L 375 343 L 375 343 L 375 342 L 375 341 L 375 341 L 375 340 L 375 340 L 375 339 L 375 338 L 375 338 L 375 337 L 375 336 L 375 336 L 375 335 L 375 335 L 375 334 L 375 333 L 375 333 L 375 332 L 375 331 L 375 331 L 375 330 L 375 330 L 375 329 L 375 328 L 375 328 L 375 327 L 375 326 L 375 326 L 375 325 L 375 325 L 375 324 L 375 323 L 375 323 L 375 322 L 375 321 L 375 321 L 375 320 L 375 320 L 375 319 L 375 318 L 375 318 L 375 317 L 375 316 L 375 316 L 375 315 L 375 315 L 375 314 L 375 313 L 375 313 L 375 312 L 375 311 L 375 311 L 375 310 L 375 310 L 375 309 L 375 308 L 375 308 L 375 307 L 375 306 L 375 306 L 375 305 L 375 305 L 375 304 L 375 303 L 375 303 L 375 302 L 375 301 L 375 301 L 375 300 L 375 300 L 375 299 L 375 298 L 375 298 L 375 297 L 375 296 L 375 296 L 375 295 L 375 295 L 375 294 L 375 293 L 375 293 L 375 292 L 375 291 L 375 291 L 375 290 L 375 290 L 375 289 L 375 288 L 375 288 L 375 287 L 375 286 L 375 286 L 375 285 L 375 285 L 375 284 L 375 283 L 375 283 L 375 282 L 375 281 L 375 281 L 375 280 L 375 280 L 375 279 L 375 278 L 375 278 L 375 277 L 375 276 L 375 276 L 375 275 L 375 275 L 375 274 L 375 273 L 375 273 L 375 272 L 375 271 L 375 271 L 375 270 L 375 270 L 375 269 L 375 268 L 375 268 L 375 267 L 375 266 L 375 266 L 375 265 L 375 265 L 375 264 L 375 263 L 375 263 L 375 262 L 375 261 L 375 261 L 375 260 L 375 260 L 375 259 L 375 258 L 375 258 L 375 257 L 375 256 L 375 256 L 375 255 L 375 255 L 375 254 L 375 253 L 375 253 L 375 252 L 375 251 L 375 251 L 375 250 L 375 250 L 375 249 L 375 248 L 375 248 L 375 247 L 375 246 L 375 246 L 375 245 L 375 245 L 375 244 L 375 243 L 375 243 L 375 242 L 375 241 L 375 241 L 375 240 L 375 240 L 375 239 L 375 238 L 375 238 L 375 237 L 375 236 L 375 236 L 375 235 L 375 235 L 375 234 L 375 233 L 375 233 L 375 232 L 375 231 L 375 231 L 375 230 L 375 230 L 375 229 L 375 228 L 375 228 L 375 227 L 375 226 L 375 226 L 375 225 L 375 225 L 375 224 L 375 223 L 375 223 L 375 222 L 375 221 L 375 221 L 375 220 L 375 220 L 375 219 L 375 218 L 375 218 L 375 217 L 375 216 L 375 216 L 375 215 L 375 215 L 375 214 L 375 213 L 375 213 L 375 212 L 375 211 L 375 211 L 375 210 L 375 210 L 375 209 L 375 208 L 375 208 L 375 207 L 375 206 L 375 206 L 375 205 L 375 205 L 375 204 L 375 203 L 375 203 L 375 202 L 375 201 L 375 201 L 375 200 L 375 200 L 375 199 L 375 198 L 375 198 L 375 197 L 375 196 L 375 196 L 375 195 L 375 195 L 375 194 L 375 193 L 375 193 L 375 192 L 375 191 L 375 191 L 375 190 L 375 190 L 375 189 L 375 188 L 375 188 L 375 187 L 375 186 L 375 186 L 375 185 L 375 185 L 375 184 L 375 183 L 375 183 L 375 182 L 375 181 L 375 181 L 375 180 L 375 180 L 375 179 L 375 178 L 375 178 L 375 177 L 375 176 L 375 176 L 375 175 L 375 175 L 375 174 L 375 173 L 375 173 L 375 172 L 375 171 L 375 171 L 375 170 L 375 170 L 375 169 L 375 168 L 375 168 L 375 167 L 375 166 L 375 166 L 375 165 L 375 165 L 375 164 L 375 163 L 375 163 L 375 162 L 375 161 L 375 161 L 375 160 L 375 160 L 375 159 L 375 158 L 375 158 L 375 157 L 375 156 L 375 156 L 375 155 L 375 155 L 375 154 L 375 153 L 375 153 L 375 152 L 375 151 L 375 151 L 375 150 L 375 150 L 375 149 L 375 148 L 375 148 L 375 147 L 375 146 L 375 146 L 375 145 L 375 145 L 375 144 L 375 143 L 375 143 L 375 142 L 375 141 L 375 141 L 375 140 L 375 140 L 375 139 L 375 138 L 375 138 L 375 137 L 375 136 L 375 136 L 375 135 L 375 135 L 375 134 L 375 133 L 375 133 L 375 132 L 375 131 L 375 131 L 375 130 L 375 130 L 375 129 L 375 128 L 375 128 L 375 127 L 375 126 L 375 126 L 375 125 L 375 125 L 375 124 L 375 123 L 375 123 L 375 122 L 375 121 L 375 121 L 375 120 L 375 120 L 375 119 L 375 118 L 375 118 L 375 117 L 375 116 L 375 116 L 375 115 L 375 115 L 375 114 L 375 113 L 375 113 L 375 112 L 375 111 L 375 111 L 375 110 L 375 110 L 375 109 L 375 108 L 375 108 L 375 107 L 375 106 L 375 106 L 375 105 L 375 105 L 375 104 L 375 103 L 375 103 L 375 102 L 375 101 L 375 101 L 375 100 L 375 100 L 375 99 L 375 98 L 375 98 L 375 97 L 375 96 L 375 96 L 375 95 L 375 95 L 375 94 L 375 93 L 375 93 L 375 92 L 375 91 L 375 91 L 375 90 L 375 90 L 375 89 L 375 88 L 375 88 L 375 87 L 375 86 L 375 86 L 375 85 L 375 85 L 375 84 L 375 83 L 375 83 L 375 82 L 375 81 L 375 81 L 375 80 L 375 80 L 375 79 L 375 78 L 375 78 L 375 77 L 375 76 L 375 76 L 375 75 L 375 75 L 375 74 L 375 73 L 375 73 L 375 72 L 375 71 L 375 71 L 375 70 L 375 70 L 375 69 L 375 68 L 375 68 L 375 67 L 375 66 L 375 66 L 375 65 L 375 65 L 375 64 L 375 63 L 375 63 L 375 62 L 375 61 L 375 61 L 375 60 L 375 60 L 375 59 L 375 58 L 375 58 L 375 57 L 375 56 L 375 56 L 375 55 L 375 55 L 375 54 L 375 53 L 375 53 L 375 52 L 375 51 L 375 51 L 375 50 L 375 50 L 375 49 L 375 48 L 375 48 L 375 47 L 375 46 L 375 46 L 375 45 L 375 45 L 375 44 L 375 43 L 375 43 L 375 42 L 375 41 L 375 41 L 375 40 L 375 40 L 375 39 L 375 38 L 375 38 L 375 37 L 375 36 L 375 36 L 375 35 L 375 35 L 375 34 L 375 33 L 375 33 L 375 32 L 375 31 L 375 31 L 375 30 L 375 30 L 375 29 L 375 28 L 375 28 L 375 27 L 375 26 L 375 26 L 375 25 L 375 25 L 375 24 L 375 23 L 375 23 L 375 22 L 375 21 L 375 21 L 375 20 L 375 20 L 375 19 L 375 18 L 375 18 L 375 17 L 375 16 L 375 16 L 375 15 L 375 15 L 375 14 L 375 13 L 375 13 L 375 12 L 375 11 L 375 11 L 375 10 L 375 10 L 375 9 L 375 8 L 375 8 L 375 7 L 375 6 L 375 6 L 375 5 L 375 5 L 375 4 L 375 3 L 375 3 L 375 2 L 375 1 L 375 1 L 375 0 L 375 0 " style="stroke:#FE6055; stroke-width:5; stroke-linejoin:round; stroke-linecap:round; fill:rgba(0,0,0,0)"/><text x="62.5" y="280" text-anchor="middle" font-family="Nunito" font-size="22px" fill="#ccc">-3</text><text x="270" y="444.1" text-anchor="middle" font-family="Nunito" font-size="22px" fill="#ccc">-3</text><text x="125" y="280" text-anchor="middle" font-family="Nunito" font-size="22px" fill="#ccc">-2</text><text x="270" y="381.6" text-anchor="middle" font-family="Nunito" font-size="22px" fill="#ccc">-2</text><text x="187.5" y="280" text-anchor="middle" font-family="Nunito" font-size="22px" fill="#ccc">-1</text><text x="270" y="319.1" text-anchor="middle" font-family="Nunito" font-size="22px" fill="#ccc">-1</text><text x="267.6" y="280" text-anchor="middle" font-family="Nunito" font-size="22px" fill="#ccc">0</text><text x="267.6" y="280" text-anchor="middle" font-family="Nunito" font-size="22px" fill="#ccc">0</text><text x="312.5" y="280" text-anchor="middle" font-family="Nunito" font-size="22px" fill="#ccc">1</text><text x="270" y="194.1" text-anchor="middle" font-family="Nunito" font-size="22px" fill="#ccc">1</text><text x="375" y="280" text-anchor="middle" font-family="Nunito" font-size="22px" fill="#ccc">2</text><text x="270" y="131.6" text-anchor="middle" font-family="Nunito" font-size="22px" fill="#ccc">2</text><text x="437.5" y="280" text-anchor="middle" font-family="Nunito" font-size="22px" fill="#ccc">3</text><text x="270" y="69.1" text-anchor="middle" font-family="Nunito" font-size="22px" fill="#ccc">3</text></svg>