<svg xmlns="http://www.w3.org/2000/svg" width="500" height="500"><rect width="500" height="500" x="0" y="0" style="fill:#fff"/><path d="M 62 0 L 62 500" style="stroke:#f4f4f4; stroke-width:5; stroke-linejoin:round; stroke-linecap:round; fill:rgba(0,0,0,0)"/><path d="M 0 62 L 500 62" style="stroke:#f4f4f4; stroke-width:5; stroke-linejoin:round; stroke-linecap:round; fill:rgba(0,0,0,0)"/><path d="M 125 0 L 125 500" style="stroke:#f4f4f4; stroke-width:5; stroke-linejoin:round; stroke-linecap:round; fill:rgba(0,0,0,0)"/><path d="M 0 125 L 500 125" style="stroke:#f4f4f4; stroke-width:5; stroke-linejoin:round; stroke-linecap:round; fill:rgba(0,0,0,0)"/><path d="M 187 0 L 187 500" style="stroke:#f4f4f4; stroke-width:5; stroke-linejoin:round; stroke-linecap:round; fill:rgba(0,0,0,0)"/><path d="M 0 187 L 500 187" style="stroke:#f4f4f4; stroke-width:5; stroke-linejoin:round; stroke-linecap:round; fill:rgba(0,0,0,0)"/><path d="M 250 0 L 250 500" style="stroke:#f4f4f4; stroke-width:5; stroke-linejoin:round; stroke-linecap:round; fill:rgba(0,0,0,0)"/><path d="M 0 250 L 500 250" style="stroke:#f4f4f4; stroke-width:5; stroke-linejoin:round; stroke-linecap:round; fill:rgba(0,0,0,0)"/><path d="M 312 0 L 312 500" style="stroke:#f4f4f4; stroke-width:5; stroke-linejoin:round; stroke-linecap:round; fill:rgba(0,0,0,0)"/><path d="M 0 312 L 500 312" style="stroke:#f4f4f4; stroke-width:5; stroke-linejoin:round; stroke-linecap:round; fill:rgba(0,0,0,0)"/><path d="M 375 0 L 375 500" style="stroke:#f4f4f4; stroke-width:5; stroke-linejoin:round; stroke-linecap:round; fill:rgba(0,0,0,0)"/><path d="M 0 375 L 500 375" style="stroke:#f4f4f4; stroke-width:5; stroke-linejoin:round; stroke-linecap:round; fill:rgba(0,0,0,0)"/><path d="M 437 0 L 437 500" style="stroke:#f4f4f4; stroke-width:5; stroke-linejoin:round; stroke-linecap:round; fill:rgba(0,0,0,0)"/><path d="M 0 437 L 500 437" style="stroke:#f4f4f4; stroke-width:5; stroke-linejoin:round; stroke-linecap:round; fill:rgba(0,0,0,0)"/><path d="M 62 0 L 62 500" style="stroke:#f4f4f4; stroke-width:5; stroke-linejoin:round; stroke-linecap:round; fill:rgba(0,0,0,0)"/><path d="M 125 0 L 125 500" style="stroke:#f4f4f4; stroke-width:5; stroke-linejoin:round; stroke-linecap:round; fill:rgba(0,0,0,0)"/><path d="M 187 0 L 187 500" style="stroke:#f4f4f4; stroke-width:5; stroke-linejoin:round; stroke-linecap:round; fill:rgba(0,0,0,0)"/><path d="M 250 0 L 250 500" style="stroke:#f4f4f4; stroke-width:5; stroke-linejoin:round; stroke-linecap:round; fill:rgba(0,0,0,0)"/><path d="M 312 0 L 312 500" style="stroke:#f4f4f4; stroke-width:5; stroke-linejoin:round; stroke-linecap:round; fill:rgba(0,0,0,0)"/><path d="M 375 0 L 375 500" style="stroke:#f4f4f4; stroke-width:5; stroke-linejoin:round; stroke-linecap:round; fill:rgba(0,0,0,0)"/><path d="M 437 0 L 437 500" style="stroke:#f4f4f4; stroke-width:5; stroke-linejoin:round; stroke-linecap:round; fill:rgba(0,0,0,0)"/><path d="M 0 250 L 500 250" style="stroke:#ccc; stroke-width:5; stroke-linejoin:round; stroke-linecap:round; fill:rgba(0,0,0,0)"/><path d="M 250 0 L 250 500" style="stroke:#ccc; stroke-width:5; stroke-linejoin:round; stroke-linecap:round; fill:rgba(0,0,0,0)"/><path d="M 62 245 L 62 255" style="stroke:#ccc; stroke-width:5; stroke-linejoin:round; stroke-linecap:round; fill:rgba(0,0,0,0)"/><path d="M 245 437 L 255 437" style="stroke:#ccc; stroke-width:5; stroke-linejoin:round; stroke-linecap:round; fill:rgba(0,0,0,0)"/><path d="M 125 245 L 125 255" style="stroke:#ccc; stroke-width:5; stroke-linejoin:round; stroke-linecap:round; fill:rgba(0,0,0,0)"/><path d="M 245 375 L 255 375" style="stroke:#ccc; stroke-width:5; stroke-linejoin:round; stroke-linecap:round; fill:rgba(0,0,0,0)"/><path d="M 187 245 L 187 255" style="stroke:#ccc; stroke-width:5; stroke-linejoin:round; stroke-linecap:round; fill:rgba(0,0,0,0)"/><path d="M 245 312 L 255 312" style="stroke:#ccc; stroke-width:5; stroke-linejoin:round; stroke-linecap:round; fill:rgba(0,0,0,0)"/><path d="M 312 245 L 312 255" style="stroke:#ccc; stroke-width:5; stroke-linejoin:round; stroke-linecap:round; fill:rgba(0,0,0,0)"/><path d="M 245 187 L 255 187" style="stroke:#ccc; stroke-width:5; stroke-linejoin:round; stroke-linecap:round; fill:rgba(0,0,0,0)"/><path d="M 375 245 L 375 255" style="stroke:#ccc; stroke-width:5; stroke-linejoin:round; stroke-linecap:round; fill:rgba(0,0,0,0)"/><path d="M 245 125 L 255 125" style="stroke:#ccc; stroke-width:5; stroke-linejoin:round; stroke-linecap:round; fill:rgba(0,0,0,0)"/><path d="M 437 245 L 437 255" style="stroke:#ccc; stroke-width:5; stroke-linejoin:round; stroke-linecap:round; fill:rgba(0,0,0,0)"/><path d="M 245 62 L 255 62" style="stroke:#ccc; stroke-width:5; stroke-linejoin:round; stroke-linecap:round; fill:rgba(0,0,0,0)"/><path d="M 492 242 L 500 250" style="stroke:#ccc; stroke-width:5; stroke-linejoin:round; stroke-linecap:round; fill:rgba(0,0,0,0)"/><path d="M 492 257 L 500 250" style="stroke:#ccc; stroke-width:5; stroke-linejoin:round; stroke-linecap:round; fill:rgba(0,0,0,0)"/><path d="M 240 10 L 250 0" style="stroke:#ccc; stroke-width:5; stroke-linejoin:round; stroke-linecap:round; fill:rgba(0,0,0,0)"/><path d="M 260 10 L 250 0" style="stroke:#ccc; stroke-width:5; stroke-linejoin:round; stroke-linecap:round; fill:rgba(0,0,0,0)"/><path d="M 0 0 L 0 0 L 1 0 L 1 1 L 2 1 L 3 2 L 3 2 L 4 3 L 4 3 L 5 4 L 6 4 L 6 5 L 7 5 L 8 6 L 8 6 L 9 7 L 9 7 L 10 7 L 11 8 L 11 8 L 12 9 L 13 9 L 13 10 L 14 10 L 14 11 L 15 11 L 16 12 L 16 12 L 17 13 L 18 13 L 18 14 L 19 14 L 19 14 L 20 15 L 21 15 L 21 16 L 22 16 L 23 17 L 23 17 L 24 18 L 24 18 L 25 19 L 26 19 L 26 20 L 27 20 L 28 21 L 28 21 L 29 22 L 29 22 L 30 22 L 31 23 L 31 23 L 32 24 L 33 24 L 33 25 L 34 25 L 34 26 L 35 26 L 36 27 L 36 27 L 37 28 L 38 28 L 38 29 L 39 29 L 39 29 L 40 30 L 41 30 L 41 31 L 42 31 L 43 32 L 43 32 L 44 33 L 44 33 L 45 34 L 46 34 L 46 35 L 47 35 L 48 36 L 48 36 L 49 37 L 49 37 L 50 37 L 51 38 L 51 38 L 52 39 L 53 39 L 53 40 L 54 40 L 54 41 L 55 41 L 56 42 L 56 42 L 57 43 L 58 43 L 58 44 L 59 44 L 59 44 L 60 45 L 61 45 L 61 46 L 62 46 L 63 47 L 63 47 L 64 48 L 64 48 L 65 49 L 66 49 L 66 50 L 67 50 L 68 51 L 68 51 L 69 52 L 69 52 L 70 52 L 71 53 L 71 53 L 72 54 L 73 54 L 73 55 L 74 55 L 74 56 L 75 56 L 76 57 L 76 57 L 77 58 L 78 58 L 78 59 L 79 59 L 79 59 L 80 60 L 81 60 L 81 61 L 82 61 L 83 62 L 83 62 L 84 63 L 84 63 L 85 64 L 86 64 L 86 65 L 87 65 L 88 66 L 88 66 L 89 67 L 89 67 L 90 67 L 91 68 L 91 68 L 92 69 L 93 69 L 93 70 L 94 70 L 94 71 L 95 71 L 96 72 L 96 72 L 97 73 L 98 73 L 98 74 L 99 74 L 99 74 L 100 75 L 101 75 L 101 76 L 102 76 L 103 77 L 103 77 L 104 78 L 104 78 L 105 79 L 106 79 L 106 80 L 107 80 L 108 81 L 108 81 L 109 82 L 109 82 L 110 82 L 111 83 L 111 83 L 112 84 L 113 84 L 113 85 L 114 85 L 114 86 L 115 86 L 116 87 L 116 87 L 117 88 L 118 88 L 118 89 L 119 89 L 119 89 L 120 90 L 121 90 L 121 91 L 122 91 L 123 92 L 123 92 L 124 93 L 124 93 L 125 94 L 126 94 L 126 95 L 127 95 L 128 96 L 128 96 L 129 97 L 129 97 L 130 97 L 131 98 L 131 98 L 132 99 L 133 99 L 133 100 L 134 100 L 134 101 L 135 101 L 136 102 L 136 102 L 137 103 L 138 103 L 138 104 L 139 104 L 139 104 L 140 105 L 141 105 L 141 106 L 142 106 L 143 107 L 143 107 L 144 108 L 144 108 L 145 109 L 146 109 L 146 110 L 147 110 L 148 111 L 148 111 L 149 112 L 149 112 L 150 112 L 151 113 L 151 113 L 152 114 L 153 114 L 153 115 L 154 115 L 154 116 L 155 116 L 156 117 L 156 117 L 157 118 L 158 118 L 158 119 L 159 119 L 159 119 L 160 120 L 161 120 L 161 121 L 162 121 L 163 122 L 163 122 L 164 123 L 164 123 L 165 124 L 166 124 L 166 125 L 167 125 L 168 126 L 168 126 L 169 127 L 169 127 L 170 127 L 171 128 L 171 128 L 172 129 L 173 129 L 173 130 L 174 130 L 174 131 L 175 131 L 176 132 L 176 132 L 177 133 L 178 133 L 178 134 L 179 134 L 179 134 L 180 135 L 181 135 L 181 136 L 182 136 L 183 137 L 183 137 L 184 138 L 184 138 L 185 139 L 186 139 L 186 140 L 187 140 L 188 141 L 188 141 L 189 142 L 189 142 L 190 142 L 191 143 L 191 143 L 192 144 L 193 144 L 193 145 L 194 145 L 194 146 L 195 146 L 196 147 L 196 147 L 197 148 L 198 148 L 198 149 L 199 149 L 199 149 L 200 150 L 201 150 L 201 151 L 202 151 L 203 152 L 203 152 L 204 153 L 204 153 L 205 154 L 206 154 L 206 155 L 207 155 L 208 156 L 208 156 L 209 157 L 209 157 L 210 157 L 211 158 L 211 158 L 212 159 L 213 159 L 213 160 L 214 160 L 214 161 L 215 161 L 216 162 L 216 162 L 217 163 L 218 163 L 218 164 L 219 164 L 219 164 L 220 165 L 221 165 L 221 166 L 222 166 L 223 167 L 223 167 L 224 168 L 224 168 L 225 169 L 226 169 L 226 170 L 227 170 L 228 171 L 228 171 L 229 172 L 229 172 L 230 172 L 231 173 L 231 173 L 232 174 L 233 174 L 233 175 L 234 175 L 234 176 L 235 176 L 236 177 L 236 177 L 237 178 L 238 178 L 238 179 L 239 179 L 239 179 L 240 180 L 241 180 L 241 181 L 242 181 L 243 182 L 243 182 L 244 183 L 244 183 L 245 184 L 246 184 L 246 185 L 247 185 L 248 186 L 248 186 L 249 187 L 249 187 L 250 187 L 251 188 L 251 188 L 252 189 L 253 189 L 253 190 L 254 190 L 254 191 L 255 191 L 256 192 L 256 192 L 257 193 L 258 193 L 258 194 L 259 194 L 259 194 L 260 195 L 261 195 L 261 196 L 262 196 L 263 197 L 263 197 L 264 198 L 264 198 L 265 199 L 266 199 L 266 200 L 267 200 L 268 201 L 268 201 L 269 202 L 269 202 L 270 202 L 271 203 L 271 203 L 272 204 L 273 204 L 273 205 L 274 205 L 274 206 L 275 206 L 276 207 L 276 207 L 277 208 L 278 208 L 278 209 L 279 209 L 279 209 L 280 210 L 281 210 L 281 211 L 282 211 L 283 212 L 283 212 L 284 213 L 284 213 L 285 214 L 286 214 L 286 215 L 287 215 L 288 216 L 288 216 L 289 217 L 289 217 L 290 217 L 291 218 L 291 218 L 292 219 L 293 219 L 293 220 L 294 220 L 294 221 L 295 221 L 296 222 L 296 222 L 297 223 L 298 223 L 298 224 L 299 224 L 299 224 L 300 225 L 301 225 L 301 226 L 302 226 L 303 227 L 303 227 L 304 228 L 304 228 L 305 229 L 306 229 L 306 230 L 307 230 L 308 231 L 308 231 L 309 232 L 309 232 L 310 232 L 311 233 L 311 233 L 312 234 L 313 234 L 313 235 L 314 235 L 314 236 L 315 236 L 316 237 L 316 237 L 317 238 L 318 238 L 318 239 L 319 239 L 319 239 L 320 240 L 321 240 L 321 241 L 322 241 L 323 242 L 323 242 L 324 243 L 324 243 L 325 244 L 326 244 L 326 245 L 327 245 L 328 246 L 328 246 L 329 247 L 329 247 L 330 247 L 331 248 L 331 248 L 332 249 L 333 249 L 333 250 L 334 250 L 334 251 L 335 251 L 336 252 L 336 252 L 337 253 L 338 253 L 338 254 L 339 254 L 339 254 L 340 255 L 341 255 L 341 256 L 342 256 L 343 257 L 343 257 L 344 258 L 344 258 L 345 259 L 346 259 L 346 260 L 347 260 L 348 261 L 348 261 L 349 262 L 349 262 L 350 262 L 351 263 L 351 263 L 352 264 L 353 264 L 353 265 L 354 265 L 354 266 L 355 266 L 356 267 L 356 267 L 357 268 L 358 268 L 358 269 L 359 269 L 359 269 L 360 270 L 361 270 L 361 271 L 362 271 L 363 272 L 363 272 L 364 273 L 364 273 L 365 274 L 366 274 L 366 275 L 367 275 L 368 276 L 368 276 L 369 277 L 369 277 L 370 277 L 371 278 L 371 278 L 372 279 L 373 279 L 373 280 L 374 280 L 374 281 L 375 281 L 376 282 L 376 282 L 377 283 L 378 283 L 378 284 L 379 284 L 379 284 L 380 285 L 381 285 L 381 286 L 382 286 L 383 287 L 383 287 L 384 288 L 384 288 L 385 289 L 386 289 L 386 290 L 387 290 L 388 291 L 388 291 L 389 292 L 389 292 L 390 292 L 391 293 L 391 293 L 392 294 L 393 294 L 393 295 L 394 295 L 394 296 L 395 296 L 396 297 L 396 297 L 397 298 L 398 298 L 398 299 L 399 299 L 399 299 L 400 300 L 401 300 L 401 301 L 402 301 L 403 302 L 403 302 L 404 303 L 404 303 L 405 304 L 406 304 L 406 305 L 407 305 L 408 306 L 408 306 L 409 307 L 409 307 L 410 307 L 411 308 L 411 308 L 412 309 L 413 309 L 413 310 L 414 310 L 414 311 L 415 311 L 416 312 L 416 312 L 417 313 L 418 313 L 418 314 L 419 314 L 419 314 L 420 315 L 421 315 L 421 316 L 422 316 L 423 317 L 423 317 L 424 318 L 424 318 L 425 319 L 426 319 L 426 320 L 427 320 L 428 321 L 428 321 L 429 322 L 429 322 L 430 322 L 431 323 L 431 323 L 432 324 L 433 324 L 433 325 L 434 325 L 434 326 L 435 326 L 436 327 L 436 327 L 437 328 L 438 328 L 438 329 L 439 329 L 439 329 L 440 330 L 441 330 L 441 331 L 442 331 L 443 332 L 443 332 L 444 333 L 444 333 L 445 334 L 446 334 L 446 335 L 447 335 L 448 336 L 448 336 L 449 337 L 449 337 L 450 337 L 451 338 L 451 338 L 452 339 L 453 339 L 453 340 L 454 340 L 454 341 L 455 341 L 456 342 L 456 342 L 457 343 L 458 343 L 458 344 L 459 344 L 459 344 L 460 345 L 461 345 L 461 346 L 462 346 L 463 347 L 463 347 L 464 348 L 464 348 L 465 349 L 466 349 L 466 350 L 467 350 L 468 351 L 468 351 L 469 352 L 469 352 L 470 352 L 471 353 L 471 353 L 472 354 L 473 354 L 473 355 L 474 355 L 474 356 L 475 356 L 476 357 L 476 357 L 477 358 L 478 358 L 478 359 L 479 359 L 479 359 L 480 360 L 481 360 L 481 361 L 482 361 L 483 362 L 483 362 L 484 363 L 484 363 L 485 364 L 486 364 L 486 365 L 487 365 L 488 366 L 488 366 L 489 367 L 489 367 L 490 367 L 491 368 L 491 368 L 492 369 L 493 369 L 493 370 L 494 370 L 494 371 L 495 371 L 496 372 L 496 372 L 497 373 L 498 373 L 498 374 L 499 374 L 499 374 " style="stroke:#8DC34E; stroke-width:5; stroke-linejoin:round; stroke-linecap:round; fill:rgba(0,0,0,0)"/><text x="62.5" y="280" text-anchor="middle" font-family="Nunito" font-size="22px" fill="#ccc">-3</text><text x="270" y="444.1" text-anchor="middle" font-family="Nunito" font-size="22px" fill="#ccc">-3</text><text x="125" y="280" text-anchor="middle" font-family="Nunito" font-size="22px" fill="#ccc">-2</text><text x="270" y="381.6" text-anchor="middle" font-family="Nunito" font-size="22px" fill="#ccc">-2</text><text x="187.5" y="280" text-anchor="middle" font-family="Nunito" font-size="22px" fill="#ccc">-1</text><text x="270" y="319.1" text-anchor="middle" font-family="Nunito" font-size="22px" fill="#ccc">-1</text><text x="267.6" y="280" text-anchor="middle" font-family="Nunito" font-size="22px" fill="#ccc">0</text><text x="267.6" y="280" text-anchor="middle" font-family="Nunito" font-size="22px" fill="#ccc">0</text><text x="312.5" y="280" text-anchor="middle" font-family="Nunito" font-size="22px" fill="#ccc">1</text><text x="270" y="194.1" text-anchor="middle" font-family="Nunito" font-size="22px" fill="#ccc">1</text><text x="375" y="280" text-anchor="middle" font-family="Nunito" font-size="22px" fill="#ccc">2</text><text x="270" y="131.6" text-anchor="middle" font-family="Nunito" font-size="22px" fill="#ccc">2</text><text x="437.5" y="280" text-anchor="middle" font-family="Nunito" font-size="22px" fill="#ccc">3</text><text x="270" y="69.1" text-anchor="middle" font-family="Nunito" font-size="22px" fill="#ccc">3</text></svg>