<svg xmlns="http://www.w3.org/2000/svg" width="500" height="500"><rect width="500" height="500" x="0" y="0" style="fill:#fff"/><path d="M 62 0 L 62 500" style="stroke:#f4f4f4; stroke-width:5; stroke-linejoin:round; stroke-linecap:round; fill:rgba(0,0,0,0)"/><path d="M 0 62 L 500 62" style="stroke:#f4f4f4; stroke-width:5; stroke-linejoin:round; stroke-linecap:round; fill:rgba(0,0,0,0)"/><path d="M 125 0 L 125 500" style="stroke:#f4f4f4; stroke-width:5; stroke-linejoin:round; stroke-linecap:round; fill:rgba(0,0,0,0)"/><path d="M 0 125 L 500 125" style="stroke:#f4f4f4; stroke-width:5; stroke-linejoin:round; stroke-linecap:round; fill:rgba(0,0,0,0)"/><path d="M 187 0 L 187 500" style="stroke:#f4f4f4; stroke-width:5; stroke-linejoin:round; stroke-linecap:round; fill:rgba(0,0,0,0)"/><path d="M 0 187 L 500 187" style="stroke:#f4f4f4; stroke-width:5; stroke-linejoin:round; stroke-linecap:round; fill:rgba(0,0,0,0)"/><path d="M 250 0 L 250 500" style="stroke:#f4f4f4; stroke-width:5; stroke-linejoin:round; stroke-linecap:round; fill:rgba(0,0,0,0)"/><path d="M 0 250 L 500 250" style="stroke:#f4f4f4; stroke-width:5; stroke-linejoin:round; stroke-linecap:round; fill:rgba(0,0,0,0)"/><path d="M 312 0 L 312 500" style="stroke:#f4f4f4; stroke-width:5; stroke-linejoin:round; stroke-linecap:round; fill:rgba(0,0,0,0)"/><path d="M 0 312 L 500 312" style="stroke:#f4f4f4; stroke-width:5; stroke-linejoin:round; stroke-linecap:round; fill:rgba(0,0,0,0)"/><path d="M 375 0 L 375 500" style="stroke:#f4f4f4; stroke-width:5; stroke-linejoin:round; stroke-linecap:round; fill:rgba(0,0,0,0)"/><path d="M 0 375 L 500 375" style="stroke:#f4f4f4; stroke-width:5; stroke-linejoin:round; stroke-linecap:round; fill:rgba(0,0,0,0)"/><path d="M 437 0 L 437 500" style="stroke:#f4f4f4; stroke-width:5; stroke-linejoin:round; stroke-linecap:round; fill:rgba(0,0,0,0)"/><path d="M 0 437 L 500 437" style="stroke:#f4f4f4; stroke-width:5; stroke-linejoin:round; stroke-linecap:round; fill:rgba(0,0,0,0)"/><path d="M 62 0 L 62 500" style="stroke:#f4f4f4; stroke-width:5; stroke-linejoin:round; stroke-linecap:round; fill:rgba(0,0,0,0)"/><path d="M 125 0 L 125 500" style="stroke:#f4f4f4; stroke-width:5; stroke-linejoin:round; stroke-linecap:round; fill:rgba(0,0,0,0)"/><path d="M 187 0 L 187 500" style="stroke:#f4f4f4; stroke-width:5; stroke-linejoin:round; stroke-linecap:round; fill:rgba(0,0,0,0)"/><path d="M 250 0 L 250 500" style="stroke:#f4f4f4; stroke-width:5; stroke-linejoin:round; stroke-linecap:round; fill:rgba(0,0,0,0)"/><path d="M 312 0 L 312 500" style="stroke:#f4f4f4; stroke-width:5; stroke-linejoin:round; stroke-linecap:round; fill:rgba(0,0,0,0)"/><path d="M 375 0 L 375 500" style="stroke:#f4f4f4; stroke-width:5; stroke-linejoin:round; stroke-linecap:round; fill:rgba(0,0,0,0)"/><path d="M 437 0 L 437 500" style="stroke:#f4f4f4; stroke-width:5; stroke-linejoin:round; stroke-linecap:round; fill:rgba(0,0,0,0)"/><path d="M 0 250 L 500 250" style="stroke:#ccc; stroke-width:5; stroke-linejoin:round; stroke-linecap:round; fill:rgba(0,0,0,0)"/><path d="M 250 0 L 250 500" style="stroke:#ccc; stroke-width:5; stroke-linejoin:round; stroke-linecap:round; fill:rgba(0,0,0,0)"/><path d="M 62 245 L 62 255" style="stroke:#ccc; stroke-width:5; stroke-linejoin:round; stroke-linecap:round; fill:rgba(0,0,0,0)"/><path d="M 245 437 L 255 437" style="stroke:#ccc; stroke-width:5; stroke-linejoin:round; stroke-linecap:round; fill:rgba(0,0,0,0)"/><path d="M 125 245 L 125 255" style="stroke:#ccc; stroke-width:5; stroke-linejoin:round; stroke-linecap:round; fill:rgba(0,0,0,0)"/><path d="M 245 375 L 255 375" style="stroke:#ccc; stroke-width:5; stroke-linejoin:round; stroke-linecap:round; fill:rgba(0,0,0,0)"/><path d="M 187 245 L 187 255" style="stroke:#ccc; stroke-width:5; stroke-linejoin:round; stroke-linecap:round; fill:rgba(0,0,0,0)"/><path d="M 245 312 L 255 312" style="stroke:#ccc; stroke-width:5; stroke-linejoin:round; stroke-linecap:round; fill:rgba(0,0,0,0)"/><path d="M 312 245 L 312 255" style="stroke:#ccc; stroke-width:5; stroke-linejoin:round; stroke-linecap:round; fill:rgba(0,0,0,0)"/><path d="M 245 187 L 255 187" style="stroke:#ccc; stroke-width:5; stroke-linejoin:round; stroke-linecap:round; fill:rgba(0,0,0,0)"/><path d="M 375 245 L 375 255" style="stroke:#ccc; stroke-width:5; stroke-linejoin:round; stroke-linecap:round; fill:rgba(0,0,0,0)"/><path d="M 245 125 L 255 125" style="stroke:#ccc; stroke-width:5; stroke-linejoin:round; stroke-linecap:round; fill:rgba(0,0,0,0)"/><path d="M 437 245 L 437 255" style="stroke:#ccc; stroke-width:5; stroke-linejoin:round; stroke-linecap:round; fill:rgba(0,0,0,0)"/><path d="M 245 62 L 255 62" style="stroke:#ccc; stroke-width:5; stroke-linejoin:round; stroke-linecap:round; fill:rgba(0,0,0,0)"/><path d="M 492 242 L 500 250" style="stroke:#ccc; stroke-width:5; stroke-linejoin:round; stroke-linecap:round; fill:rgba(0,0,0,0)"/><path d="M 492 257 L 500 250" style="stroke:#ccc; stroke-width:5; stroke-linejoin:round; stroke-linecap:round; fill:rgba(0,0,0,0)"/><path d="M 240 10 L 250 0" style="stroke:#ccc; stroke-width:5; stroke-linejoin:round; stroke-linecap:round; fill:rgba(0,0,0,0)"/><path d="M 260 10 L 250 0" style="stroke:#ccc; stroke-width:5; stroke-linejoin:round; stroke-linecap:round; fill:rgba(0,0,0,0)"/><path d="M 188 498 L 188 497 L 189 496 L 189 495 L 190 493 L 191 492 L 191 491 L 192 490 L 193 488 L 193 487 L 194 486 L 194 485 L 195 483 L 196 482 L 196 481 L 197 480 L 198 478 L 198 477 L 199 476 L 199 475 L 200 473 L 201 472 L 201 471 L 202 470 L 203 468 L 203 467 L 204 466 L 204 465 L 205 463 L 206 462 L 206 461 L 207 460 L 208 458 L 208 457 L 209 456 L 209 455 L 210 453 L 211 452 L 211 451 L 212 450 L 213 448 L 213 447 L 214 446 L 214 445 L 215 443 L 216 442 L 216 441 L 217 440 L 218 438 L 218 437 L 219 436 L 219 435 L 220 433 L 221 432 L 221 431 L 222 430 L 223 428 L 223 427 L 224 426 L 224 425 L 225 423 L 226 422 L 226 421 L 227 420 L 228 418 L 228 417 L 229 416 L 229 415 L 230 413 L 231 412 L 231 411 L 232 410 L 233 408 L 233 407 L 234 406 L 234 405 L 235 403 L 236 402 L 236 401 L 237 400 L 238 398 L 238 397 L 239 396 L 239 395 L 240 393 L 241 392 L 241 391 L 242 390 L 243 388 L 243 387 L 244 386 L 244 385 L 245 383 L 246 382 L 246 381 L 247 380 L 248 378 L 248 377 L 249 376 L 249 375 L 250 373 L 251 372 L 251 371 L 252 370 L 253 368 L 253 367 L 254 366 L 254 365 L 255 363 L 256 362 L 256 361 L 257 360 L 258 358 L 258 357 L 259 356 L 259 355 L 260 353 L 261 352 L 261 351 L 262 350 L 263 348 L 263 347 L 264 346 L 264 345 L 265 343 L 266 342 L 266 341 L 267 340 L 268 338 L 268 337 L 269 336 L 269 335 L 270 333 L 271 332 L 271 331 L 272 330 L 273 328 L 273 327 L 274 326 L 274 325 L 275 323 L 276 322 L 276 321 L 277 320 L 278 318 L 278 317 L 279 316 L 279 315 L 280 313 L 281 312 L 281 311 L 282 310 L 283 308 L 283 307 L 284 306 L 284 305 L 285 303 L 286 302 L 286 301 L 287 300 L 288 298 L 288 297 L 289 296 L 289 295 L 290 293 L 291 292 L 291 291 L 292 290 L 293 288 L 293 287 L 294 286 L 294 285 L 295 283 L 296 282 L 296 281 L 297 280 L 298 278 L 298 277 L 299 276 L 299 275 L 300 273 L 301 272 L 301 271 L 302 270 L 303 268 L 303 267 L 304 266 L 304 265 L 305 263 L 306 262 L 306 261 L 307 260 L 308 258 L 308 257 L 309 256 L 309 255 L 310 253 L 311 252 L 311 251 L 312 250 L 313 248 L 313 247 L 314 246 L 314 245 L 315 243 L 316 242 L 316 241 L 317 240 L 318 238 L 318 237 L 319 236 L 319 235 L 320 233 L 321 232 L 321 231 L 322 230 L 323 228 L 323 227 L 324 226 L 324 225 L 325 223 L 326 222 L 326 221 L 327 220 L 328 218 L 328 217 L 329 216 L 329 215 L 330 213 L 331 212 L 331 211 L 332 210 L 333 208 L 333 207 L 334 206 L 334 205 L 335 203 L 336 202 L 336 201 L 337 200 L 338 198 L 338 197 L 339 196 L 339 195 L 340 193 L 341 192 L 341 191 L 342 190 L 343 188 L 343 187 L 344 186 L 344 185 L 345 183 L 346 182 L 346 181 L 347 180 L 348 178 L 348 177 L 349 176 L 349 175 L 350 173 L 351 172 L 351 171 L 352 170 L 353 168 L 353 167 L 354 166 L 354 165 L 355 163 L 356 162 L 356 161 L 357 160 L 358 158 L 358 157 L 359 156 L 359 155 L 360 153 L 361 152 L 361 151 L 362 150 L 363 148 L 363 147 L 364 146 L 364 145 L 365 143 L 366 142 L 366 141 L 367 140 L 368 138 L 368 137 L 369 136 L 369 135 L 370 133 L 371 132 L 371 131 L 372 130 L 373 128 L 373 127 L 374 126 L 374 125 L 375 123 L 376 122 L 376 121 L 377 120 L 378 118 L 378 117 L 379 116 L 379 115 L 380 113 L 381 112 L 381 111 L 382 110 L 383 108 L 383 107 L 384 106 L 384 105 L 385 103 L 386 102 L 386 101 L 387 100 L 388 98 L 388 97 L 389 96 L 389 95 L 390 93 L 391 92 L 391 91 L 392 90 L 393 88 L 393 87 L 394 86 L 394 85 L 395 83 L 396 82 L 396 81 L 397 80 L 398 78 L 398 77 L 399 76 L 399 75 L 400 73 L 401 72 L 401 71 L 402 70 L 403 68 L 403 67 L 404 66 L 404 65 L 405 63 L 406 62 L 406 61 L 407 60 L 408 58 L 408 57 L 409 56 L 409 55 L 410 53 L 411 52 L 411 51 L 412 50 L 413 48 L 413 47 L 414 46 L 414 45 L 415 43 L 416 42 L 416 41 L 417 40 L 418 38 L 418 37 L 419 36 L 419 35 L 420 33 L 421 32 L 421 31 L 422 30 L 423 28 L 423 27 L 424 26 L 424 25 L 425 23 L 426 22 L 426 21 L 427 20 L 428 18 L 428 17 L 429 16 L 429 15 L 430 13 L 431 12 L 431 11 L 432 10 L 433 8 L 433 7 L 434 6 L 434 5 L 435 3 L 436 2 L 436 1 L 437 0 " style="stroke:#8DC34E; stroke-width:5; stroke-linejoin:round; stroke-linecap:round; fill:rgba(0,0,0,0)"/><path d="" style="stroke:#8DC34E; stroke-width:5; stroke-linejoin:round; stroke-linecap:round; fill:rgba(0,0,0,0)"/><text x="62.5" y="280" text-anchor="middle" font-family="Nunito" font-size="22px" fill="#ccc">-3</text><text x="270" y="444.1" text-anchor="middle" font-family="Nunito" font-size="22px" fill="#ccc">-3</text><text x="125" y="280" text-anchor="middle" font-family="Nunito" font-size="22px" fill="#ccc">-2</text><text x="270" y="381.6" text-anchor="middle" font-family="Nunito" font-size="22px" fill="#ccc">-2</text><text x="187.5" y="280" text-anchor="middle" font-family="Nunito" font-size="22px" fill="#ccc">-1</text><text x="270" y="319.1" text-anchor="middle" font-family="Nunito" font-size="22px" fill="#ccc">-1</text><text x="267.6" y="280" text-anchor="middle" font-family="Nunito" font-size="22px" fill="#ccc">0</text><text x="267.6" y="280" text-anchor="middle" font-family="Nunito" font-size="22px" fill="#ccc">0</text><text x="312.5" y="280" text-anchor="middle" font-family="Nunito" font-size="22px" fill="#ccc">1</text><text x="270" y="194.1" text-anchor="middle" font-family="Nunito" font-size="22px" fill="#ccc">1</text><text x="375" y="280" text-anchor="middle" font-family="Nunito" font-size="22px" fill="#ccc">2</text><text x="270" y="131.6" text-anchor="middle" font-family="Nunito" font-size="22px" fill="#ccc">2</text><text x="437.5" y="280" text-anchor="middle" font-family="Nunito" font-size="22px" fill="#ccc">3</text><text x="270" y="69.1" text-anchor="middle" font-family="Nunito" font-size="22px" fill="#ccc">3</text></svg>