<svg xmlns="http://www.w3.org/2000/svg" width="500" height="500"><rect width="500" height="500" x="0" y="0" style="fill:#fff"/><path d="M 62 0 L 62 500" style="stroke:#f4f4f4; stroke-width:5; stroke-linejoin:round; stroke-linecap:round; fill:rgba(0,0,0,0)"/><path d="M 0 62 L 500 62" style="stroke:#f4f4f4; stroke-width:5; stroke-linejoin:round; stroke-linecap:round; fill:rgba(0,0,0,0)"/><path d="M 125 0 L 125 500" style="stroke:#f4f4f4; stroke-width:5; stroke-linejoin:round; stroke-linecap:round; fill:rgba(0,0,0,0)"/><path d="M 0 125 L 500 125" style="stroke:#f4f4f4; stroke-width:5; stroke-linejoin:round; stroke-linecap:round; fill:rgba(0,0,0,0)"/><path d="M 187 0 L 187 500" style="stroke:#f4f4f4; stroke-width:5; stroke-linejoin:round; stroke-linecap:round; fill:rgba(0,0,0,0)"/><path d="M 0 187 L 500 187" style="stroke:#f4f4f4; stroke-width:5; stroke-linejoin:round; stroke-linecap:round; fill:rgba(0,0,0,0)"/><path d="M 250 0 L 250 500" style="stroke:#f4f4f4; stroke-width:5; stroke-linejoin:round; stroke-linecap:round; fill:rgba(0,0,0,0)"/><path d="M 0 250 L 500 250" style="stroke:#f4f4f4; stroke-width:5; stroke-linejoin:round; stroke-linecap:round; fill:rgba(0,0,0,0)"/><path d="M 312 0 L 312 500" style="stroke:#f4f4f4; stroke-width:5; stroke-linejoin:round; stroke-linecap:round; fill:rgba(0,0,0,0)"/><path d="M 0 312 L 500 312" style="stroke:#f4f4f4; stroke-width:5; stroke-linejoin:round; stroke-linecap:round; fill:rgba(0,0,0,0)"/><path d="M 375 0 L 375 500" style="stroke:#f4f4f4; stroke-width:5; stroke-linejoin:round; stroke-linecap:round; fill:rgba(0,0,0,0)"/><path d="M 0 375 L 500 375" style="stroke:#f4f4f4; stroke-width:5; stroke-linejoin:round; stroke-linecap:round; fill:rgba(0,0,0,0)"/><path d="M 437 0 L 437 500" style="stroke:#f4f4f4; stroke-width:5; stroke-linejoin:round; stroke-linecap:round; fill:rgba(0,0,0,0)"/><path d="M 0 437 L 500 437" style="stroke:#f4f4f4; stroke-width:5; stroke-linejoin:round; stroke-linecap:round; fill:rgba(0,0,0,0)"/><path d="M 62 0 L 62 500" style="stroke:#f4f4f4; stroke-width:5; stroke-linejoin:round; stroke-linecap:round; fill:rgba(0,0,0,0)"/><path d="M 125 0 L 125 500" style="stroke:#f4f4f4; stroke-width:5; stroke-linejoin:round; stroke-linecap:round; fill:rgba(0,0,0,0)"/><path d="M 187 0 L 187 500" style="stroke:#f4f4f4; stroke-width:5; stroke-linejoin:round; stroke-linecap:round; fill:rgba(0,0,0,0)"/><path d="M 250 0 L 250 500" style="stroke:#f4f4f4; stroke-width:5; stroke-linejoin:round; stroke-linecap:round; fill:rgba(0,0,0,0)"/><path d="M 312 0 L 312 500" style="stroke:#f4f4f4; stroke-width:5; stroke-linejoin:round; stroke-linecap:round; fill:rgba(0,0,0,0)"/><path d="M 375 0 L 375 500" style="stroke:#f4f4f4; stroke-width:5; stroke-linejoin:round; stroke-linecap:round; fill:rgba(0,0,0,0)"/><path d="M 437 0 L 437 500" style="stroke:#f4f4f4; stroke-width:5; stroke-linejoin:round; stroke-linecap:round; fill:rgba(0,0,0,0)"/><path d="M 0 250 L 500 250" style="stroke:#ccc; stroke-width:5; stroke-linejoin:round; stroke-linecap:round; fill:rgba(0,0,0,0)"/><path d="M 250 0 L 250 500" style="stroke:#ccc; stroke-width:5; stroke-linejoin:round; stroke-linecap:round; fill:rgba(0,0,0,0)"/><path d="M 62 245 L 62 255" style="stroke:#ccc; stroke-width:5; stroke-linejoin:round; stroke-linecap:round; fill:rgba(0,0,0,0)"/><path d="M 245 437 L 255 437" style="stroke:#ccc; stroke-width:5; stroke-linejoin:round; stroke-linecap:round; fill:rgba(0,0,0,0)"/><path d="M 125 245 L 125 255" style="stroke:#ccc; stroke-width:5; stroke-linejoin:round; stroke-linecap:round; fill:rgba(0,0,0,0)"/><path d="M 245 375 L 255 375" style="stroke:#ccc; stroke-width:5; stroke-linejoin:round; stroke-linecap:round; fill:rgba(0,0,0,0)"/><path d="M 187 245 L 187 255" style="stroke:#ccc; stroke-width:5; stroke-linejoin:round; stroke-linecap:round; fill:rgba(0,0,0,0)"/><path d="M 245 312 L 255 312" style="stroke:#ccc; stroke-width:5; stroke-linejoin:round; stroke-linecap:round; fill:rgba(0,0,0,0)"/><path d="M 312 245 L 312 255" style="stroke:#ccc; stroke-width:5; stroke-linejoin:round; stroke-linecap:round; fill:rgba(0,0,0,0)"/><path d="M 245 187 L 255 187" style="stroke:#ccc; stroke-width:5; stroke-linejoin:round; stroke-linecap:round; fill:rgba(0,0,0,0)"/><path d="M 375 245 L 375 255" style="stroke:#ccc; stroke-width:5; stroke-linejoin:round; stroke-linecap:round; fill:rgba(0,0,0,0)"/><path d="M 245 125 L 255 125" style="stroke:#ccc; stroke-width:5; stroke-linejoin:round; stroke-linecap:round; fill:rgba(0,0,0,0)"/><path d="M 437 245 L 437 255" style="stroke:#ccc; stroke-width:5; stroke-linejoin:round; stroke-linecap:round; fill:rgba(0,0,0,0)"/><path d="M 245 62 L 255 62" style="stroke:#ccc; stroke-width:5; stroke-linejoin:round; stroke-linecap:round; fill:rgba(0,0,0,0)"/><path d="M 492 242 L 500 250" style="stroke:#ccc; stroke-width:5; stroke-linejoin:round; stroke-linecap:round; fill:rgba(0,0,0,0)"/><path d="M 492 257 L 500 250" style="stroke:#ccc; stroke-width:5; stroke-linejoin:round; stroke-linecap:round; fill:rgba(0,0,0,0)"/><path d="M 240 10 L 250 0" style="stroke:#ccc; stroke-width:5; stroke-linejoin:round; stroke-linecap:round; fill:rgba(0,0,0,0)"/><path d="M 260 10 L 250 0" style="stroke:#ccc; stroke-width:5; stroke-linejoin:round; stroke-linecap:round; fill:rgba(0,0,0,0)"/><path d="M 0 500 L 0 499 L 1 498 L 1 498 L 2 497 L 3 496 L 3 496 L 4 495 L 4 495 L 5 494 L 6 493 L 6 493 L 7 492 L 8 491 L 8 491 L 9 490 L 9 490 L 10 489 L 11 488 L 11 488 L 12 487 L 13 486 L 13 486 L 14 485 L 14 485 L 15 484 L 16 483 L 16 483 L 17 482 L 18 481 L 18 481 L 19 480 L 19 480 L 20 479 L 21 478 L 21 478 L 22 477 L 23 476 L 23 476 L 24 475 L 24 475 L 25 474 L 26 473 L 26 473 L 27 472 L 28 471 L 28 471 L 29 470 L 29 470 L 30 469 L 31 468 L 31 468 L 32 467 L 33 466 L 33 466 L 34 465 L 34 465 L 35 464 L 36 463 L 36 463 L 37 462 L 38 461 L 38 461 L 39 460 L 39 460 L 40 459 L 41 458 L 41 458 L 42 457 L 43 456 L 43 456 L 44 455 L 44 455 L 45 454 L 46 453 L 46 453 L 47 452 L 48 451 L 48 451 L 49 450 L 49 450 L 50 449 L 51 448 L 51 448 L 52 447 L 53 446 L 53 446 L 54 445 L 54 445 L 55 444 L 56 443 L 56 443 L 57 442 L 58 441 L 58 441 L 59 440 L 59 440 L 60 439 L 61 438 L 61 438 L 62 437 L 63 436 L 63 436 L 64 435 L 64 435 L 65 434 L 66 433 L 66 433 L 67 432 L 68 431 L 68 431 L 69 430 L 69 430 L 70 429 L 71 428 L 71 428 L 72 427 L 73 426 L 73 426 L 74 425 L 74 425 L 75 424 L 76 423 L 76 423 L 77 422 L 78 421 L 78 421 L 79 420 L 79 420 L 80 419 L 81 418 L 81 418 L 82 417 L 83 416 L 83 416 L 84 415 L 84 415 L 85 414 L 86 413 L 86 413 L 87 412 L 88 411 L 88 411 L 89 410 L 89 410 L 90 409 L 91 408 L 91 408 L 92 407 L 93 406 L 93 406 L 94 405 L 94 405 L 95 404 L 96 403 L 96 403 L 97 402 L 98 401 L 98 401 L 99 400 L 99 400 L 100 399 L 101 398 L 101 398 L 102 397 L 103 396 L 103 396 L 104 395 L 104 395 L 105 394 L 106 393 L 106 393 L 107 392 L 108 391 L 108 391 L 109 390 L 109 390 L 110 389 L 111 388 L 111 388 L 112 387 L 113 386 L 113 386 L 114 385 L 114 385 L 115 384 L 116 383 L 116 383 L 117 382 L 118 381 L 118 381 L 119 380 L 119 380 L 120 379 L 121 378 L 121 378 L 122 377 L 123 376 L 123 376 L 124 375 L 124 375 L 125 374 L 126 373 L 126 373 L 127 372 L 128 371 L 128 371 L 129 370 L 129 370 L 130 369 L 131 368 L 131 368 L 132 367 L 133 366 L 133 366 L 134 365 L 134 365 L 135 364 L 136 363 L 136 363 L 137 362 L 138 361 L 138 361 L 139 360 L 139 360 L 140 359 L 141 358 L 141 358 L 142 357 L 143 356 L 143 356 L 144 355 L 144 355 L 145 354 L 146 353 L 146 353 L 147 352 L 148 351 L 148 351 L 149 350 L 149 350 L 150 349 L 151 348 L 151 348 L 152 347 L 153 346 L 153 346 L 154 345 L 154 345 L 155 344 L 156 343 L 156 343 L 157 342 L 158 341 L 158 341 L 159 340 L 159 340 L 160 339 L 161 338 L 161 338 L 162 337 L 163 336 L 163 336 L 164 335 L 164 335 L 165 334 L 166 333 L 166 333 L 167 332 L 168 331 L 168 331 L 169 330 L 169 330 L 170 329 L 171 328 L 171 328 L 172 327 L 173 326 L 173 326 L 174 325 L 174 325 L 175 324 L 176 323 L 176 323 L 177 322 L 178 321 L 178 321 L 179 320 L 179 320 L 180 319 L 181 318 L 181 318 L 182 317 L 183 316 L 183 316 L 184 315 L 184 315 L 185 314 L 186 313 L 186 313 L 187 312 L 188 311 L 188 311 L 189 310 L 189 310 L 190 309 L 191 308 L 191 308 L 192 307 L 193 306 L 193 306 L 194 305 L 194 305 L 195 304 L 196 303 L 196 303 L 197 302 L 198 301 L 198 301 L 199 300 L 199 300 L 200 299 L 201 298 L 201 298 L 202 297 L 203 296 L 203 296 L 204 295 L 204 295 L 205 294 L 206 293 L 206 293 L 207 292 L 208 291 L 208 291 L 209 290 L 209 290 L 210 289 L 211 288 L 211 288 L 212 287 L 213 286 L 213 286 L 214 285 L 214 285 L 215 284 L 216 283 L 216 283 L 217 282 L 218 281 L 218 281 L 219 280 L 219 280 L 220 279 L 221 278 L 221 278 L 222 277 L 223 276 L 223 276 L 224 275 L 224 275 L 225 274 L 226 273 L 226 273 L 227 272 L 228 271 L 228 271 L 229 270 L 229 270 L 230 269 L 231 268 L 231 268 L 232 267 L 233 266 L 233 266 L 234 265 L 234 265 L 235 264 L 236 263 L 236 263 L 237 262 L 238 261 L 238 261 L 239 260 L 239 260 L 240 259 L 241 258 L 241 258 L 242 257 L 243 256 L 243 256 L 244 255 L 244 255 L 245 254 L 246 253 L 246 253 L 247 252 L 248 251 L 248 251 L 249 250 L 249 250 L 250 249 L 251 248 L 251 248 L 252 247 L 253 246 L 253 246 L 254 245 L 254 245 L 255 244 L 256 243 L 256 243 L 257 242 L 258 241 L 258 241 L 259 240 L 259 240 L 260 239 L 261 238 L 261 238 L 262 237 L 263 236 L 263 236 L 264 235 L 264 235 L 265 234 L 266 233 L 266 233 L 267 232 L 268 231 L 268 231 L 269 230 L 269 230 L 270 229 L 271 228 L 271 228 L 272 227 L 273 226 L 273 226 L 274 225 L 274 225 L 275 224 L 276 223 L 276 223 L 277 222 L 278 221 L 278 221 L 279 220 L 279 220 L 280 219 L 281 218 L 281 218 L 282 217 L 283 216 L 283 216 L 284 215 L 284 215 L 285 214 L 286 213 L 286 213 L 287 212 L 288 211 L 288 211 L 289 210 L 289 210 L 290 209 L 291 208 L 291 208 L 292 207 L 293 206 L 293 206 L 294 205 L 294 205 L 295 204 L 296 203 L 296 203 L 297 202 L 298 201 L 298 201 L 299 200 L 299 200 L 300 199 L 301 198 L 301 198 L 302 197 L 303 196 L 303 196 L 304 195 L 304 195 L 305 194 L 306 193 L 306 193 L 307 192 L 308 191 L 308 191 L 309 190 L 309 190 L 310 189 L 311 188 L 311 188 L 312 187 L 313 186 L 313 186 L 314 185 L 314 185 L 315 184 L 316 183 L 316 183 L 317 182 L 318 181 L 318 181 L 319 180 L 319 180 L 320 179 L 321 178 L 321 178 L 322 177 L 323 176 L 323 176 L 324 175 L 324 175 L 325 174 L 326 173 L 326 173 L 327 172 L 328 171 L 328 171 L 329 170 L 329 170 L 330 169 L 331 168 L 331 168 L 332 167 L 333 166 L 333 166 L 334 165 L 334 165 L 335 164 L 336 163 L 336 163 L 337 162 L 338 161 L 338 161 L 339 160 L 339 160 L 340 159 L 341 158 L 341 158 L 342 157 L 343 156 L 343 156 L 344 155 L 344 155 L 345 154 L 346 153 L 346 153 L 347 152 L 348 151 L 348 151 L 349 150 L 349 150 L 350 149 L 351 148 L 351 148 L 352 147 L 353 146 L 353 146 L 354 145 L 354 145 L 355 144 L 356 143 L 356 143 L 357 142 L 358 141 L 358 141 L 359 140 L 359 140 L 360 139 L 361 138 L 361 138 L 362 137 L 363 136 L 363 136 L 364 135 L 364 135 L 365 134 L 366 133 L 366 133 L 367 132 L 368 131 L 368 131 L 369 130 L 369 130 L 370 129 L 371 128 L 371 128 L 372 127 L 373 126 L 373 126 L 374 125 L 374 125 L 375 124 L 376 123 L 376 123 L 377 122 L 378 121 L 378 121 L 379 120 L 379 120 L 380 119 L 381 118 L 381 118 L 382 117 L 383 116 L 383 116 L 384 115 L 384 115 L 385 114 L 386 113 L 386 113 L 387 112 L 388 111 L 388 111 L 389 110 L 389 110 L 390 109 L 391 108 L 391 108 L 392 107 L 393 106 L 393 106 L 394 105 L 394 105 L 395 104 L 396 103 L 396 103 L 397 102 L 398 101 L 398 101 L 399 100 L 399 100 L 400 99 L 401 98 L 401 98 L 402 97 L 403 96 L 403 96 L 404 95 L 404 95 L 405 94 L 406 93 L 406 93 L 407 92 L 408 91 L 408 91 L 409 90 L 409 90 L 410 89 L 411 88 L 411 88 L 412 87 L 413 86 L 413 86 L 414 85 L 414 85 L 415 84 L 416 83 L 416 83 L 417 82 L 418 81 L 418 81 L 419 80 L 419 80 L 420 79 L 421 78 L 421 78 L 422 77 L 423 76 L 423 76 L 424 75 L 424 75 L 425 74 L 426 73 L 426 73 L 427 72 L 428 71 L 428 71 L 429 70 L 429 70 L 430 69 L 431 68 L 431 68 L 432 67 L 433 66 L 433 66 L 434 65 L 434 65 L 435 64 L 436 63 L 436 63 L 437 62 L 438 61 L 438 61 L 439 60 L 439 60 L 440 59 L 441 58 L 441 58 L 442 57 L 443 56 L 443 56 L 444 55 L 444 55 L 445 54 L 446 53 L 446 53 L 447 52 L 448 51 L 448 51 L 449 50 L 449 50 L 450 49 L 451 48 L 451 48 L 452 47 L 453 46 L 453 46 L 454 45 L 454 45 L 455 44 L 456 43 L 456 43 L 457 42 L 458 41 L 458 41 L 459 40 L 459 40 L 460 39 L 461 38 L 461 38 L 462 37 L 463 36 L 463 36 L 464 35 L 464 35 L 465 34 L 466 33 L 466 33 L 467 32 L 468 31 L 468 31 L 469 30 L 469 30 L 470 29 L 471 28 L 471 28 L 472 27 L 473 26 L 473 26 L 474 25 L 474 25 L 475 24 L 476 23 L 476 23 L 477 22 L 478 21 L 478 21 L 479 20 L 479 20 L 480 19 L 481 18 L 481 18 L 482 17 L 483 16 L 483 16 L 484 15 L 484 15 L 485 14 L 486 13 L 486 13 L 487 12 L 488 11 L 488 11 L 489 10 L 489 10 L 490 9 L 491 8 L 491 8 L 492 7 L 493 6 L 493 6 L 494 5 L 494 5 L 495 4 L 496 3 L 496 3 L 497 2 L 498 1 L 498 1 L 499 0 L 499 0 " style="stroke:#8DC34E; stroke-width:5; stroke-linejoin:round; stroke-linecap:round; fill:rgba(0,0,0,0)"/><text x="62.5" y="280" text-anchor="middle" font-family="Nunito" font-size="22px" fill="#ccc">-3</text><text x="270" y="444.1" text-anchor="middle" font-family="Nunito" font-size="22px" fill="#ccc">-3</text><text x="125" y="280" text-anchor="middle" font-family="Nunito" font-size="22px" fill="#ccc">-2</text><text x="270" y="381.6" text-anchor="middle" font-family="Nunito" font-size="22px" fill="#ccc">-2</text><text x="187.5" y="280" text-anchor="middle" font-family="Nunito" font-size="22px" fill="#ccc">-1</text><text x="270" y="319.1" text-anchor="middle" font-family="Nunito" font-size="22px" fill="#ccc">-1</text><text x="267.6" y="280" text-anchor="middle" font-family="Nunito" font-size="22px" fill="#ccc">0</text><text x="267.6" y="280" text-anchor="middle" font-family="Nunito" font-size="22px" fill="#ccc">0</text><text x="312.5" y="280" text-anchor="middle" font-family="Nunito" font-size="22px" fill="#ccc">1</text><text x="270" y="194.1" text-anchor="middle" font-family="Nunito" font-size="22px" fill="#ccc">1</text><text x="375" y="280" text-anchor="middle" font-family="Nunito" font-size="22px" fill="#ccc">2</text><text x="270" y="131.6" text-anchor="middle" font-family="Nunito" font-size="22px" fill="#ccc">2</text><text x="437.5" y="280" text-anchor="middle" font-family="Nunito" font-size="22px" fill="#ccc">3</text><text x="270" y="69.1" text-anchor="middle" font-family="Nunito" font-size="22px" fill="#ccc">3</text></svg>