<svg xmlns="http://www.w3.org/2000/svg" width="500" height="500"><rect width="500" height="500" x="0" y="0" style="fill:#fff"/><path d="M 62 0 L 62 500" style="stroke:#f4f4f4; stroke-width:5; stroke-linejoin:round; stroke-linecap:round; fill:rgba(0,0,0,0)"/><path d="M 0 62 L 500 62" style="stroke:#f4f4f4; stroke-width:5; stroke-linejoin:round; stroke-linecap:round; fill:rgba(0,0,0,0)"/><path d="M 125 0 L 125 500" style="stroke:#f4f4f4; stroke-width:5; stroke-linejoin:round; stroke-linecap:round; fill:rgba(0,0,0,0)"/><path d="M 0 125 L 500 125" style="stroke:#f4f4f4; stroke-width:5; stroke-linejoin:round; stroke-linecap:round; fill:rgba(0,0,0,0)"/><path d="M 187 0 L 187 500" style="stroke:#f4f4f4; stroke-width:5; stroke-linejoin:round; stroke-linecap:round; fill:rgba(0,0,0,0)"/><path d="M 0 187 L 500 187" style="stroke:#f4f4f4; stroke-width:5; stroke-linejoin:round; stroke-linecap:round; fill:rgba(0,0,0,0)"/><path d="M 250 0 L 250 500" style="stroke:#f4f4f4; stroke-width:5; stroke-linejoin:round; stroke-linecap:round; fill:rgba(0,0,0,0)"/><path d="M 0 250 L 500 250" style="stroke:#f4f4f4; stroke-width:5; stroke-linejoin:round; stroke-linecap:round; fill:rgba(0,0,0,0)"/><path d="M 312 0 L 312 500" style="stroke:#f4f4f4; stroke-width:5; stroke-linejoin:round; stroke-linecap:round; fill:rgba(0,0,0,0)"/><path d="M 0 312 L 500 312" style="stroke:#f4f4f4; stroke-width:5; stroke-linejoin:round; stroke-linecap:round; fill:rgba(0,0,0,0)"/><path d="M 375 0 L 375 500" style="stroke:#f4f4f4; stroke-width:5; stroke-linejoin:round; stroke-linecap:round; fill:rgba(0,0,0,0)"/><path d="M 0 375 L 500 375" style="stroke:#f4f4f4; stroke-width:5; stroke-linejoin:round; stroke-linecap:round; fill:rgba(0,0,0,0)"/><path d="M 437 0 L 437 500" style="stroke:#f4f4f4; stroke-width:5; stroke-linejoin:round; stroke-linecap:round; fill:rgba(0,0,0,0)"/><path d="M 0 437 L 500 437" style="stroke:#f4f4f4; stroke-width:5; stroke-linejoin:round; stroke-linecap:round; fill:rgba(0,0,0,0)"/><path d="M 62 0 L 62 500" style="stroke:#f4f4f4; stroke-width:5; stroke-linejoin:round; stroke-linecap:round; fill:rgba(0,0,0,0)"/><path d="M 125 0 L 125 500" style="stroke:#f4f4f4; stroke-width:5; stroke-linejoin:round; stroke-linecap:round; fill:rgba(0,0,0,0)"/><path d="M 187 0 L 187 500" style="stroke:#f4f4f4; stroke-width:5; stroke-linejoin:round; stroke-linecap:round; fill:rgba(0,0,0,0)"/><path d="M 250 0 L 250 500" style="stroke:#f4f4f4; stroke-width:5; stroke-linejoin:round; stroke-linecap:round; fill:rgba(0,0,0,0)"/><path d="M 312 0 L 312 500" style="stroke:#f4f4f4; stroke-width:5; stroke-linejoin:round; stroke-linecap:round; fill:rgba(0,0,0,0)"/><path d="M 375 0 L 375 500" style="stroke:#f4f4f4; stroke-width:5; stroke-linejoin:round; stroke-linecap:round; fill:rgba(0,0,0,0)"/><path d="M 437 0 L 437 500" style="stroke:#f4f4f4; stroke-width:5; stroke-linejoin:round; stroke-linecap:round; fill:rgba(0,0,0,0)"/><path d="M 0 250 L 500 250" style="stroke:#ccc; stroke-width:5; stroke-linejoin:round; stroke-linecap:round; fill:rgba(0,0,0,0)"/><path d="M 250 0 L 250 500" style="stroke:#ccc; stroke-width:5; stroke-linejoin:round; stroke-linecap:round; fill:rgba(0,0,0,0)"/><path d="M 62 245 L 62 255" style="stroke:#ccc; stroke-width:5; stroke-linejoin:round; stroke-linecap:round; fill:rgba(0,0,0,0)"/><path d="M 245 437 L 255 437" style="stroke:#ccc; stroke-width:5; stroke-linejoin:round; stroke-linecap:round; fill:rgba(0,0,0,0)"/><path d="M 125 245 L 125 255" style="stroke:#ccc; stroke-width:5; stroke-linejoin:round; stroke-linecap:round; fill:rgba(0,0,0,0)"/><path d="M 245 375 L 255 375" style="stroke:#ccc; stroke-width:5; stroke-linejoin:round; stroke-linecap:round; fill:rgba(0,0,0,0)"/><path d="M 187 245 L 187 255" style="stroke:#ccc; stroke-width:5; stroke-linejoin:round; stroke-linecap:round; fill:rgba(0,0,0,0)"/><path d="M 245 312 L 255 312" style="stroke:#ccc; stroke-width:5; stroke-linejoin:round; stroke-linecap:round; fill:rgba(0,0,0,0)"/><path d="M 312 245 L 312 255" style="stroke:#ccc; stroke-width:5; stroke-linejoin:round; stroke-linecap:round; fill:rgba(0,0,0,0)"/><path d="M 245 187 L 255 187" style="stroke:#ccc; stroke-width:5; stroke-linejoin:round; stroke-linecap:round; fill:rgba(0,0,0,0)"/><path d="M 375 245 L 375 255" style="stroke:#ccc; stroke-width:5; stroke-linejoin:round; stroke-linecap:round; fill:rgba(0,0,0,0)"/><path d="M 245 125 L 255 125" style="stroke:#ccc; stroke-width:5; stroke-linejoin:round; stroke-linecap:round; fill:rgba(0,0,0,0)"/><path d="M 437 245 L 437 255" style="stroke:#ccc; stroke-width:5; stroke-linejoin:round; stroke-linecap:round; fill:rgba(0,0,0,0)"/><path d="M 245 62 L 255 62" style="stroke:#ccc; stroke-width:5; stroke-linejoin:round; stroke-linecap:round; fill:rgba(0,0,0,0)"/><path d="M 492 242 L 500 250" style="stroke:#ccc; stroke-width:5; stroke-linejoin:round; stroke-linecap:round; fill:rgba(0,0,0,0)"/><path d="M 492 257 L 500 250" style="stroke:#ccc; stroke-width:5; stroke-linejoin:round; stroke-linecap:round; fill:rgba(0,0,0,0)"/><path d="M 240 10 L 250 0" style="stroke:#ccc; stroke-width:5; stroke-linejoin:round; stroke-linecap:round; fill:rgba(0,0,0,0)"/><path d="M 260 10 L 250 0" style="stroke:#ccc; stroke-width:5; stroke-linejoin:round; stroke-linecap:round; fill:rgba(0,0,0,0)"/><path d="M 0 0 L 0 0 L 1 1 L 1 1 L 2 2 L 3 3 L 3 3 L 4 4 L 4 4 L 5 5 L 6 6 L 6 6 L 7 7 L 8 8 L 8 8 L 9 9 L 9 9 L 10 10 L 11 11 L 11 11 L 12 12 L 13 13 L 13 13 L 14 14 L 14 14 L 15 15 L 16 16 L 16 16 L 17 17 L 18 18 L 18 18 L 19 19 L 19 19 L 20 20 L 21 21 L 21 21 L 22 22 L 23 23 L 23 23 L 24 24 L 24 24 L 25 25 L 26 26 L 26 26 L 27 27 L 28 28 L 28 28 L 29 29 L 29 29 L 30 30 L 31 31 L 31 31 L 32 32 L 33 33 L 33 33 L 34 34 L 34 34 L 35 35 L 36 36 L 36 36 L 37 37 L 38 38 L 38 38 L 39 39 L 39 39 L 40 40 L 41 41 L 41 41 L 42 42 L 43 43 L 43 43 L 44 44 L 44 44 L 45 45 L 46 46 L 46 46 L 47 47 L 48 48 L 48 48 L 49 49 L 49 49 L 50 50 L 51 51 L 51 51 L 52 52 L 53 53 L 53 53 L 54 54 L 54 54 L 55 55 L 56 56 L 56 56 L 57 57 L 58 58 L 58 58 L 59 59 L 59 59 L 60 60 L 61 61 L 61 61 L 62 62 L 63 63 L 63 63 L 64 64 L 64 64 L 65 65 L 66 66 L 66 66 L 67 67 L 68 68 L 68 68 L 69 69 L 69 69 L 70 70 L 71 71 L 71 71 L 72 72 L 73 73 L 73 73 L 74 74 L 74 74 L 75 75 L 76 76 L 76 76 L 77 77 L 78 78 L 78 78 L 79 79 L 79 79 L 80 80 L 81 81 L 81 81 L 82 82 L 83 83 L 83 83 L 84 84 L 84 84 L 85 85 L 86 86 L 86 86 L 87 87 L 88 88 L 88 88 L 89 89 L 89 89 L 90 90 L 91 91 L 91 91 L 92 92 L 93 93 L 93 93 L 94 94 L 94 94 L 95 95 L 96 96 L 96 96 L 97 97 L 98 98 L 98 98 L 99 99 L 99 99 L 100 100 L 101 101 L 101 101 L 102 102 L 103 103 L 103 103 L 104 104 L 104 104 L 105 105 L 106 106 L 106 106 L 107 107 L 108 108 L 108 108 L 109 109 L 109 109 L 110 110 L 111 111 L 111 111 L 112 112 L 113 113 L 113 113 L 114 114 L 114 114 L 115 115 L 116 116 L 116 116 L 117 117 L 118 118 L 118 118 L 119 119 L 119 119 L 120 120 L 121 121 L 121 121 L 122 122 L 123 123 L 123 123 L 124 124 L 124 124 L 125 125 L 126 126 L 126 126 L 127 127 L 128 128 L 128 128 L 129 129 L 129 129 L 130 130 L 131 131 L 131 131 L 132 132 L 133 133 L 133 133 L 134 134 L 134 134 L 135 135 L 136 136 L 136 136 L 137 137 L 138 138 L 138 138 L 139 139 L 139 139 L 140 140 L 141 141 L 141 141 L 142 142 L 143 143 L 143 143 L 144 144 L 144 144 L 145 145 L 146 146 L 146 146 L 147 147 L 148 148 L 148 148 L 149 149 L 149 149 L 150 150 L 151 151 L 151 151 L 152 152 L 153 153 L 153 153 L 154 154 L 154 154 L 155 155 L 156 156 L 156 156 L 157 157 L 158 158 L 158 158 L 159 159 L 159 159 L 160 160 L 161 161 L 161 161 L 162 162 L 163 163 L 163 163 L 164 164 L 164 164 L 165 165 L 166 166 L 166 166 L 167 167 L 168 168 L 168 168 L 169 169 L 169 169 L 170 170 L 171 171 L 171 171 L 172 172 L 173 173 L 173 173 L 174 174 L 174 174 L 175 175 L 176 176 L 176 176 L 177 177 L 178 178 L 178 178 L 179 179 L 179 179 L 180 180 L 181 181 L 181 181 L 182 182 L 183 183 L 183 183 L 184 184 L 184 184 L 185 185 L 186 186 L 186 186 L 187 187 L 188 188 L 188 188 L 189 189 L 189 189 L 190 190 L 191 191 L 191 191 L 192 192 L 193 193 L 193 193 L 194 194 L 194 194 L 195 195 L 196 196 L 196 196 L 197 197 L 198 198 L 198 198 L 199 199 L 199 199 L 200 200 L 201 201 L 201 201 L 202 202 L 203 203 L 203 203 L 204 204 L 204 204 L 205 205 L 206 206 L 206 206 L 207 207 L 208 208 L 208 208 L 209 209 L 209 209 L 210 210 L 211 211 L 211 211 L 212 212 L 213 213 L 213 213 L 214 214 L 214 214 L 215 215 L 216 216 L 216 216 L 217 217 L 218 218 L 218 218 L 219 219 L 219 219 L 220 220 L 221 221 L 221 221 L 222 222 L 223 223 L 223 223 L 224 224 L 224 224 L 225 225 L 226 226 L 226 226 L 227 227 L 228 228 L 228 228 L 229 229 L 229 229 L 230 230 L 231 231 L 231 231 L 232 232 L 233 233 L 233 233 L 234 234 L 234 234 L 235 235 L 236 236 L 236 236 L 237 237 L 238 238 L 238 238 L 239 239 L 239 239 L 240 240 L 241 241 L 241 241 L 242 242 L 243 243 L 243 243 L 244 244 L 244 244 L 245 245 L 246 246 L 246 246 L 247 247 L 248 248 L 248 248 L 249 249 L 249 249 L 250 250 L 251 251 L 251 251 L 252 252 L 253 253 L 253 253 L 254 254 L 254 254 L 255 255 L 256 256 L 256 256 L 257 257 L 258 258 L 258 258 L 259 259 L 259 259 L 260 260 L 261 261 L 261 261 L 262 262 L 263 263 L 263 263 L 264 264 L 264 264 L 265 265 L 266 266 L 266 266 L 267 267 L 268 268 L 268 268 L 269 269 L 269 269 L 270 270 L 271 271 L 271 271 L 272 272 L 273 273 L 273 273 L 274 274 L 274 274 L 275 275 L 276 276 L 276 276 L 277 277 L 278 278 L 278 278 L 279 279 L 279 279 L 280 280 L 281 281 L 281 281 L 282 282 L 283 283 L 283 283 L 284 284 L 284 284 L 285 285 L 286 286 L 286 286 L 287 287 L 288 288 L 288 288 L 289 289 L 289 289 L 290 290 L 291 291 L 291 291 L 292 292 L 293 293 L 293 293 L 294 294 L 294 294 L 295 295 L 296 296 L 296 296 L 297 297 L 298 298 L 298 298 L 299 299 L 299 299 L 300 300 L 301 301 L 301 301 L 302 302 L 303 303 L 303 303 L 304 304 L 304 304 L 305 305 L 306 306 L 306 306 L 307 307 L 308 308 L 308 308 L 309 309 L 309 309 L 310 310 L 311 311 L 311 311 L 312 312 L 313 313 L 313 313 L 314 314 L 314 314 L 315 315 L 316 316 L 316 316 L 317 317 L 318 318 L 318 318 L 319 319 L 319 319 L 320 320 L 321 321 L 321 321 L 322 322 L 323 323 L 323 323 L 324 324 L 324 324 L 325 325 L 326 326 L 326 326 L 327 327 L 328 328 L 328 328 L 329 329 L 329 329 L 330 330 L 331 331 L 331 331 L 332 332 L 333 333 L 333 333 L 334 334 L 334 334 L 335 335 L 336 336 L 336 336 L 337 337 L 338 338 L 338 338 L 339 339 L 339 339 L 340 340 L 341 341 L 341 341 L 342 342 L 343 343 L 343 343 L 344 344 L 344 344 L 345 345 L 346 346 L 346 346 L 347 347 L 348 348 L 348 348 L 349 349 L 349 349 L 350 350 L 351 351 L 351 351 L 352 352 L 353 353 L 353 353 L 354 354 L 354 354 L 355 355 L 356 356 L 356 356 L 357 357 L 358 358 L 358 358 L 359 359 L 359 359 L 360 360 L 361 361 L 361 361 L 362 362 L 363 363 L 363 363 L 364 364 L 364 364 L 365 365 L 366 366 L 366 366 L 367 367 L 368 368 L 368 368 L 369 369 L 369 369 L 370 370 L 371 371 L 371 371 L 372 372 L 373 373 L 373 373 L 374 374 L 374 374 L 375 375 L 376 376 L 376 376 L 377 377 L 378 378 L 378 378 L 379 379 L 379 379 L 380 380 L 381 381 L 381 381 L 382 382 L 383 383 L 383 383 L 384 384 L 384 384 L 385 385 L 386 386 L 386 386 L 387 387 L 388 388 L 388 388 L 389 389 L 389 389 L 390 390 L 391 391 L 391 391 L 392 392 L 393 393 L 393 393 L 394 394 L 394 394 L 395 395 L 396 396 L 396 396 L 397 397 L 398 398 L 398 398 L 399 399 L 399 399 L 400 400 L 401 401 L 401 401 L 402 402 L 403 403 L 403 403 L 404 404 L 404 404 L 405 405 L 406 406 L 406 406 L 407 407 L 408 408 L 408 408 L 409 409 L 409 409 L 410 410 L 411 411 L 411 411 L 412 412 L 413 413 L 413 413 L 414 414 L 414 414 L 415 415 L 416 416 L 416 416 L 417 417 L 418 418 L 418 418 L 419 419 L 419 419 L 420 420 L 421 421 L 421 421 L 422 422 L 423 423 L 423 423 L 424 424 L 424 424 L 425 425 L 426 426 L 426 426 L 427 427 L 428 428 L 428 428 L 429 429 L 429 429 L 430 430 L 431 431 L 431 431 L 432 432 L 433 433 L 433 433 L 434 434 L 434 434 L 435 435 L 436 436 L 436 436 L 437 437 L 438 438 L 438 438 L 439 439 L 439 439 L 440 440 L 441 441 L 441 441 L 442 442 L 443 443 L 443 443 L 444 444 L 444 444 L 445 445 L 446 446 L 446 446 L 447 447 L 448 448 L 448 448 L 449 449 L 449 449 L 450 450 L 451 451 L 451 451 L 452 452 L 453 453 L 453 453 L 454 454 L 454 454 L 455 455 L 456 456 L 456 456 L 457 457 L 458 458 L 458 458 L 459 459 L 459 459 L 460 460 L 461 461 L 461 461 L 462 462 L 463 463 L 463 463 L 464 464 L 464 464 L 465 465 L 466 466 L 466 466 L 467 467 L 468 468 L 468 468 L 469 469 L 469 469 L 470 470 L 471 471 L 471 471 L 472 472 L 473 473 L 473 473 L 474 474 L 474 474 L 475 475 L 476 476 L 476 476 L 477 477 L 478 478 L 478 478 L 479 479 L 479 479 L 480 480 L 481 481 L 481 481 L 482 482 L 483 483 L 483 483 L 484 484 L 484 484 L 485 485 L 486 486 L 486 486 L 487 487 L 488 488 L 488 488 L 489 489 L 489 489 L 490 490 L 491 491 L 491 491 L 492 492 L 493 493 L 493 493 L 494 494 L 494 494 L 495 495 L 496 496 L 496 496 L 497 497 L 498 498 L 498 498 L 499 499 L 499 499 " style="stroke:#8DC34E; stroke-width:5; stroke-linejoin:round; stroke-linecap:round; fill:rgba(0,0,0,0)"/><text x="62.5" y="280" text-anchor="middle" font-family="Nunito" font-size="22px" fill="#ccc">-3</text><text x="270" y="444.1" text-anchor="middle" font-family="Nunito" font-size="22px" fill="#ccc">-3</text><text x="125" y="280" text-anchor="middle" font-family="Nunito" font-size="22px" fill="#ccc">-2</text><text x="270" y="381.6" text-anchor="middle" font-family="Nunito" font-size="22px" fill="#ccc">-2</text><text x="187.5" y="280" text-anchor="middle" font-family="Nunito" font-size="22px" fill="#ccc">-1</text><text x="270" y="319.1" text-anchor="middle" font-family="Nunito" font-size="22px" fill="#ccc">-1</text><text x="267.6" y="280" text-anchor="middle" font-family="Nunito" font-size="22px" fill="#ccc">0</text><text x="267.6" y="280" text-anchor="middle" font-family="Nunito" font-size="22px" fill="#ccc">0</text><text x="312.5" y="280" text-anchor="middle" font-family="Nunito" font-size="22px" fill="#ccc">1</text><text x="270" y="194.1" text-anchor="middle" font-family="Nunito" font-size="22px" fill="#ccc">1</text><text x="375" y="280" text-anchor="middle" font-family="Nunito" font-size="22px" fill="#ccc">2</text><text x="270" y="131.6" text-anchor="middle" font-family="Nunito" font-size="22px" fill="#ccc">2</text><text x="437.5" y="280" text-anchor="middle" font-family="Nunito" font-size="22px" fill="#ccc">3</text><text x="270" y="69.1" text-anchor="middle" font-family="Nunito" font-size="22px" fill="#ccc">3</text></svg>