<svg xmlns="http://www.w3.org/2000/svg" width="500" height="500"><rect width="500" height="500" x="0" y="0" style="fill:#fff"/><path d="M 62 0 L 62 500" style="stroke:#f4f4f4; stroke-width:5; stroke-linejoin:round; stroke-linecap:round; fill:rgba(0,0,0,0)"/><path d="M 0 62 L 500 62" style="stroke:#f4f4f4; stroke-width:5; stroke-linejoin:round; stroke-linecap:round; fill:rgba(0,0,0,0)"/><path d="M 125 0 L 125 500" style="stroke:#f4f4f4; stroke-width:5; stroke-linejoin:round; stroke-linecap:round; fill:rgba(0,0,0,0)"/><path d="M 0 125 L 500 125" style="stroke:#f4f4f4; stroke-width:5; stroke-linejoin:round; stroke-linecap:round; fill:rgba(0,0,0,0)"/><path d="M 187 0 L 187 500" style="stroke:#f4f4f4; stroke-width:5; stroke-linejoin:round; stroke-linecap:round; fill:rgba(0,0,0,0)"/><path d="M 0 187 L 500 187" style="stroke:#f4f4f4; stroke-width:5; stroke-linejoin:round; stroke-linecap:round; fill:rgba(0,0,0,0)"/><path d="M 250 0 L 250 500" style="stroke:#f4f4f4; stroke-width:5; stroke-linejoin:round; stroke-linecap:round; fill:rgba(0,0,0,0)"/><path d="M 0 250 L 500 250" style="stroke:#f4f4f4; stroke-width:5; stroke-linejoin:round; stroke-linecap:round; fill:rgba(0,0,0,0)"/><path d="M 312 0 L 312 500" style="stroke:#f4f4f4; stroke-width:5; stroke-linejoin:round; stroke-linecap:round; fill:rgba(0,0,0,0)"/><path d="M 0 312 L 500 312" style="stroke:#f4f4f4; stroke-width:5; stroke-linejoin:round; stroke-linecap:round; fill:rgba(0,0,0,0)"/><path d="M 375 0 L 375 500" style="stroke:#f4f4f4; stroke-width:5; stroke-linejoin:round; stroke-linecap:round; fill:rgba(0,0,0,0)"/><path d="M 0 375 L 500 375" style="stroke:#f4f4f4; stroke-width:5; stroke-linejoin:round; stroke-linecap:round; fill:rgba(0,0,0,0)"/><path d="M 437 0 L 437 500" style="stroke:#f4f4f4; stroke-width:5; stroke-linejoin:round; stroke-linecap:round; fill:rgba(0,0,0,0)"/><path d="M 0 437 L 500 437" style="stroke:#f4f4f4; stroke-width:5; stroke-linejoin:round; stroke-linecap:round; fill:rgba(0,0,0,0)"/><path d="M 62 0 L 62 500" style="stroke:#f4f4f4; stroke-width:5; stroke-linejoin:round; stroke-linecap:round; fill:rgba(0,0,0,0)"/><path d="M 125 0 L 125 500" style="stroke:#f4f4f4; stroke-width:5; stroke-linejoin:round; stroke-linecap:round; fill:rgba(0,0,0,0)"/><path d="M 187 0 L 187 500" style="stroke:#f4f4f4; stroke-width:5; stroke-linejoin:round; stroke-linecap:round; fill:rgba(0,0,0,0)"/><path d="M 250 0 L 250 500" style="stroke:#f4f4f4; stroke-width:5; stroke-linejoin:round; stroke-linecap:round; fill:rgba(0,0,0,0)"/><path d="M 312 0 L 312 500" style="stroke:#f4f4f4; stroke-width:5; stroke-linejoin:round; stroke-linecap:round; fill:rgba(0,0,0,0)"/><path d="M 375 0 L 375 500" style="stroke:#f4f4f4; stroke-width:5; stroke-linejoin:round; stroke-linecap:round; fill:rgba(0,0,0,0)"/><path d="M 437 0 L 437 500" style="stroke:#f4f4f4; stroke-width:5; stroke-linejoin:round; stroke-linecap:round; fill:rgba(0,0,0,0)"/><path d="M 0 250 L 500 250" style="stroke:#ccc; stroke-width:5; stroke-linejoin:round; stroke-linecap:round; fill:rgba(0,0,0,0)"/><path d="M 250 0 L 250 500" style="stroke:#ccc; stroke-width:5; stroke-linejoin:round; stroke-linecap:round; fill:rgba(0,0,0,0)"/><path d="M 62 245 L 62 255" style="stroke:#ccc; stroke-width:5; stroke-linejoin:round; stroke-linecap:round; fill:rgba(0,0,0,0)"/><path d="M 245 437 L 255 437" style="stroke:#ccc; stroke-width:5; stroke-linejoin:round; stroke-linecap:round; fill:rgba(0,0,0,0)"/><path d="M 125 245 L 125 255" style="stroke:#ccc; stroke-width:5; stroke-linejoin:round; stroke-linecap:round; fill:rgba(0,0,0,0)"/><path d="M 245 375 L 255 375" style="stroke:#ccc; stroke-width:5; stroke-linejoin:round; stroke-linecap:round; fill:rgba(0,0,0,0)"/><path d="M 187 245 L 187 255" style="stroke:#ccc; stroke-width:5; stroke-linejoin:round; stroke-linecap:round; fill:rgba(0,0,0,0)"/><path d="M 245 312 L 255 312" style="stroke:#ccc; stroke-width:5; stroke-linejoin:round; stroke-linecap:round; fill:rgba(0,0,0,0)"/><path d="M 312 245 L 312 255" style="stroke:#ccc; stroke-width:5; stroke-linejoin:round; stroke-linecap:round; fill:rgba(0,0,0,0)"/><path d="M 245 187 L 255 187" style="stroke:#ccc; stroke-width:5; stroke-linejoin:round; stroke-linecap:round; fill:rgba(0,0,0,0)"/><path d="M 375 245 L 375 255" style="stroke:#ccc; stroke-width:5; stroke-linejoin:round; stroke-linecap:round; fill:rgba(0,0,0,0)"/><path d="M 245 125 L 255 125" style="stroke:#ccc; stroke-width:5; stroke-linejoin:round; stroke-linecap:round; fill:rgba(0,0,0,0)"/><path d="M 437 245 L 437 255" style="stroke:#ccc; stroke-width:5; stroke-linejoin:round; stroke-linecap:round; fill:rgba(0,0,0,0)"/><path d="M 245 62 L 255 62" style="stroke:#ccc; stroke-width:5; stroke-linejoin:round; stroke-linecap:round; fill:rgba(0,0,0,0)"/><path d="M 492 242 L 500 250" style="stroke:#ccc; stroke-width:5; stroke-linejoin:round; stroke-linecap:round; fill:rgba(0,0,0,0)"/><path d="M 492 257 L 500 250" style="stroke:#ccc; stroke-width:5; stroke-linejoin:round; stroke-linecap:round; fill:rgba(0,0,0,0)"/><path d="M 240 10 L 250 0" style="stroke:#ccc; stroke-width:5; stroke-linejoin:round; stroke-linecap:round; fill:rgba(0,0,0,0)"/><path d="M 260 10 L 250 0" style="stroke:#ccc; stroke-width:5; stroke-linejoin:round; stroke-linecap:round; fill:rgba(0,0,0,0)"/><path d="M 63 498 L 63 497 L 64 496 L 64 495 L 65 493 L 66 492 L 66 491 L 67 490 L 68 488 L 68 487 L 69 486 L 69 485 L 70 483 L 71 482 L 71 481 L 72 480 L 73 478 L 73 477 L 74 476 L 74 475 L 75 473 L 76 472 L 76 471 L 77 470 L 78 468 L 78 467 L 79 466 L 79 465 L 80 463 L 81 462 L 81 461 L 82 460 L 83 458 L 83 457 L 84 456 L 84 455 L 85 453 L 86 452 L 86 451 L 87 450 L 88 448 L 88 447 L 89 446 L 89 445 L 90 443 L 91 442 L 91 441 L 92 440 L 93 438 L 93 437 L 94 436 L 94 435 L 95 433 L 96 432 L 96 431 L 97 430 L 98 428 L 98 427 L 99 426 L 99 425 L 100 423 L 101 422 L 101 421 L 102 420 L 103 418 L 103 417 L 104 416 L 104 415 L 105 413 L 106 412 L 106 411 L 107 410 L 108 408 L 108 407 L 109 406 L 109 405 L 110 403 L 111 402 L 111 401 L 112 400 L 113 398 L 113 397 L 114 396 L 114 395 L 115 393 L 116 392 L 116 391 L 117 390 L 118 388 L 118 387 L 119 386 L 119 385 L 120 383 L 121 382 L 121 381 L 122 380 L 123 378 L 123 377 L 124 376 L 124 375 L 125 373 L 126 372 L 126 371 L 127 370 L 128 368 L 128 367 L 129 366 L 129 365 L 130 363 L 131 362 L 131 361 L 132 360 L 133 358 L 133 357 L 134 356 L 134 355 L 135 353 L 136 352 L 136 351 L 137 350 L 138 348 L 138 347 L 139 346 L 139 345 L 140 343 L 141 342 L 141 341 L 142 340 L 143 338 L 143 337 L 144 336 L 144 335 L 145 333 L 146 332 L 146 331 L 147 330 L 148 328 L 148 327 L 149 326 L 149 325 L 150 323 L 151 322 L 151 321 L 152 320 L 153 318 L 153 317 L 154 316 L 154 315 L 155 313 L 156 312 L 156 311 L 157 310 L 158 308 L 158 307 L 159 306 L 159 305 L 160 303 L 161 302 L 161 301 L 162 300 L 163 298 L 163 297 L 164 296 L 164 295 L 165 293 L 166 292 L 166 291 L 167 290 L 168 288 L 168 287 L 169 286 L 169 285 L 170 283 L 171 282 L 171 281 L 172 280 L 173 278 L 173 277 L 174 276 L 174 275 L 175 273 L 176 272 L 176 271 L 177 270 L 178 268 L 178 267 L 179 266 L 179 265 L 180 263 L 181 262 L 181 261 L 182 260 L 183 258 L 183 257 L 184 256 L 184 255 L 185 253 L 186 252 L 186 251 L 187 250 L 188 248 L 188 247 L 189 246 L 189 245 L 190 243 L 191 242 L 191 241 L 192 240 L 193 238 L 193 237 L 194 236 L 194 235 L 195 233 L 196 232 L 196 231 L 197 230 L 198 228 L 198 227 L 199 226 L 199 225 L 200 223 L 201 222 L 201 221 L 202 220 L 203 218 L 203 217 L 204 216 L 204 215 L 205 213 L 206 212 L 206 211 L 207 210 L 208 208 L 208 207 L 209 206 L 209 205 L 210 203 L 211 202 L 211 201 L 212 200 L 213 198 L 213 197 L 214 196 L 214 195 L 215 193 L 216 192 L 216 191 L 217 190 L 218 188 L 218 187 L 219 186 L 219 185 L 220 183 L 221 182 L 221 181 L 222 180 L 223 178 L 223 177 L 224 176 L 224 175 L 225 173 L 226 172 L 226 171 L 227 170 L 228 168 L 228 167 L 229 166 L 229 165 L 230 163 L 231 162 L 231 161 L 232 160 L 233 158 L 233 157 L 234 156 L 234 155 L 235 153 L 236 152 L 236 151 L 237 150 L 238 148 L 238 147 L 239 146 L 239 145 L 240 143 L 241 142 L 241 141 L 242 140 L 243 138 L 243 137 L 244 136 L 244 135 L 245 133 L 246 132 L 246 131 L 247 130 L 248 128 L 248 127 L 249 126 L 249 125 L 250 123 L 251 122 L 251 121 L 252 120 L 253 118 L 253 117 L 254 116 L 254 115 L 255 113 L 256 112 L 256 111 L 257 110 L 258 108 L 258 107 L 259 106 L 259 105 L 260 103 L 261 102 L 261 101 L 262 100 L 263 98 L 263 97 L 264 96 L 264 95 L 265 93 L 266 92 L 266 91 L 267 90 L 268 88 L 268 87 L 269 86 L 269 85 L 270 83 L 271 82 L 271 81 L 272 80 L 273 78 L 273 77 L 274 76 L 274 75 L 275 73 L 276 72 L 276 71 L 277 70 L 278 68 L 278 67 L 279 66 L 279 65 L 280 63 L 281 62 L 281 61 L 282 60 L 283 58 L 283 57 L 284 56 L 284 55 L 285 53 L 286 52 L 286 51 L 287 50 L 288 48 L 288 47 L 289 46 L 289 45 L 290 43 L 291 42 L 291 41 L 292 40 L 293 38 L 293 37 L 294 36 L 294 35 L 295 33 L 296 32 L 296 31 L 297 30 L 298 28 L 298 27 L 299 26 L 299 25 L 300 23 L 301 22 L 301 21 L 302 20 L 303 18 L 303 17 L 304 16 L 304 15 L 305 13 L 306 12 L 306 11 L 307 10 L 308 8 L 308 7 L 309 6 L 309 5 L 310 3 L 311 2 L 311 1 L 312 0 " style="stroke:#8DC34E; stroke-width:5; stroke-linejoin:round; stroke-linecap:round; fill:rgba(0,0,0,0)"/><path d="" style="stroke:#8DC34E; stroke-width:5; stroke-linejoin:round; stroke-linecap:round; fill:rgba(0,0,0,0)"/><text x="62.5" y="280" text-anchor="middle" font-family="Nunito" font-size="22px" fill="#ccc">-3</text><text x="270" y="444.1" text-anchor="middle" font-family="Nunito" font-size="22px" fill="#ccc">-3</text><text x="125" y="280" text-anchor="middle" font-family="Nunito" font-size="22px" fill="#ccc">-2</text><text x="270" y="381.6" text-anchor="middle" font-family="Nunito" font-size="22px" fill="#ccc">-2</text><text x="187.5" y="280" text-anchor="middle" font-family="Nunito" font-size="22px" fill="#ccc">-1</text><text x="270" y="319.1" text-anchor="middle" font-family="Nunito" font-size="22px" fill="#ccc">-1</text><text x="267.6" y="280" text-anchor="middle" font-family="Nunito" font-size="22px" fill="#ccc">0</text><text x="267.6" y="280" text-anchor="middle" font-family="Nunito" font-size="22px" fill="#ccc">0</text><text x="312.5" y="280" text-anchor="middle" font-family="Nunito" font-size="22px" fill="#ccc">1</text><text x="270" y="194.1" text-anchor="middle" font-family="Nunito" font-size="22px" fill="#ccc">1</text><text x="375" y="280" text-anchor="middle" font-family="Nunito" font-size="22px" fill="#ccc">2</text><text x="270" y="131.6" text-anchor="middle" font-family="Nunito" font-size="22px" fill="#ccc">2</text><text x="437.5" y="280" text-anchor="middle" font-family="Nunito" font-size="22px" fill="#ccc">3</text><text x="270" y="69.1" text-anchor="middle" font-family="Nunito" font-size="22px" fill="#ccc">3</text></svg>