<svg xmlns="http://www.w3.org/2000/svg" width="500" height="500"><rect width="500" height="500" x="0" y="0" style="fill:#fff"/><path d="M 62 0 L 62 500" style="stroke:#f4f4f4; stroke-width:5; stroke-linejoin:round; stroke-linecap:round; fill:rgba(0,0,0,0)"/><path d="M 0 62 L 500 62" style="stroke:#f4f4f4; stroke-width:5; stroke-linejoin:round; stroke-linecap:round; fill:rgba(0,0,0,0)"/><path d="M 125 0 L 125 500" style="stroke:#f4f4f4; stroke-width:5; stroke-linejoin:round; stroke-linecap:round; fill:rgba(0,0,0,0)"/><path d="M 0 125 L 500 125" style="stroke:#f4f4f4; stroke-width:5; stroke-linejoin:round; stroke-linecap:round; fill:rgba(0,0,0,0)"/><path d="M 187 0 L 187 500" style="stroke:#f4f4f4; stroke-width:5; stroke-linejoin:round; stroke-linecap:round; fill:rgba(0,0,0,0)"/><path d="M 0 187 L 500 187" style="stroke:#f4f4f4; stroke-width:5; stroke-linejoin:round; stroke-linecap:round; fill:rgba(0,0,0,0)"/><path d="M 250 0 L 250 500" style="stroke:#f4f4f4; stroke-width:5; stroke-linejoin:round; stroke-linecap:round; fill:rgba(0,0,0,0)"/><path d="M 0 250 L 500 250" style="stroke:#f4f4f4; stroke-width:5; stroke-linejoin:round; stroke-linecap:round; fill:rgba(0,0,0,0)"/><path d="M 312 0 L 312 500" style="stroke:#f4f4f4; stroke-width:5; stroke-linejoin:round; stroke-linecap:round; fill:rgba(0,0,0,0)"/><path d="M 0 312 L 500 312" style="stroke:#f4f4f4; stroke-width:5; stroke-linejoin:round; stroke-linecap:round; fill:rgba(0,0,0,0)"/><path d="M 375 0 L 375 500" style="stroke:#f4f4f4; stroke-width:5; stroke-linejoin:round; stroke-linecap:round; fill:rgba(0,0,0,0)"/><path d="M 0 375 L 500 375" style="stroke:#f4f4f4; stroke-width:5; stroke-linejoin:round; stroke-linecap:round; fill:rgba(0,0,0,0)"/><path d="M 437 0 L 437 500" style="stroke:#f4f4f4; stroke-width:5; stroke-linejoin:round; stroke-linecap:round; fill:rgba(0,0,0,0)"/><path d="M 0 437 L 500 437" style="stroke:#f4f4f4; stroke-width:5; stroke-linejoin:round; stroke-linecap:round; fill:rgba(0,0,0,0)"/><path d="M 62 0 L 62 500" style="stroke:#f4f4f4; stroke-width:5; stroke-linejoin:round; stroke-linecap:round; fill:rgba(0,0,0,0)"/><path d="M 125 0 L 125 500" style="stroke:#f4f4f4; stroke-width:5; stroke-linejoin:round; stroke-linecap:round; fill:rgba(0,0,0,0)"/><path d="M 187 0 L 187 500" style="stroke:#f4f4f4; stroke-width:5; stroke-linejoin:round; stroke-linecap:round; fill:rgba(0,0,0,0)"/><path d="M 250 0 L 250 500" style="stroke:#f4f4f4; stroke-width:5; stroke-linejoin:round; stroke-linecap:round; fill:rgba(0,0,0,0)"/><path d="M 312 0 L 312 500" style="stroke:#f4f4f4; stroke-width:5; stroke-linejoin:round; stroke-linecap:round; fill:rgba(0,0,0,0)"/><path d="M 375 0 L 375 500" style="stroke:#f4f4f4; stroke-width:5; stroke-linejoin:round; stroke-linecap:round; fill:rgba(0,0,0,0)"/><path d="M 437 0 L 437 500" style="stroke:#f4f4f4; stroke-width:5; stroke-linejoin:round; stroke-linecap:round; fill:rgba(0,0,0,0)"/><path d="M 0 250 L 500 250" style="stroke:#ccc; stroke-width:5; stroke-linejoin:round; stroke-linecap:round; fill:rgba(0,0,0,0)"/><path d="M 250 0 L 250 500" style="stroke:#ccc; stroke-width:5; stroke-linejoin:round; stroke-linecap:round; fill:rgba(0,0,0,0)"/><path d="M 62 245 L 62 255" style="stroke:#ccc; stroke-width:5; stroke-linejoin:round; stroke-linecap:round; fill:rgba(0,0,0,0)"/><path d="M 245 437 L 255 437" style="stroke:#ccc; stroke-width:5; stroke-linejoin:round; stroke-linecap:round; fill:rgba(0,0,0,0)"/><path d="M 125 245 L 125 255" style="stroke:#ccc; stroke-width:5; stroke-linejoin:round; stroke-linecap:round; fill:rgba(0,0,0,0)"/><path d="M 245 375 L 255 375" style="stroke:#ccc; stroke-width:5; stroke-linejoin:round; stroke-linecap:round; fill:rgba(0,0,0,0)"/><path d="M 187 245 L 187 255" style="stroke:#ccc; stroke-width:5; stroke-linejoin:round; stroke-linecap:round; fill:rgba(0,0,0,0)"/><path d="M 245 312 L 255 312" style="stroke:#ccc; stroke-width:5; stroke-linejoin:round; stroke-linecap:round; fill:rgba(0,0,0,0)"/><path d="M 312 245 L 312 255" style="stroke:#ccc; stroke-width:5; stroke-linejoin:round; stroke-linecap:round; fill:rgba(0,0,0,0)"/><path d="M 245 187 L 255 187" style="stroke:#ccc; stroke-width:5; stroke-linejoin:round; stroke-linecap:round; fill:rgba(0,0,0,0)"/><path d="M 375 245 L 375 255" style="stroke:#ccc; stroke-width:5; stroke-linejoin:round; stroke-linecap:round; fill:rgba(0,0,0,0)"/><path d="M 245 125 L 255 125" style="stroke:#ccc; stroke-width:5; stroke-linejoin:round; stroke-linecap:round; fill:rgba(0,0,0,0)"/><path d="M 437 245 L 437 255" style="stroke:#ccc; stroke-width:5; stroke-linejoin:round; stroke-linecap:round; fill:rgba(0,0,0,0)"/><path d="M 245 62 L 255 62" style="stroke:#ccc; stroke-width:5; stroke-linejoin:round; stroke-linecap:round; fill:rgba(0,0,0,0)"/><path d="M 492 242 L 500 250" style="stroke:#ccc; stroke-width:5; stroke-linejoin:round; stroke-linecap:round; fill:rgba(0,0,0,0)"/><path d="M 492 257 L 500 250" style="stroke:#ccc; stroke-width:5; stroke-linejoin:round; stroke-linecap:round; fill:rgba(0,0,0,0)"/><path d="M 240 10 L 250 0" style="stroke:#ccc; stroke-width:5; stroke-linejoin:round; stroke-linecap:round; fill:rgba(0,0,0,0)"/><path d="M 260 10 L 250 0" style="stroke:#ccc; stroke-width:5; stroke-linejoin:round; stroke-linecap:round; fill:rgba(0,0,0,0)"/><path d="M 208 498 L 209 496 L 209 495 L 210 493 L 211 491 L 211 489 L 212 487 L 213 485 L 213 483 L 214 481 L 214 480 L 215 478 L 216 476 L 216 474 L 217 472 L 218 470 L 218 468 L 219 466 L 219 465 L 220 463 L 221 461 L 221 459 L 222 457 L 223 455 L 223 453 L 224 451 L 224 450 L 225 448 L 226 446 L 226 444 L 227 442 L 228 440 L 228 438 L 229 436 L 229 435 L 230 433 L 231 431 L 231 429 L 232 427 L 233 425 L 233 423 L 234 421 L 234 420 L 235 418 L 236 416 L 236 414 L 237 412 L 238 410 L 238 408 L 239 406 L 239 405 L 240 403 L 241 401 L 241 399 L 242 397 L 243 395 L 243 393 L 244 391 L 244 390 L 245 388 L 246 386 L 246 384 L 247 382 L 248 380 L 248 378 L 249 376 L 249 375 L 250 373 L 251 371 L 251 369 L 252 367 L 253 365 L 253 363 L 254 361 L 254 360 L 255 358 L 256 356 L 256 354 L 257 352 L 258 350 L 258 348 L 259 346 L 259 345 L 260 343 L 261 341 L 261 339 L 262 337 L 263 335 L 263 333 L 264 331 L 264 330 L 265 328 L 266 326 L 266 324 L 267 322 L 268 320 L 268 318 L 269 316 L 269 315 L 270 313 L 271 311 L 271 309 L 272 307 L 273 305 L 273 303 L 274 301 L 274 300 L 275 298 L 276 296 L 276 294 L 277 292 L 278 290 L 278 288 L 279 286 L 279 285 L 280 283 L 281 281 L 281 279 L 282 277 L 283 275 L 283 273 L 284 271 L 284 270 L 285 268 L 286 266 L 286 264 L 287 262 L 288 260 L 288 258 L 289 256 L 289 255 L 290 253 L 291 251 L 291 249 L 292 247 L 293 245 L 293 243 L 294 241 L 294 240 L 295 238 L 296 236 L 296 234 L 297 232 L 298 230 L 298 228 L 299 226 L 299 225 L 300 223 L 301 221 L 301 219 L 302 217 L 303 215 L 303 213 L 304 211 L 304 210 L 305 208 L 306 206 L 306 204 L 307 202 L 308 200 L 308 198 L 309 196 L 309 195 L 310 193 L 311 191 L 311 189 L 312 187 L 313 185 L 313 183 L 314 181 L 314 180 L 315 178 L 316 176 L 316 174 L 317 172 L 318 170 L 318 168 L 319 166 L 319 165 L 320 163 L 321 161 L 321 159 L 322 157 L 323 155 L 323 153 L 324 151 L 324 150 L 325 148 L 326 146 L 326 144 L 327 142 L 328 140 L 328 138 L 329 136 L 329 135 L 330 133 L 331 131 L 331 129 L 332 127 L 333 125 L 333 123 L 334 121 L 334 120 L 335 118 L 336 116 L 336 114 L 337 112 L 338 110 L 338 108 L 339 106 L 339 105 L 340 103 L 341 101 L 341 99 L 342 97 L 343 95 L 343 93 L 344 91 L 344 90 L 345 88 L 346 86 L 346 84 L 347 82 L 348 80 L 348 78 L 349 76 L 349 75 L 350 73 L 351 71 L 351 69 L 352 67 L 353 65 L 353 63 L 354 61 L 354 60 L 355 58 L 356 56 L 356 54 L 357 52 L 358 50 L 358 48 L 359 46 L 359 45 L 360 43 L 361 41 L 361 39 L 362 37 L 363 35 L 363 33 L 364 31 L 364 30 L 365 28 L 366 26 L 366 24 L 367 22 L 368 20 L 368 18 L 369 16 L 369 15 L 370 13 L 371 11 L 371 9 L 372 7 L 373 5 L 373 3 L 374 1 L 374 0 " style="stroke:#8DC34E; stroke-width:5; stroke-linejoin:round; stroke-linecap:round; fill:rgba(0,0,0,0)"/><path d="" style="stroke:#8DC34E; stroke-width:5; stroke-linejoin:round; stroke-linecap:round; fill:rgba(0,0,0,0)"/><text x="62.5" y="280" text-anchor="middle" font-family="Nunito" font-size="22px" fill="#ccc">-3</text><text x="270" y="444.1" text-anchor="middle" font-family="Nunito" font-size="22px" fill="#ccc">-3</text><text x="125" y="280" text-anchor="middle" font-family="Nunito" font-size="22px" fill="#ccc">-2</text><text x="270" y="381.6" text-anchor="middle" font-family="Nunito" font-size="22px" fill="#ccc">-2</text><text x="187.5" y="280" text-anchor="middle" font-family="Nunito" font-size="22px" fill="#ccc">-1</text><text x="270" y="319.1" text-anchor="middle" font-family="Nunito" font-size="22px" fill="#ccc">-1</text><text x="267.6" y="280" text-anchor="middle" font-family="Nunito" font-size="22px" fill="#ccc">0</text><text x="267.6" y="280" text-anchor="middle" font-family="Nunito" font-size="22px" fill="#ccc">0</text><text x="312.5" y="280" text-anchor="middle" font-family="Nunito" font-size="22px" fill="#ccc">1</text><text x="270" y="194.1" text-anchor="middle" font-family="Nunito" font-size="22px" fill="#ccc">1</text><text x="375" y="280" text-anchor="middle" font-family="Nunito" font-size="22px" fill="#ccc">2</text><text x="270" y="131.6" text-anchor="middle" font-family="Nunito" font-size="22px" fill="#ccc">2</text><text x="437.5" y="280" text-anchor="middle" font-family="Nunito" font-size="22px" fill="#ccc">3</text><text x="270" y="69.1" text-anchor="middle" font-family="Nunito" font-size="22px" fill="#ccc">3</text></svg>